<svg width="224" height="140" viewBox="0 0 224 140" fill="none" xmlns="http://www.w3.org/2000/svg">
<path fill-rule="evenodd" clip-rule="evenodd" d="M83.7425 69.3811C82.7742 66.9566 82.1191 64.4205 81.8058 61.8566C81.6634 60.714 81.6065 59.5714 81.6065 58.4009C81.6065 54.36 83.1444 48.7305 84.7678 45.024L92.2296 52.3256C92.0872 52.8829 91.7455 54.1091 91.6315 54.6944C91.4037 55.9206 91.2898 57.1747 91.2898 58.4009C91.2898 60.2124 91.5176 62.0238 92.0303 63.7517L92.0588 63.8074C92.7138 66.1205 94.3657 69.1303 95.7897 71.0811L83.771 82.8417L78.6445 87.858C71.7522 79.8597 67.1384 68.8516 67.1384 58.4009C67.1384 47.9502 70.8694 37.9175 77.7901 29.9471C79.385 28.0799 81.1793 26.352 83.0874 24.7635L112.137 51.6288L141.216 24.7635C143.124 26.352 144.89 28.0799 146.513 29.9471C153.405 37.9175 157.165 47.9502 157.165 58.4009C157.165 68.8516 152.551 79.8876 145.63 87.858L140.504 82.8417L128.485 71.0811C129.909 69.1303 131.561 66.1205 132.216 63.8074C132.7 62.0517 132.957 60.2402 132.957 58.4009C132.957 56.5895 132.501 54.0813 132.017 52.3256L139.479 45.024C141.102 48.7305 142.64 54.36 142.64 58.4009C142.64 62.1632 141.928 65.8976 140.504 69.3811L144.121 72.9204C146.285 68.3779 147.396 63.4173 147.396 58.4009C147.396 50.8485 144.918 43.5748 140.276 37.5831L112.137 65.1451L83.9703 37.5831C79.328 43.5748 76.8502 50.8485 76.8502 58.4009C76.8502 63.4451 77.961 68.3779 80.1255 72.9204L83.7425 69.3811Z" fill="url(#paint0_linear)"/>
<path fill-rule="evenodd" clip-rule="evenodd" d="M81.8058 61.8566C82.1191 64.4205 82.7741 66.9566 83.7425 69.3812L80.1254 72.9205C79.8305 72.3016 79.5552 71.6754 79.2996 71.0427C80.5826 74.9026 82.554 78.4578 85.0715 81.5691L95.7897 71.0811C94.3656 69.1303 92.7138 66.1205 92.0587 63.8074L92.0302 63.7517C91.5176 62.0239 91.2898 60.2124 91.2898 58.4009C91.2898 57.1747 91.4037 55.9206 91.6315 54.6944C91.7144 54.2686 91.9179 53.5033 92.0775 52.9033C92.1373 52.6788 92.1908 52.4774 92.2296 52.3256L84.7677 45.024C83.1444 48.7305 81.6064 54.36 81.6064 58.4009C81.6064 59.5714 81.6634 60.714 81.8058 61.8566ZM145.264 70.2258C143.993 74.408 141.919 78.2514 139.219 81.5846L128.485 71.0811C129.909 69.1303 131.561 66.1205 132.216 63.8074C132.7 62.0517 132.957 60.2403 132.957 58.4009C132.957 56.5895 132.501 54.0813 132.017 52.3256L139.479 45.024C141.102 48.7305 142.64 54.36 142.64 58.4009C142.64 62.1632 141.928 65.8976 140.504 69.3812L144.121 72.9205C144.542 72.0372 144.923 71.138 145.264 70.2258Z" fill="url(#paint1_linear)"/>
<path fill-rule="evenodd" clip-rule="evenodd" d="M129.948 3.05176e-05H94.3557V8.19469H99.0664V27.3269L96.5311 29.9805L101.854 34.8499L105.986 38.893L106.669 38.6979C108.463 38.2241 110.315 37.9733 112.194 37.9733C114.074 37.9733 115.925 38.2241 117.72 38.6979L118.403 38.893L123.764 33.6477L127.772 29.9805L125.237 27.3269V8.19469H129.948V3.05176e-05ZM116.862 28.8502V8.19469H107.441V28.8534C109.001 28.617 110.581 28.498 112.166 28.498C113.743 28.498 115.313 28.6159 116.862 28.8502ZM124.242 74.9549L125.096 74.3697L131.988 81.1139L130.878 81.95C125.523 86.0466 118.944 88.2483 112.137 88.2483C105.331 88.2483 98.7801 86.0466 93.3974 81.95L92.2866 81.1139L99.1789 74.3697L100.033 74.9549C103.593 77.4352 107.78 78.7451 112.137 78.7451C116.495 78.7451 120.71 77.4352 124.242 74.9549Z" fill="url(#paint2_linear)"/>
<path d="M31.4079 139.687L31.3283 112.326H26.0339L15.7636 129.329L5.33416 112.326H0V139.687H6.05069V123.622L14.2112 136.795H17.1171L25.3174 123.27L25.3572 139.687H31.4079Z" fill="#132744"/>
<path d="M58.5595 129.251C58.5595 122.489 53.703 118.345 47.4135 118.345C40.8851 118.345 35.9888 122.88 35.9888 129.173C35.9888 135.427 40.8055 140 48.2096 140C52.0709 140 55.0564 138.827 57.0468 136.599L53.7428 133.081C52.2699 134.45 50.6378 135.114 48.3688 135.114C45.1046 135.114 42.8356 133.511 42.2385 130.893H58.4401C58.4799 130.384 58.5595 129.72 58.5595 129.251ZM47.4533 122.958C50.2398 122.958 52.2699 124.678 52.7078 127.336H42.1589C42.5968 124.639 44.627 122.958 47.4533 122.958Z" fill="#132744"/>
<path d="M68.6251 121.433V118.658H62.6938V139.687H68.9037V129.759C68.9037 125.733 71.1728 123.896 74.5962 123.896C75.0739 123.896 75.4719 123.935 75.9894 123.974V118.345C72.6854 118.345 70.1378 119.401 68.6251 121.433Z" fill="#132744"/>
<path d="M89.8373 140C94.3356 140 97.8784 138.046 99.4309 134.684L94.6142 132.104C93.4598 134.137 91.7481 134.997 89.7975 134.997C86.6528 134.997 84.1847 132.847 84.1847 129.173C84.1847 125.498 86.6528 123.349 89.7975 123.349C91.7481 123.349 93.4598 124.248 94.6142 126.241L99.4309 123.7C97.8784 120.261 94.3356 118.345 89.8373 118.345C82.8711 118.345 77.8952 122.84 77.8952 129.173C77.8952 135.505 82.8711 140 89.8373 140Z" fill="#132744"/>
<path d="M115.868 118.345C113.121 118.345 110.733 119.205 109.061 120.847V110.684H102.851V139.687H109.061V129.29C109.061 125.42 111.21 123.622 114.196 123.622C116.943 123.622 118.535 125.186 118.535 128.586V139.687H124.745V127.648C124.745 121.238 120.923 118.345 115.868 118.345Z" fill="#132744"/>
<path d="M130.812 139.687H151.233V134.528H137.261V112.326H130.812V139.687Z" fill="url(#paint3_linear)"/>
<path d="M163.27 118.345C159.846 118.345 156.383 119.244 154.034 120.886L156.263 125.147C157.816 123.935 160.165 123.192 162.434 123.192C165.777 123.192 167.37 124.717 167.37 127.336H162.434C155.905 127.336 153.238 129.915 153.238 133.629C153.238 137.264 156.224 140 161.239 140C164.384 140 166.613 138.984 167.768 137.068V139.687H173.58V127.687C173.58 121.316 169.798 118.345 163.27 118.345ZM162.792 135.896C160.602 135.896 159.289 134.879 159.289 133.355C159.289 131.948 160.204 130.893 163.11 130.893H167.37V133.042C166.653 134.958 164.862 135.896 162.792 135.896Z" fill="url(#paint4_linear)"/>
<path d="M191.859 118.345C189.191 118.345 187.002 119.166 185.41 120.886V110.684H179.2V139.687H185.131V137.264C186.684 139.101 188.992 140 191.859 140C197.869 140 202.527 135.779 202.527 129.173C202.527 122.567 197.869 118.345 191.859 118.345ZM190.784 134.997C187.679 134.997 185.33 132.808 185.33 129.173C185.33 125.538 187.679 123.349 190.784 123.349C193.889 123.349 196.237 125.538 196.237 129.173C196.237 132.808 193.889 134.997 190.784 134.997Z" fill="url(#paint5_linear)"/>
<path d="M213.889 140C220.298 140 224 137.225 224 133.316C224 125.029 211.063 128.508 211.063 124.912C211.063 123.818 212.257 122.958 215.043 122.958C216.994 122.958 219.104 123.349 221.214 124.521L223.284 120.182C221.253 119.01 217.989 118.345 215.043 118.345C208.794 118.345 205.131 121.16 205.131 125.147C205.131 133.551 218.069 130.033 218.069 133.472C218.069 134.645 216.994 135.388 214.128 135.388C211.501 135.388 208.595 134.567 206.684 133.355L204.614 137.733C206.604 139.023 210.267 140 213.889 140Z" fill="url(#paint6_linear)"/>
<defs>
<linearGradient id="paint0_linear" x1="112.152" y1="24.0389" x2="112.152" y2="87.858" gradientUnits="userSpaceOnUse">
<stop stop-color="#5089DA"/>
<stop offset="1" stop-color="#163F7A"/>
</linearGradient>
<linearGradient id="paint1_linear" x1="87.5514" y1="71.8299" x2="86.6806" y2="43.911" gradientUnits="userSpaceOnUse">
<stop stop-color="#204C8B"/>
<stop offset="1" stop-color="#71E1EB"/>
</linearGradient>
<linearGradient id="paint2_linear" x1="112.152" y1="97.3117" x2="112.152" y2="3.02522e-05" gradientUnits="userSpaceOnUse">
<stop stop-color="#C9F4EA"/>
<stop offset="1" stop-color="#71E1EB"/>
</linearGradient>
<linearGradient id="paint3_linear" x1="130.094" y1="140" x2="133.739" y2="107.512" gradientUnits="userSpaceOnUse">
<stop stop-color="#204C8B"/>
<stop offset="1" stop-color="#71E1EB"/>
</linearGradient>
<linearGradient id="paint4_linear" x1="130.094" y1="140" x2="133.739" y2="107.512" gradientUnits="userSpaceOnUse">
<stop stop-color="#204C8B"/>
<stop offset="1" stop-color="#71E1EB"/>
</linearGradient>
<linearGradient id="paint5_linear" x1="130.094" y1="140" x2="133.739" y2="107.512" gradientUnits="userSpaceOnUse">
<stop stop-color="#204C8B"/>
<stop offset="1" stop-color="#71E1EB"/>
</linearGradient>
<linearGradient id="paint6_linear" x1="130.094" y1="140" x2="133.739" y2="107.512" gradientUnits="userSpaceOnUse">
<stop stop-color="#204C8B"/>
<stop offset="1" stop-color="#71E1EB"/>
</linearGradient>
</defs>
</svg>
