<svg width="244" height="463" viewBox="0 0 244 463" fill="none" xmlns="http://www.w3.org/2000/svg">
<path d="M142.008 384.66V447.1C142.008 451.278 138.642 454.76 134.348 454.76H71.9081C67.73 454.76 64.2482 451.394 64.2482 447.1V384.66C64.2482 383.731 64.4803 382.803 64.7125 381.874C65.873 378.973 68.6585 377 71.9081 377H134.348C138.526 377 142.008 380.482 142.008 384.66Z" fill="#BCF2EB"/>
<path d="M140.035 384.66V447.1C140.035 451.278 136.669 454.76 132.375 454.76H69.9352C65.7571 454.76 62.2753 451.394 62.2753 447.1V384.66C62.2753 380.482 65.7571 377 69.9352 377H132.375C136.553 377 140.035 380.482 140.035 384.66Z" fill="#BCF2EB"/>
<path d="M142.008 384.66V447.1C142.008 451.278 138.642 454.76 134.348 454.76H71.9081C67.73 454.76 64.2482 451.394 64.2482 447.1V384.66C64.2482 383.731 64.4803 382.803 64.7125 381.874C65.873 378.973 68.6585 377 71.9081 377H134.348C138.526 377 142.008 380.482 142.008 384.66Z" fill="#BCF2EB"/>
<path d="M132.607 386.633H73.6491V433.753H132.607V386.633Z" fill="white"/>
<path d="M132.723 386.633H130.634V433.753H132.723V386.633Z" fill="#F7FFFE"/>
<path opacity="0.502" d="M142.008 384.66V447.1C142.008 451.278 138.642 454.76 134.348 454.76H129.938C128.777 450.93 128.081 446.752 125.992 443.502C122.51 438.279 116.475 436.19 110.44 433.869C108.235 433.057 105.913 432.128 103.94 431.084C96.9769 427.37 91.4061 420.986 88.7367 413.559C86.0674 406.131 86.2995 397.891 83.398 390.579C82.8177 389.302 82.1213 387.91 81.3089 386.749C78.6396 382.803 74.5775 379.669 69.9351 380.018C68.0782 380.134 66.3373 380.946 64.8285 381.991C63.9001 382.687 62.9716 383.731 62.3913 384.66C62.3913 380.482 65.8731 377 70.0512 377H134.464C138.526 377 142.008 380.482 142.008 384.66Z" fill="#F7FFFE"/>
<path d="M99.9945 442.689H71.0958V444.778H99.9945V442.689Z" fill="#BCF2EB"/>
<path d="M93.4952 447.332H71.0958V449.421H93.4952V447.332Z" fill="#BCF2EB"/>
<path d="M91.6382 410.309L101.155 421.335L116.823 400.908" stroke="#BCF2EB" stroke-width="5" stroke-miterlimit="10" stroke-linecap="round" stroke-linejoin="round"/>
<path d="M62.7395 462.536C70.8799 462.536 77.479 455.936 77.479 447.796C77.479 439.656 70.8799 433.057 62.7395 433.057C54.5991 433.057 48 439.656 48 447.796C48 455.936 54.5991 462.536 62.7395 462.536Z" fill="#FCBE1C"/>
<path d="M66.9886 458.014C72.609 455.67 75.2653 449.214 72.9215 443.593C70.5777 437.973 64.1215 435.317 58.5011 437.66C52.8807 440.004 50.2245 446.46 52.5682 452.081C54.912 457.701 61.3682 460.357 66.9886 458.014Z" fill="#FB8400"/>
<path d="M65.4088 448.841L64.4804 447.912C64.3643 448.26 64.2482 448.608 63.9001 448.841C63.2037 449.537 62.2752 449.653 61.3468 449.305C61.1147 449.189 60.8825 449.073 60.7665 448.841L57.865 445.939C57.0526 445.127 56.9365 443.618 57.865 442.805C58.6774 441.993 60.1862 441.993 60.9986 442.805L63.9001 445.707C64.1322 445.939 64.2482 446.055 64.3643 446.287C64.5964 446.403 64.8285 446.519 64.9446 446.751L65.757 447.564C65.757 446.868 65.641 446.171 65.2928 445.475C65.1767 445.243 64.9446 445.011 64.8285 444.895L61.9271 441.993C60.6504 440.716 58.4453 440.716 57.0526 441.993C55.7759 443.27 55.7759 445.475 57.0526 446.868L59.9541 449.769C60.1862 450.001 60.3022 450.117 60.5344 450.233C61.1146 450.581 61.9271 450.814 62.6234 450.698C63.4358 450.581 64.1322 450.349 64.7125 449.653C65.0607 449.421 65.2928 449.189 65.4088 448.841Z" fill="white"/>
<path d="M68.7746 448.841L65.8731 445.939C65.641 445.707 65.525 445.591 65.2928 445.475C64.7126 445.127 63.9001 444.895 63.2038 445.011C62.7396 445.011 62.2753 445.127 61.9271 445.359C61.579 445.475 61.3468 445.707 60.9987 445.939C60.4184 446.519 60.0702 447.332 60.0702 448.144C60.0702 448.841 60.1862 449.537 60.6505 450.233C60.7665 450.465 60.8826 450.581 61.1147 450.814L64.0162 453.715C65.2929 454.992 67.498 454.992 68.7746 453.715C70.0513 452.322 70.0513 450.117 68.7746 448.841ZM64.8286 452.787L61.9271 449.885C61.695 449.653 61.579 449.537 61.4629 449.305C61.1147 448.492 61.2308 447.448 61.9271 446.752C62.1593 446.519 62.5074 446.287 62.8556 446.171C63.3198 446.055 63.9001 446.055 64.4804 446.287C64.7126 446.403 64.9447 446.519 65.0607 446.752L67.9622 449.653C68.0783 449.769 68.1943 449.885 68.1943 450.001C68.7746 450.814 68.7746 452.09 67.9622 452.903C67.0337 453.715 65.641 453.715 64.8286 452.787Z" fill="white"/>
<path d="M68.0647 202.151V252.405C68.0647 255.77 65.2792 258.556 61.9135 258.556H11.776C8.41029 258.556 5.62488 255.77 5.62488 252.405V202.151C5.62488 201.339 5.74093 200.642 6.08911 199.946C7.01758 197.625 9.22271 196 11.776 196H62.0296C65.2792 196 68.0647 198.785 68.0647 202.151Z" fill="#74E2EB"/>
<path d="M66.5558 202.151V252.405C66.5558 255.77 63.7704 258.556 60.4047 258.556H10.1511C6.78542 258.556 4 255.77 4 252.405V202.151C4 198.785 6.78542 196 10.1511 196H60.4047C63.7704 196 66.5558 198.785 66.5558 202.151Z" fill="#BCF2EB"/>
<path d="M68.0647 202.151V252.405C68.0647 255.77 65.2792 258.556 61.9135 258.556H11.776C8.41029 258.556 5.62488 255.77 5.62488 252.405V202.151C5.62488 201.339 5.74093 200.642 6.08911 199.946C7.01758 197.625 9.22271 196 11.776 196H62.0296C65.2792 196 68.0647 198.785 68.0647 202.151Z" fill="#74E2EB"/>
<path d="M60.6369 203.776H13.1688V241.727H60.6369V203.776Z" fill="white"/>
<path d="M60.753 203.776H59.0121V241.727H60.753V203.776Z" fill="#F7FFFE"/>
<path opacity="0.502" d="M68.0647 202.151V252.405C68.0647 255.77 65.2792 258.556 61.9135 258.556H58.3157C57.3872 255.422 56.8069 252.173 55.0661 249.503C52.2806 245.325 47.4062 243.584 42.5317 241.727C40.6747 241.031 38.9338 240.335 37.309 239.406C31.6221 236.505 27.2119 231.282 25.1228 225.363C23.0337 219.444 23.1498 212.713 20.8286 206.91C20.3644 205.865 19.9002 204.82 19.2038 203.776C16.9987 200.526 13.749 198.089 10.0351 198.437C8.52637 198.553 7.13366 199.134 5.97307 200.062C5.16065 200.642 4.4643 201.455 4.00006 202.267C4.00006 198.901 6.78548 196.116 10.1512 196.116H61.9135C65.2792 196 68.0647 198.785 68.0647 202.151Z" fill="#F7FFFE"/>
<path d="M42.0675 246.486H13.1688V248.575H42.0675V246.486Z" fill="#BCF2EB"/>
<path d="M35.5682 251.128H13.1688V253.217H35.5682V251.128Z" fill="#BCF2EB"/>
<path d="M27.5601 222.81L35.22 231.63L47.8705 215.266" stroke="#BCF2EB" stroke-width="4" stroke-miterlimit="10" stroke-linecap="round" stroke-linejoin="round"/>
<path d="M231.857 61.8461V130.553C231.857 135.195 228.143 139.025 223.385 139.025H154.678C150.035 139.025 146.205 135.311 146.205 130.553V61.8461C146.205 60.8016 146.437 59.757 146.786 58.8286C147.946 55.695 151.08 53.4898 154.678 53.4898H223.385C228.027 53.3738 231.857 57.0877 231.857 61.8461Z" fill="#BCF2EB"/>
<path d="M229.652 61.8461V130.553C229.652 135.195 225.938 139.025 221.179 139.025H152.472C147.83 139.025 144 135.311 144 130.553V61.73C144 57.0877 147.83 53.3738 152.472 53.3738H221.179C225.938 53.3738 229.652 57.0877 229.652 61.8461Z" fill="#74E2EB"/>
<path d="M231.857 61.8461V130.553C231.857 135.195 228.143 139.025 223.385 139.025H154.678C150.035 139.025 146.205 135.311 146.205 130.553V61.8461C146.205 60.8016 146.437 59.757 146.786 58.8286C147.946 55.695 151.08 53.4898 154.678 53.4898H223.385C228.027 53.3738 231.857 57.0877 231.857 61.8461Z" fill="#BCF2EB"/>
<path d="M221.528 63.9352H156.535V115.93H221.528V63.9352Z" fill="white"/>
<path d="M221.644 63.9352H219.322V115.93H221.644V63.9352Z" fill="#F7FFFE"/>
<path d="M204.003 77.8622H175.916V107.109H204.003V77.8622Z" fill="#74E2EB"/>
<path d="M194.37 82.8528L189.727 74.9608L185.549 82.3885L184.04 81.4601L189.727 71.479L195.762 82.0404L194.37 82.8528Z" fill="#74E2EB"/>
<path d="M200.521 81.5761H179.282V103.395H200.521V81.5761Z" fill="white"/>
<path opacity="0.502" d="M231.857 61.8461V130.553C231.857 135.195 228.143 139.025 223.385 139.025H218.51C217.233 134.731 216.537 130.321 214.1 126.607C210.27 120.804 203.655 118.483 197.039 115.93C194.602 115.001 192.165 113.957 189.843 112.796C182.184 108.734 176.032 101.77 173.131 93.5302C170.23 85.4061 170.462 76.2374 167.212 68.2293C166.632 66.7206 165.819 65.3279 165.007 63.9352C162.105 59.5249 157.579 56.1592 152.473 56.5074C150.383 56.6234 148.526 57.4358 146.902 58.7125C145.857 59.5249 144.929 60.5694 144.232 61.73C144.232 57.0877 148.062 53.3738 152.705 53.3738H223.617C228.027 53.3738 231.857 57.0877 231.857 61.8461Z" fill="#F7FFFE"/>
<path d="M196.111 122.429H156.534V125.33H196.111V122.429Z" fill="#74E2EB"/>
<path d="M187.174 128.812H156.535V131.714H187.174V128.812Z" fill="#74E2EB"/>
<path d="M178.934 71.479C187.074 71.479 193.673 64.8799 193.673 56.7395C193.673 48.5991 187.074 42 178.934 42C170.793 42 164.194 48.5991 164.194 56.7395C164.194 64.8799 170.793 71.479 178.934 71.479Z" fill="#FCBE1C"/>
<path d="M178.934 67.7651C185.023 67.7651 189.959 62.8288 189.959 56.7395C189.959 50.6502 185.023 45.7139 178.934 45.7139C172.845 45.7139 167.908 50.6502 167.908 56.7395C167.908 62.8288 172.845 67.7651 178.934 67.7651Z" fill="#FB8400"/>
<path d="M181.603 57.784L180.675 56.8556C180.559 57.2037 180.443 57.5519 180.094 57.784C179.398 58.4804 178.47 58.5964 177.541 58.2483C177.309 58.1322 177.077 58.0161 176.961 57.784L174.059 54.8825C173.247 54.0701 173.131 52.5614 174.059 51.749C174.872 50.9365 176.381 50.9365 177.193 51.749L180.094 54.6504C180.327 54.8825 180.443 54.9986 180.559 55.2307C180.791 55.3468 181.023 55.4628 181.139 55.695L181.951 56.5074C181.951 55.811 181.835 55.1147 181.487 54.4183C181.371 54.1862 181.139 53.9541 181.023 53.838L178.121 50.9365C176.845 49.6599 174.64 49.6599 173.247 50.9365C171.97 52.2132 171.97 54.4183 173.247 55.811L176.148 58.7125C176.381 58.9446 176.497 59.0607 176.729 59.1767C177.309 59.5249 178.121 59.757 178.818 59.641C179.63 59.5249 180.327 59.2928 180.907 58.5964C181.255 58.3643 181.487 58.0161 181.603 57.784Z" fill="white"/>
<path d="M184.969 57.784L182.067 54.8826C181.835 54.6504 181.719 54.5344 181.487 54.4183C180.907 54.0701 180.094 53.838 179.398 53.9541C178.934 53.9541 178.47 54.0701 178.121 54.3023C177.773 54.4183 177.541 54.6504 177.193 54.8826C176.613 55.4628 176.265 56.2753 176.265 57.0877C176.265 57.784 176.381 58.4804 176.845 59.1767C176.961 59.4089 177.077 59.5249 177.309 59.757L180.211 62.6585C181.487 63.9352 183.692 63.9352 184.969 62.6585C186.246 61.2658 186.246 59.0607 184.969 57.784ZM180.907 61.73L178.005 58.8286C177.773 58.5964 177.657 58.4804 177.541 58.2483C177.193 57.4358 177.309 56.3913 178.005 55.695C178.238 55.4628 178.586 55.2307 178.934 55.1147C179.398 54.9986 179.978 54.9986 180.559 55.2307C180.791 55.3468 181.023 55.4628 181.139 55.695L184.04 58.5964C184.157 58.7125 184.273 58.8286 184.273 58.9446C184.853 59.757 184.853 61.0337 184.04 61.8461C183.228 62.6585 181.835 62.6585 180.907 61.73Z" fill="white"/>
<path d="M229.187 145.757C237.328 145.757 243.927 139.158 243.927 131.017C243.927 122.877 237.328 116.278 229.187 116.278C221.047 116.278 214.448 122.877 214.448 131.017C214.448 139.158 221.047 145.757 229.187 145.757Z" fill="#FCBE1C"/>
<path d="M229.187 142.043C235.277 142.043 240.213 137.107 240.213 131.017C240.213 124.928 235.277 119.992 229.187 119.992C223.098 119.992 218.162 124.928 218.162 131.017C218.162 137.107 223.098 142.043 229.187 142.043Z" fill="#FB8400"/>
<path d="M231.741 131.946L230.812 131.017C230.696 131.365 230.58 131.714 230.232 131.946C229.536 132.642 228.607 132.758 227.679 132.41C227.447 132.294 227.215 132.178 227.098 131.946L224.197 129.044C223.385 128.232 223.269 126.723 224.197 125.911C225.009 125.098 226.518 125.098 227.331 125.911L230.232 128.812C230.464 129.044 230.58 129.16 230.696 129.392C230.928 129.509 231.161 129.625 231.277 129.857L232.089 130.669C232.089 129.973 231.973 129.276 231.625 128.58C231.509 128.348 231.277 128.116 231.161 128L228.259 125.098C226.982 123.822 224.777 123.822 223.385 125.098C222.108 126.375 222.108 128.58 223.385 129.973L226.286 132.874C226.518 133.106 226.634 133.222 226.866 133.338C227.447 133.687 228.259 133.919 228.955 133.803C229.768 133.687 230.464 133.455 231.044 132.758C231.393 132.642 231.625 132.294 231.741 131.946Z" fill="white"/>
<path d="M235.107 132.062L232.205 129.16C231.973 128.928 231.857 128.812 231.625 128.696C231.045 128.348 230.232 128.116 229.536 128.232C229.072 128.232 228.607 128.348 228.259 128.58C227.911 128.696 227.679 128.928 227.331 129.16C226.75 129.741 226.402 130.553 226.402 131.365C226.402 132.062 226.518 132.758 226.982 133.455C227.099 133.687 227.215 133.803 227.447 134.035L230.348 136.936C231.625 138.213 233.83 138.213 235.107 136.936C236.499 135.544 236.499 133.338 235.107 132.062ZM231.161 136.008L228.259 133.106C228.027 132.874 227.911 132.758 227.795 132.526C227.447 131.714 227.563 130.669 228.259 129.973C228.491 129.741 228.839 129.509 229.188 129.392C229.652 129.276 230.232 129.276 230.812 129.509C231.045 129.625 231.277 129.741 231.393 129.973L234.294 132.874C234.41 132.99 234.526 133.106 234.526 133.222C235.107 134.035 235.107 135.311 234.294 136.124C233.366 136.82 231.973 136.82 231.161 136.008Z" fill="white"/>
<path d="M50.0659 4.87448V44.9149C50.0659 47.5842 47.8608 49.7893 45.1914 49.7893H5.15103C2.48167 49.7893 0.27655 47.5842 0.27655 44.9149V4.87448C0.27655 4.29419 0.392613 3.71389 0.624731 3.1336C1.32109 1.27665 3.06196 0 5.15103 0H45.1914C47.8608 0 50.0659 2.20512 50.0659 4.87448Z" fill="#F7FFFE"/>
</svg>
