<svg width="100" height="104" viewBox="0 0 100 104" fill="none" xmlns="http://www.w3.org/2000/svg">
<path d="M87.8569 19.8461V88.5531C87.8569 93.1954 84.143 97.0254 79.3845 97.0254H10.6776C6.03523 97.0254 2.20526 93.3115 2.20526 88.5531V19.8461C2.20526 18.8016 2.43738 17.757 2.78556 16.8286C3.94615 13.695 7.07976 11.4898 10.6776 11.4898H79.3845C84.0269 11.3738 87.8569 15.0877 87.8569 19.8461Z" fill="#BCF2EB"/>
<path d="M85.6517 19.8461V88.5531C85.6517 93.1954 81.9378 97.0254 77.1793 97.0254H8.47239C3.83003 97.0254 6.10352e-05 93.3115 6.10352e-05 88.5531V19.73C6.10352e-05 15.0877 3.83003 11.3738 8.47239 11.3738H77.1793C81.9378 11.3738 85.6517 15.0877 85.6517 19.8461Z" fill="#74E2EB"/>
<path d="M87.8569 19.8461V88.5531C87.8569 93.1954 84.143 97.0254 79.3845 97.0254H10.6776C6.03523 97.0254 2.20526 93.3115 2.20526 88.5531V19.8461C2.20526 18.8016 2.43738 17.757 2.78556 16.8286C3.94615 13.695 7.07976 11.4898 10.6776 11.4898H79.3845C84.0269 11.3738 87.8569 15.0877 87.8569 19.8461Z" fill="#BCF2EB"/>
<path d="M77.5276 21.9352H12.5345V73.9296H77.5276V21.9352Z" fill="white"/>
<path d="M77.6436 21.9352H75.3224V73.9296H77.6436V21.9352Z" fill="#F7FFFE"/>
<path d="M60.0026 35.8622H31.9163V65.1091H60.0026V35.8622Z" fill="#74E2EB"/>
<path d="M50.3697 40.8528L45.7274 32.9608L41.5493 40.3885L40.0405 39.4601L45.7274 29.479L51.7624 40.0404L50.3697 40.8528Z" fill="#74E2EB"/>
<path d="M56.5209 39.5761H35.2821V61.3952H56.5209V39.5761Z" fill="white"/>
<path opacity="0.502" d="M87.8569 19.8461V88.5531C87.8569 93.1954 84.143 97.0254 79.3846 97.0254H74.5101C73.2335 92.7312 72.5371 88.3209 70.0998 84.607C66.2699 78.8041 59.6545 76.4829 53.0392 73.9296C50.6019 73.0011 48.1647 71.9566 45.8435 70.796C38.1836 66.734 32.0325 59.7704 29.131 51.5302C26.2295 43.4061 26.4616 34.2374 23.212 26.2293C22.6317 24.7206 21.8193 23.3279 21.0069 21.9352C18.1054 17.5249 13.5791 14.1592 8.4725 14.5074C6.38344 14.6234 4.52647 15.4358 2.90164 16.7125C1.85711 17.5249 0.928654 18.5694 0.2323 19.73C0.2323 15.0877 4.06223 11.3738 8.7046 11.3738H79.6167C84.0269 11.3738 87.8569 15.0877 87.8569 19.8461Z" fill="#F7FFFE"/>
<path d="M52.1106 80.4289H12.5345V83.3304H52.1106V80.4289Z" fill="#74E2EB"/>
<path d="M43.1741 86.8122H12.5345V89.7137H43.1741V86.8122Z" fill="#74E2EB"/>
<path d="M34.9339 29.479C43.0743 29.479 49.6734 22.8799 49.6734 14.7395C49.6734 6.5991 43.0743 0 34.9339 0C26.7935 0 20.1943 6.5991 20.1943 14.7395C20.1943 22.8799 26.7935 29.479 34.9339 29.479Z" fill="#FCBE1C"/>
<path d="M34.9338 25.7651C41.0231 25.7651 45.9594 20.8288 45.9594 14.7395C45.9594 8.65022 41.0231 3.71388 34.9338 3.71388C28.8445 3.71388 23.9082 8.65022 23.9082 14.7395C23.9082 20.8288 28.8445 25.7651 34.9338 25.7651Z" fill="#FB8400"/>
<path d="M37.6031 15.784L36.6747 14.8556C36.5586 15.2037 36.4426 15.5519 36.0944 15.784C35.398 16.4804 34.4696 16.5964 33.5411 16.2483C33.309 16.1322 33.0768 16.0161 32.9608 15.784L30.0593 12.8825C29.2469 12.0701 29.1308 10.5614 30.0593 9.74895C30.8717 8.93654 32.3805 8.93654 33.1929 9.74895L36.0944 12.6504C36.3265 12.8825 36.4426 12.9986 36.5586 13.2307C36.7907 13.3468 37.0229 13.4628 37.1389 13.695L37.9513 14.5074C37.9513 13.811 37.8353 13.1147 37.4871 12.4183C37.3711 12.1862 37.1389 11.9541 37.0229 11.838L34.1214 8.93654C32.8447 7.65989 30.6396 7.65989 29.2469 8.93654C27.9703 10.2132 27.9703 12.4183 29.2469 13.811L32.1484 16.7125C32.3805 16.9446 32.4966 17.0607 32.7287 17.1767C33.309 17.5249 34.1214 17.757 34.8177 17.641C35.6302 17.5249 36.3265 17.2928 36.9068 16.5964C37.255 16.3643 37.4871 16.0161 37.6031 15.784Z" fill="white"/>
<path d="M40.969 15.784L38.0675 12.8826C37.8354 12.6504 37.7193 12.5344 37.4872 12.4183C36.9069 12.0701 36.0945 11.838 35.3981 11.9541C34.9339 11.9541 34.4696 12.0701 34.1214 12.3023C33.7733 12.4183 33.5412 12.6504 33.193 12.8826C32.6127 13.4628 32.2645 14.2753 32.2645 15.0877C32.2645 15.784 32.3806 16.4804 32.8448 17.1767C32.9609 17.4089 33.0769 17.5249 33.3091 17.757L36.2105 20.6585C37.4872 21.9352 39.6923 21.9352 40.969 20.6585C42.2456 19.2658 42.2456 17.0607 40.969 15.784ZM36.9069 19.73L34.0054 16.8286C33.7733 16.5964 33.6572 16.4804 33.5411 16.2483C33.193 15.4358 33.3091 14.3913 34.0054 13.695C34.2375 13.4628 34.5857 13.2307 34.9339 13.1147C35.3981 12.9986 35.9784 12.9986 36.5587 13.2307C36.7908 13.3468 37.0229 13.4628 37.139 13.695L40.0405 16.5964C40.1565 16.7125 40.2726 16.8286 40.2726 16.9446C40.8529 17.757 40.8529 19.0337 40.0405 19.8461C39.228 20.6585 37.8354 20.6585 36.9069 19.73Z" fill="white"/>
<path d="M85.1875 103.757C93.3279 103.757 99.927 97.1577 99.927 89.0173C99.927 80.8769 93.3279 74.2778 85.1875 74.2778C77.0471 74.2778 70.448 80.8769 70.448 89.0173C70.448 97.1577 77.0471 103.757 85.1875 103.757Z" fill="#FCBE1C"/>
<path d="M85.1874 100.043C91.2767 100.043 96.213 95.1066 96.213 89.0173C96.213 82.928 91.2767 77.9917 85.1874 77.9917C79.0981 77.9917 74.1618 82.928 74.1618 89.0173C74.1618 95.1066 79.0981 100.043 85.1874 100.043Z" fill="#FB8400"/>
<path d="M87.7408 89.9458L86.8124 89.0173C86.6963 89.3655 86.5802 89.7136 86.2321 89.9458C85.5357 90.6421 84.6072 90.7582 83.6788 90.41C83.4466 90.2939 83.2145 90.1779 83.0985 89.9458L80.197 87.0443C79.3846 86.2319 79.2685 84.7231 80.197 83.9107C81.0094 83.0983 82.5182 83.0983 83.3306 83.9107L86.2321 86.8122C86.4642 87.0443 86.5802 87.1604 86.6963 87.3925C86.9284 87.5085 87.1605 87.6246 87.2766 87.8567L88.089 88.6691C88.089 87.9728 87.9729 87.2764 87.6248 86.5801C87.5087 86.3479 87.2766 86.1158 87.1605 85.9998L84.259 83.0983C82.9824 81.8216 80.7773 81.8216 79.3846 83.0983C78.1079 84.3749 78.1079 86.5801 79.3846 87.9728L82.286 90.8742C82.5181 91.1064 82.6342 91.2224 82.8663 91.3385C83.4466 91.6867 84.2591 91.9188 84.9554 91.8027C85.7678 91.6867 86.4642 91.4545 87.0445 90.7582C87.3926 90.6421 87.6248 90.2939 87.7408 89.9458Z" fill="white"/>
<path d="M91.1066 90.0618L88.2051 87.1603C87.973 86.9282 87.8569 86.8122 87.6248 86.6961C87.0445 86.3479 86.2321 86.1158 85.5358 86.2319C85.0715 86.2319 84.6073 86.3479 84.2591 86.5801C83.9109 86.6961 83.6788 86.9282 83.3307 87.1603C82.7504 87.7406 82.4022 88.5531 82.4022 89.3655C82.4022 90.0618 82.5182 90.7582 82.9825 91.4545C83.0985 91.6867 83.2146 91.8027 83.4467 92.0348L86.3482 94.9363C87.6248 96.213 89.8299 96.213 91.1066 94.9363C92.4993 93.5436 92.4993 91.3385 91.1066 90.0618ZM87.1606 94.0078L84.2591 91.1064C84.027 90.8742 83.9109 90.7582 83.7949 90.5261C83.4467 89.7136 83.5628 88.6691 84.2591 87.9728C84.4912 87.7406 84.8394 87.5085 85.1876 87.3925C85.6518 87.2764 86.2321 87.2764 86.8124 87.5085C87.0445 87.6246 87.2767 87.7406 87.3927 87.9728L90.2942 90.8742C90.4103 90.9903 90.5263 91.1064 90.5263 91.2224C91.1066 92.0348 91.1066 93.3115 90.2942 94.1239C89.3657 94.8202 87.973 94.8203 87.1606 94.0078Z" fill="white"/>
</svg>
