<svg width="457" height="503" viewBox="0 0 457 503" fill="none" xmlns="http://www.w3.org/2000/svg">
<g opacity="0.5">
<path opacity="0.5" d="M466.673 240.474L289.916 265.427L443.113 380.21L397.038 465.281" stroke="#BFCBDD" stroke-miterlimit="10" stroke-linecap="round" stroke-linejoin="round" stroke-dasharray="5 5"/>
<path opacity="0.5" d="M46.7717 432.668L146.234 425.008" stroke="#BFCBDD" stroke-miterlimit="10" stroke-linecap="round" stroke-linejoin="round" stroke-dasharray="5 5"/>
<path opacity="0.5" d="M33.7732 420.598L59.5383 261.481L198.345 263.686" stroke="#BFCBDD" stroke-miterlimit="10" stroke-linecap="round" stroke-linejoin="round" stroke-dasharray="5 5"/>
<path opacity="0.5" d="M97.7217 33.5411H213.897L269.257 212.736" stroke="#BFCBDD" stroke-miterlimit="10" stroke-linecap="round" stroke-linejoin="round" stroke-dasharray="5 5"/>
<path opacity="0.5" d="M85.1874 44.6827V133.12L203.336 230.029" stroke="#BFCBDD" stroke-miterlimit="10" stroke-linecap="round" stroke-linejoin="round" stroke-dasharray="5 5"/>
<path opacity="0.5" d="M305.816 388.682L377.308 467.602" stroke="#BFCBDD" stroke-miterlimit="10" stroke-linecap="round" stroke-linejoin="round" stroke-dasharray="5 5"/>
<path opacity="0.5" d="M280.631 381.486L89.8298 301.754" stroke="#BFCBDD" stroke-miterlimit="10" stroke-linecap="round" stroke-linejoin="round" stroke-dasharray="5 5"/>
<path opacity="0.5" d="M228.404 306.628L144.261 401.564" stroke="#BFCBDD" stroke-miterlimit="10" stroke-linecap="round" stroke-linejoin="round" stroke-dasharray="5 5"/>
<path opacity="0.5" d="M292.585 368.836L281.907 306.512" stroke="#BFCBDD" stroke-miterlimit="10" stroke-linecap="round" stroke-linejoin="round" stroke-dasharray="5 5"/>
<path opacity="0.5" d="M324.037 17.641L393.672 104.917L288.523 216.914" stroke="#BFCBDD" stroke-miterlimit="10" stroke-linecap="round" stroke-linejoin="round" stroke-dasharray="5 5"/>
<path opacity="0.5" d="M213.897 32.0323L301.986 16.2483" stroke="#BFCBDD" stroke-miterlimit="10" stroke-linecap="round" stroke-linejoin="round" stroke-dasharray="5 5"/>
<path opacity="0.5" d="M486.868 118.728H415.84" stroke="#BFCBDD" stroke-miterlimit="10" stroke-linecap="round" stroke-linejoin="round" stroke-dasharray="5 5"/>
<path opacity="0.5" d="M292.585 392.976L268.793 481.413" stroke="#BFCBDD" stroke-miterlimit="10" stroke-linecap="round" stroke-linejoin="round" stroke-dasharray="5 5"/>
<path opacity="0.5" d="M443.113 357.578L388.566 125.924" stroke="#BFCBDD" stroke-miterlimit="10" stroke-linecap="round" stroke-linejoin="round" stroke-dasharray="5 5"/>
</g>
<path d="M300.593 445.899V496.733C300.593 500.215 297.807 503 294.326 503H243.492C240.01 503 237.225 500.215 237.225 496.733V445.899C237.225 445.087 237.341 444.39 237.689 443.694C238.617 441.373 240.822 439.748 243.492 439.748H294.326C297.807 439.748 300.593 442.533 300.593 445.899Z" fill="#BCF2EB"/>
<path d="M299.084 445.899V496.733C299.084 500.215 296.299 503 292.817 503H241.983C238.501 503 235.716 500.215 235.716 496.733V445.899C235.716 442.417 238.501 439.748 241.983 439.748H292.817C296.299 439.748 299.084 442.533 299.084 445.899Z" fill="#BCF2EB"/>
<path d="M300.593 445.899V496.733C300.593 500.215 297.807 503 294.326 503H243.492C240.01 503 237.225 500.215 237.225 496.733V445.899C237.225 445.087 237.341 444.39 237.689 443.694C238.617 441.373 240.822 439.748 243.492 439.748H294.326C297.807 439.748 300.593 442.533 300.593 445.899Z" fill="#BCF2EB"/>
<path d="M292.933 447.524H245.001V485.939H292.933V447.524Z" fill="white"/>
<path d="M293.165 447.524H291.424V485.939H293.165V447.524Z" fill="#F7FFFE"/>
<path d="M268.793 478.628C274.818 478.628 279.702 473.743 279.702 467.718C279.702 461.693 274.818 456.809 268.793 456.809C262.768 456.809 257.883 461.693 257.883 467.718C257.883 473.743 262.768 478.628 268.793 478.628Z" stroke="#BCF2EB" stroke-width="4" stroke-miterlimit="10" stroke-linecap="round" stroke-linejoin="round"/>
<path opacity="0.502" d="M300.593 445.899V496.733C300.593 500.215 297.808 503 294.326 503H290.728C289.799 499.866 289.219 496.501 287.478 493.831C284.693 489.537 279.702 487.796 274.828 485.939C272.971 485.243 271.23 484.547 269.489 483.618C263.802 480.601 259.276 475.378 257.187 469.343C255.098 463.308 255.214 456.576 252.777 450.657C252.312 449.613 251.732 448.568 251.152 447.524C248.947 444.274 245.697 441.837 241.867 442.069C240.358 442.185 238.966 442.765 237.689 443.694C236.877 444.274 236.18 445.087 235.716 445.899C235.716 442.417 238.501 439.748 241.983 439.748H294.326C297.808 439.748 300.593 442.533 300.593 445.899Z" fill="#F7FFFE"/>
<path d="M274.248 490.698H245.001V492.787H274.248V490.698Z" fill="#BCF2EB"/>
<path d="M267.632 495.456H245.001V497.545H267.632V495.456Z" fill="#BCF2EB"/>
<path d="M478.976 354.56V410.733C478.976 414.563 475.842 417.581 472.128 417.581H415.956C412.126 417.581 409.108 414.447 409.108 410.733V354.56C409.108 353.632 409.224 352.82 409.573 352.123C410.617 349.57 413.054 347.713 415.956 347.713H472.128C475.842 347.597 478.976 350.731 478.976 354.56Z" fill="#BCF2EB"/>
<path d="M477.235 354.56V410.733C477.235 414.563 474.101 417.581 470.387 417.581H414.215C410.385 417.581 407.367 414.447 407.367 410.733V354.56C407.367 350.731 410.501 347.713 414.215 347.713H470.387C474.101 347.597 477.235 350.731 477.235 354.56Z" fill="#BCF2EB"/>
<path d="M478.976 354.56V410.733C478.976 414.563 475.842 417.581 472.128 417.581H415.956C412.126 417.581 409.108 414.447 409.108 410.733V354.56C409.108 353.632 409.224 352.82 409.573 352.123C410.617 349.57 413.054 347.713 415.956 347.713H472.128C475.842 347.597 478.976 350.731 478.976 354.56Z" fill="#BCF2EB"/>
<path d="M470.504 356.301H417.465V398.779H470.504V356.301Z" fill="white"/>
<path d="M439.168 371.621V384.968L451.702 378.353L439.168 371.621Z" fill="#BCF2EB"/>
<path d="M444.042 392.628C436.15 392.628 429.651 386.245 429.651 378.237C429.651 370.344 436.034 363.845 444.042 363.845C451.934 363.845 458.433 370.228 458.433 378.237C458.317 386.245 451.934 392.628 444.042 392.628ZM444.042 366.166C437.311 366.166 431.856 371.621 431.856 378.353C431.856 385.084 437.311 390.539 444.042 390.539C450.774 390.539 456.228 385.084 456.228 378.353C456.228 371.621 450.657 366.166 444.042 366.166Z" fill="#BCF2EB"/>
<path opacity="0.502" d="M478.976 354.56V410.733C478.976 414.563 475.842 417.581 472.128 417.581H468.182C467.138 414.099 466.558 410.385 464.585 407.367C461.451 402.609 455.996 400.752 450.657 398.663C448.684 397.85 446.595 397.038 444.738 396.11C438.471 392.86 433.481 387.057 431.043 380.326C428.722 373.594 428.838 366.282 426.169 359.667C425.705 358.506 425.124 357.346 424.312 356.185C421.875 352.587 418.277 349.802 413.983 350.15C412.358 350.266 410.733 350.963 409.456 352.007C408.644 352.703 407.832 353.516 407.251 354.444C407.251 350.614 410.385 347.597 414.099 347.597H472.012C475.842 347.597 478.976 350.731 478.976 354.56Z" fill="#F7FFFE"/>
<path d="M449.729 404.118H417.465V406.439H449.729V404.118Z" fill="#BCF2EB"/>
<path d="M442.533 409.224H417.465V411.545H442.533V409.224Z" fill="#BCF2EB"/>
<path d="M503.232 329.956C503.232 322.992 497.545 317.422 490.698 317.422H468.53C461.567 317.422 455.996 323.108 455.996 329.956C455.996 336.919 461.683 342.49 468.53 342.49H490.698C497.545 342.49 503.232 336.803 503.232 329.956Z" fill="#BCF2EB"/>
<path d="M121.282 107.239V157.492C121.282 160.858 118.496 163.643 115.131 163.643H64.9932C61.6275 163.643 58.842 160.858 58.842 157.492V107.239C58.842 106.426 58.9581 105.73 59.3063 105.033C60.2347 102.712 62.4399 101.087 64.9932 101.087H115.247C118.496 101.087 121.282 103.873 121.282 107.239Z" fill="#74E2EB"/>
<path d="M119.773 107.239V157.492C119.773 160.858 116.988 163.643 113.622 163.643H63.3683C60.0026 163.643 57.2172 160.858 57.2172 157.492V107.239C57.2172 103.873 60.0026 101.087 63.3683 101.087H113.622C116.988 101.087 119.773 103.873 119.773 107.239Z" fill="#BCF2EB"/>
<path d="M121.282 107.239V157.492C121.282 160.858 118.496 163.643 115.131 163.643H64.9932C61.6275 163.643 58.842 160.858 58.842 157.492V107.239C58.842 106.426 58.9581 105.73 59.3063 105.033C60.2347 102.712 62.4399 101.087 64.9932 101.087H115.247C118.496 101.087 121.282 103.873 121.282 107.239Z" fill="#74E2EB"/>
<path d="M113.854 108.863H66.3859V146.815H113.854V108.863Z" fill="white"/>
<path d="M113.97 108.863H112.229V146.815H113.97V108.863Z" fill="#F7FFFE"/>
<path opacity="0.502" d="M121.282 107.239V157.492C121.282 160.858 118.496 163.643 115.131 163.643H111.533C110.604 160.51 110.024 157.26 108.283 154.591C105.498 150.413 100.623 148.672 95.7488 146.815C93.8918 146.118 92.1509 145.422 90.5261 144.494C84.8392 141.592 80.429 136.369 78.3399 130.45C76.2509 124.531 76.3669 117.8 74.0457 111.997C73.5815 110.952 73.1173 109.908 72.4209 108.863C70.2158 105.614 66.9661 103.177 63.2522 103.525C61.7435 103.641 60.3508 104.221 59.1902 105.15C58.3778 105.73 57.6814 106.542 57.2172 107.355C57.2172 103.989 60.0026 101.204 63.3683 101.204H115.131C118.496 101.087 121.282 103.873 121.282 107.239Z" fill="#F7FFFE"/>
<path d="M95.2846 151.573H66.3859V153.662H95.2846V151.573Z" fill="#BCF2EB"/>
<path d="M88.7853 156.216H66.3859V158.305H88.7853V156.216Z" fill="#BCF2EB"/>
<path d="M80.7772 127.897L88.4371 136.718L101.088 120.353" stroke="#BCF2EB" stroke-width="4" stroke-miterlimit="10" stroke-linecap="round" stroke-linejoin="round"/>
<path d="M517.275 215.406V265.659C517.275 269.025 514.49 271.81 511.124 271.81H460.871C457.505 271.81 454.719 269.025 454.719 265.659V215.406C454.719 214.593 454.836 213.897 455.184 213.201C456.112 210.879 458.317 209.255 460.871 209.255H511.124C514.49 209.255 517.275 212.04 517.275 215.406Z" fill="#BCF2EB"/>
<path d="M515.65 215.406V265.659C515.65 269.025 512.865 271.81 509.499 271.81H459.246C455.88 271.81 453.095 269.025 453.095 265.659V215.406C453.095 212.04 455.88 209.255 459.246 209.255H509.499C512.865 209.255 515.65 212.04 515.65 215.406Z" fill="#BCF2EB"/>
<path d="M517.275 215.406V265.659C517.275 269.025 514.49 271.81 511.124 271.81H460.871C457.505 271.81 454.719 269.025 454.719 265.659V215.406C454.719 214.593 454.836 213.897 455.184 213.201C456.112 210.879 458.317 209.255 460.871 209.255H511.124C514.49 209.255 517.275 212.04 517.275 215.406Z" fill="#BCF2EB"/>
<path opacity="0.502" d="M517.275 215.406V265.659C517.275 269.025 514.49 271.81 511.124 271.81H507.526C506.598 268.677 506.018 265.427 504.277 262.758C501.491 258.58 496.617 256.839 491.742 254.982C489.885 254.285 488.144 253.589 486.52 252.661C480.833 249.759 476.423 244.536 474.333 238.617C472.244 232.698 472.36 225.967 470.039 220.164C469.575 219.12 469.111 218.075 468.414 217.03C466.209 213.781 462.96 211.344 459.246 211.692C457.737 211.808 456.344 212.388 455.184 213.317C454.371 213.897 453.675 214.709 453.211 215.522C453.211 212.156 455.996 209.371 459.362 209.371H511.124C514.49 209.254 517.275 212.04 517.275 215.406Z" fill="#F7FFFE"/>
<path d="M188.944 397.502V459.942C188.944 464.12 185.579 467.602 181.284 467.602H118.845C114.666 467.602 111.185 464.236 111.185 459.942V397.502C111.185 396.574 111.417 395.645 111.649 394.717C112.81 391.815 115.595 389.842 118.845 389.842H181.284C185.462 389.842 188.944 393.324 188.944 397.502Z" fill="#BCF2EB"/>
<path d="M186.971 397.502V459.942C186.971 464.12 183.606 467.602 179.311 467.602H116.872C112.694 467.602 109.212 464.236 109.212 459.942V397.502C109.212 393.324 112.694 389.842 116.872 389.842H179.311C183.49 389.842 186.971 393.324 186.971 397.502Z" fill="#BCF2EB"/>
<path d="M188.944 397.502V459.942C188.944 464.12 185.579 467.602 181.284 467.602H118.845C114.666 467.602 111.185 464.236 111.185 459.942V397.502C111.185 396.574 111.417 395.645 111.649 394.717C112.81 391.815 115.595 389.842 118.845 389.842H181.284C185.462 389.842 188.944 393.324 188.944 397.502Z" fill="#BCF2EB"/>
<path d="M179.544 399.475H120.586V446.595H179.544V399.475Z" fill="white"/>
<path d="M179.66 399.475H177.571V446.595H179.66V399.475Z" fill="#F7FFFE"/>
<path opacity="0.502" d="M188.944 397.502V459.942C188.944 464.12 185.579 467.602 181.284 467.602H176.874C175.714 463.772 175.017 459.594 172.928 456.344C169.446 451.122 163.411 449.033 157.376 446.711C155.171 445.899 152.85 444.97 150.877 443.926C143.913 440.212 138.343 433.829 135.673 426.401C133.004 418.973 133.236 410.733 130.334 403.421C129.754 402.145 129.058 400.752 128.245 399.591C125.576 395.645 121.514 392.512 116.872 392.86C115.015 392.976 113.274 393.788 111.765 394.833C110.837 395.529 109.908 396.574 109.328 397.502C109.328 393.324 112.81 389.842 116.988 389.842H181.4C185.463 389.842 188.944 393.324 188.944 397.502Z" fill="#F7FFFE"/>
<path d="M146.931 455.532H118.032V457.621H146.931V455.532Z" fill="#BCF2EB"/>
<path d="M140.432 460.174H118.032V462.263H140.432V460.174Z" fill="#BCF2EB"/>
<path d="M138.575 423.151L148.091 434.177L163.759 413.751" stroke="#BCF2EB" stroke-width="5" stroke-miterlimit="10" stroke-linecap="round" stroke-linejoin="round"/>
<path d="M109.676 475.378C117.816 475.378 124.415 468.779 124.415 460.638C124.415 452.498 117.816 445.899 109.676 445.899C101.535 445.899 94.9364 452.498 94.9364 460.638C94.9364 468.779 101.535 475.378 109.676 475.378Z" fill="#FCBE1C"/>
<path d="M113.925 470.856C119.545 468.512 122.202 462.056 119.858 456.436C117.514 450.815 111.058 448.159 105.438 450.503C99.8171 452.847 97.1609 459.303 99.5046 464.923C101.848 470.544 108.305 473.2 113.925 470.856Z" fill="#FB8400"/>
<path d="M112.345 461.683L111.417 460.754C111.301 461.103 111.185 461.451 110.836 461.683C110.14 462.379 109.212 462.495 108.283 462.147C108.051 462.031 107.819 461.915 107.703 461.683L104.801 458.781C103.989 457.969 103.873 456.46 104.801 455.648C105.614 454.835 107.123 454.835 107.935 455.648L110.836 458.549C111.069 458.782 111.185 458.898 111.301 459.13C111.533 459.246 111.765 459.362 111.881 459.594L112.693 460.406C112.693 459.71 112.577 459.014 112.229 458.317C112.113 458.085 111.881 457.853 111.765 457.737L108.863 454.835C107.587 453.559 105.382 453.559 103.989 454.835C102.712 456.112 102.712 458.317 103.989 459.71L106.89 462.611C107.123 462.844 107.239 462.96 107.471 463.076C108.051 463.424 108.863 463.656 109.56 463.54C110.372 463.424 111.069 463.192 111.649 462.495C111.997 462.263 112.229 462.031 112.345 461.683Z" fill="white"/>
<path d="M115.711 461.683L112.81 458.781C112.577 458.549 112.461 458.433 112.229 458.317C111.649 457.969 110.837 457.737 110.14 457.853C109.676 457.853 109.212 457.969 108.864 458.201C108.515 458.317 108.283 458.549 107.935 458.781C107.355 459.362 107.007 460.174 107.007 460.987C107.007 461.683 107.123 462.379 107.587 463.076C107.703 463.308 107.819 463.424 108.051 463.656L110.953 466.557C112.229 467.834 114.434 467.834 115.711 466.557C116.988 465.165 116.988 462.96 115.711 461.683ZM111.765 465.629L108.864 462.728C108.631 462.495 108.515 462.379 108.399 462.147C108.051 461.335 108.167 460.29 108.864 459.594C109.096 459.362 109.444 459.13 109.792 459.014C110.256 458.898 110.837 458.898 111.417 459.13C111.649 459.246 111.881 459.362 111.997 459.594L114.899 462.495C115.015 462.611 115.131 462.728 115.131 462.844C115.711 463.656 115.711 464.933 114.899 465.745C113.97 466.557 112.577 466.557 111.765 465.629Z" fill="white"/>
<path d="M433.597 76.8311V145.538C433.597 150.18 429.883 154.01 425.124 154.01H356.418C351.775 154.01 347.945 150.297 347.945 145.538V76.8311C347.945 75.7866 348.177 74.742 348.525 73.8136C349.686 70.68 352.82 68.4749 356.418 68.4749H425.124C429.767 68.3588 433.597 72.0727 433.597 76.8311Z" fill="#BCF2EB"/>
<path d="M431.392 76.8311V145.538C431.392 150.18 427.678 154.01 422.919 154.01H354.212C349.57 154.01 345.74 150.296 345.74 145.538V76.715C345.74 72.0727 349.57 68.3588 354.212 68.3588H422.919C427.678 68.3588 431.392 72.0727 431.392 76.8311Z" fill="#74E2EB"/>
<path d="M433.597 76.8311V145.538C433.597 150.18 429.883 154.01 425.124 154.01H356.418C351.775 154.01 347.945 150.297 347.945 145.538V76.8311C347.945 75.7866 348.177 74.742 348.525 73.8136C349.686 70.68 352.82 68.4749 356.418 68.4749H425.124C429.767 68.3588 433.597 72.0727 433.597 76.8311Z" fill="#BCF2EB"/>
<path d="M423.267 78.9202H358.274V130.915H423.267V78.9202Z" fill="white"/>
<path d="M423.384 78.9202H421.062V130.915H423.384V78.9202Z" fill="#F7FFFE"/>
<path d="M405.743 92.8473H377.656V122.094H405.743V92.8473Z" fill="#74E2EB"/>
<path d="M396.11 97.8378L391.467 89.9458L387.289 97.3736L385.78 96.4451L391.467 86.464L397.502 97.0254L396.11 97.8378Z" fill="#74E2EB"/>
<path d="M402.261 96.5611H381.022V118.38H402.261V96.5611Z" fill="white"/>
<path opacity="0.502" d="M433.597 76.8311V145.538C433.597 150.18 429.883 154.01 425.125 154.01H420.25C418.973 149.716 418.277 145.306 415.84 141.592C412.01 135.789 405.395 133.468 398.779 130.915C396.342 129.986 393.905 128.942 391.583 127.781C383.924 123.719 377.772 116.755 374.871 108.515C371.97 100.391 372.202 91.2224 368.952 83.2143C368.372 81.7056 367.559 80.3129 366.747 78.9202C363.845 74.5099 359.319 71.1442 354.212 71.4924C352.123 71.6084 350.266 72.4209 348.642 73.6975C347.597 74.5099 346.669 75.5545 345.972 76.715C345.972 72.0727 349.802 68.3588 354.445 68.3588H425.357C429.767 68.3588 433.597 72.0727 433.597 76.8311Z" fill="#F7FFFE"/>
<path d="M397.851 137.414H358.274V140.315H397.851V137.414Z" fill="#74E2EB"/>
<path d="M388.914 143.797H358.274V146.699H388.914V143.797Z" fill="#74E2EB"/>
<path d="M380.674 86.464C388.814 86.464 395.413 79.8649 395.413 71.7245C395.413 63.5841 388.814 56.985 380.674 56.985C372.533 56.985 365.934 63.5841 365.934 71.7245C365.934 79.8649 372.533 86.464 380.674 86.464Z" fill="#FCBE1C"/>
<path d="M380.674 82.7501C386.763 82.7501 391.699 77.8138 391.699 71.7245C391.699 65.6352 386.763 60.6989 380.674 60.6989C374.585 60.6989 369.648 65.6352 369.648 71.7245C369.648 77.8138 374.585 82.7501 380.674 82.7501Z" fill="#FB8400"/>
<path d="M383.343 72.769L382.415 71.8406C382.299 72.1887 382.183 72.5369 381.834 72.769C381.138 73.4654 380.21 73.5815 379.281 73.2333C379.049 73.1172 378.817 73.0012 378.701 72.769L375.799 69.8676C374.987 69.0551 374.871 67.5464 375.799 66.734C376.612 65.9216 378.12 65.9216 378.933 66.734L381.834 69.6354C382.067 69.8676 382.183 69.9836 382.299 70.2157C382.531 70.3318 382.763 70.4479 382.879 70.68L383.691 71.4924C383.691 70.796 383.575 70.0997 383.227 69.4033C383.111 69.1712 382.879 68.9391 382.763 68.823L379.861 65.9216C378.585 64.6449 376.38 64.6449 374.987 65.9216C373.71 67.1982 373.71 69.4033 374.987 70.796L377.888 73.6975C378.121 73.9296 378.237 74.0457 378.469 74.1617C379.049 74.5099 379.861 74.742 380.558 74.626C381.37 74.5099 382.067 74.2778 382.647 73.5815C382.995 73.3493 383.227 73.0012 383.343 72.769Z" fill="white"/>
<path d="M386.709 72.769L383.807 69.8676C383.575 69.6354 383.459 69.5194 383.227 69.4033C382.647 69.0552 381.834 68.823 381.138 68.9391C380.674 68.9391 380.21 69.0552 379.861 69.2873C379.513 69.4033 379.281 69.6354 378.933 69.8676C378.353 70.4479 378.005 71.2603 378.005 72.0727C378.005 72.769 378.121 73.4654 378.585 74.1618C378.701 74.3939 378.817 74.5099 379.049 74.742L381.951 77.6435C383.227 78.9202 385.432 78.9202 386.709 77.6435C387.986 76.2508 387.986 74.0457 386.709 72.769ZM382.647 76.715L379.745 73.8136C379.513 73.5815 379.397 73.4654 379.281 73.2333C378.933 72.4209 379.049 71.3763 379.745 70.68C379.978 70.4479 380.326 70.2157 380.674 70.0997C381.138 69.9836 381.718 69.9836 382.299 70.2157C382.531 70.3318 382.763 70.4479 382.879 70.68L385.78 73.5815C385.897 73.6975 386.013 73.8136 386.013 73.9296C386.593 74.742 386.593 76.0187 385.78 76.8311C384.968 77.6435 383.575 77.6435 382.647 76.715Z" fill="white"/>
<path d="M430.927 160.742C439.068 160.742 445.667 154.143 445.667 146.002C445.667 137.862 439.068 131.263 430.927 131.263C422.787 131.263 416.188 137.862 416.188 146.002C416.188 154.143 422.787 160.742 430.927 160.742Z" fill="#FCBE1C"/>
<path d="M430.927 157.028C437.017 157.028 441.953 152.092 441.953 146.002C441.953 139.913 437.017 134.977 430.927 134.977C424.838 134.977 419.902 139.913 419.902 146.002C419.902 152.092 424.838 157.028 430.927 157.028Z" fill="#FB8400"/>
<path d="M433.481 146.931L432.552 146.002C432.436 146.35 432.32 146.699 431.972 146.931C431.276 147.627 430.347 147.743 429.419 147.395C429.187 147.279 428.954 147.163 428.838 146.931L425.937 144.029C425.124 143.217 425.008 141.708 425.937 140.896C426.749 140.083 428.258 140.083 429.071 140.896L431.972 143.797C432.204 144.029 432.32 144.145 432.436 144.377C432.668 144.494 432.9 144.61 433.017 144.842L433.829 145.654C433.829 144.958 433.713 144.261 433.365 143.565C433.249 143.333 433.017 143.101 432.9 142.985L429.999 140.083C428.722 138.807 426.517 138.807 425.124 140.083C423.848 141.36 423.848 143.565 425.124 144.958L428.026 147.859C428.258 148.091 428.374 148.207 428.606 148.323C429.187 148.672 429.999 148.904 430.695 148.788C431.508 148.672 432.204 148.44 432.784 147.743C433.133 147.627 433.365 147.279 433.481 146.931Z" fill="white"/>
<path d="M436.847 147.047L433.945 144.145C433.713 143.913 433.597 143.797 433.365 143.681C432.784 143.333 431.972 143.101 431.276 143.217C430.811 143.217 430.347 143.333 429.999 143.565C429.651 143.681 429.419 143.913 429.071 144.145C428.49 144.726 428.142 145.538 428.142 146.35C428.142 147.047 428.258 147.743 428.722 148.44C428.838 148.672 428.954 148.788 429.187 149.02L432.088 151.921C433.365 153.198 435.57 153.198 436.847 151.921C438.239 150.529 438.239 148.323 436.847 147.047ZM432.901 150.993L429.999 148.091C429.767 147.859 429.651 147.743 429.535 147.511C429.187 146.699 429.303 145.654 429.999 144.958C430.231 144.726 430.579 144.494 430.928 144.377C431.392 144.261 431.972 144.261 432.552 144.494C432.784 144.61 433.017 144.726 433.133 144.958L436.034 147.859C436.15 147.975 436.266 148.091 436.266 148.207C436.847 149.02 436.847 150.296 436.034 151.109C435.106 151.805 433.713 151.805 432.901 150.993Z" fill="white"/>
<path d="M102.364 233.395V302.102C102.364 306.744 98.6501 310.574 93.8917 310.574H25.1847C20.5424 310.574 16.7124 306.86 16.7124 302.102V233.395C16.7124 232.35 16.9445 231.306 17.2927 230.377C18.4533 227.244 21.5869 225.039 25.1847 225.039H93.8917C98.534 224.922 102.364 228.752 102.364 233.395Z" fill="#BCF2EB"/>
<path d="M100.159 233.395V302.102C100.159 306.744 96.445 310.574 91.6866 310.574H22.9796C18.3373 310.574 14.5073 306.86 14.5073 302.102V233.279C14.5073 228.636 18.3373 224.922 22.9796 224.922H91.6866C96.445 224.922 100.159 228.752 100.159 233.395Z" fill="white"/>
<path d="M102.364 233.395V302.102C102.364 306.744 98.6501 310.574 93.8917 310.574H25.1847C20.5424 310.574 16.7124 306.86 16.7124 302.102V233.395C16.7124 232.35 16.9445 231.306 17.2927 230.377C18.4533 227.244 21.5869 225.039 25.1847 225.039H93.8917C98.534 224.922 102.364 228.752 102.364 233.395Z" fill="#BCF2EB"/>
<path d="M92.0348 235.484H27.0417V287.478H92.0348V235.484Z" fill="white"/>
<path d="M92.1509 235.484H89.8297V287.478H92.1509V235.484Z" fill="#F7FFFE"/>
<path d="M70.7131 264.084C72.165 257.906 68.3341 251.721 62.1566 250.269C55.9791 248.818 49.7943 252.648 48.3424 258.826C46.8905 265.003 50.7214 271.188 56.8989 272.64C63.0764 274.092 69.2612 270.261 70.7131 264.084Z" stroke="#BCF2EB" stroke-width="5" stroke-miterlimit="10" stroke-linecap="round" stroke-linejoin="round"/>
<path opacity="0.502" d="M104.625 233.472V302.179C104.625 306.822 100.911 310.652 96.1523 310.652H91.2778C90.0011 306.357 89.3048 301.947 86.8676 298.233C83.0376 292.43 76.4222 290.109 69.8069 287.556C67.3696 286.627 64.9324 285.583 62.6112 284.422C54.9513 280.36 48.8002 273.397 45.8987 265.156C42.9972 257.032 43.2293 247.864 39.9797 239.856C39.3994 238.347 38.587 236.954 37.7746 235.561C34.8731 231.151 30.3468 227.785 25.2402 228.134C23.1511 228.25 21.2942 229.062 19.6694 230.339C18.6248 231.151 17.6964 232.196 17 233.356C17 228.714 20.8299 225 25.4723 225H96.3844C100.795 225 104.625 228.83 104.625 233.472Z" fill="#F7FFFE"/>
<path d="M66.618 293.978H27.0419V296.879H66.618V293.978Z" fill="#F7FFFE"/>
<path d="M57.6815 300.361H27.0419V303.262H57.6815V300.361Z" fill="#F7FFFE"/>
<path d="M0 333.09C0 342.026 7.19566 349.222 16.1322 349.222H44.4506C53.3872 349.222 60.5828 342.026 60.5828 333.09C60.5828 324.153 53.3872 316.957 44.4506 316.957H16.1322C7.19566 317.073 0 324.269 0 333.09Z" fill="#F7FFFE"/>
<path d="M48.5128 305.932L47.5843 317.77H38.0675L48.5128 305.932Z" fill="#F7FFFE"/>
<path d="M13.2308 333.09C13.2308 334.946 14.7396 336.455 16.5965 336.455C18.4535 336.455 19.9623 334.946 19.9623 333.09C19.9623 331.233 18.4535 329.724 16.5965 329.724C14.7396 329.724 13.2308 331.233 13.2308 333.09Z" fill="white"/>
<path d="M27.1578 333.09C27.1578 334.946 28.6666 336.455 30.5235 336.455C32.3805 336.455 33.8893 334.946 33.8893 333.09C33.8893 331.233 32.3805 329.724 30.5235 329.724C28.6666 329.724 27.1578 331.233 27.1578 333.09Z" fill="white"/>
<path d="M40.969 333.09C40.969 334.946 42.4778 336.455 44.3347 336.455C46.1917 336.455 47.7004 334.946 47.7004 333.09C47.7004 331.233 46.1917 329.724 44.3347 329.724C42.4778 329.724 40.969 331.233 40.969 333.09Z" fill="white"/>
<path d="M238.617 16.3643V56.4047C238.617 59.0741 236.412 61.2792 233.743 61.2792H193.702C191.033 61.2792 188.828 59.0741 188.828 56.4047V16.3643C188.828 15.784 188.944 15.2037 189.176 14.6234C189.873 12.7665 191.613 11.4898 193.702 11.4898H233.743C236.412 11.4898 238.617 13.695 238.617 16.3643Z" fill="#F7FFFE"/>
<path d="M237.341 16.3643V56.4047C237.341 59.0741 235.136 61.2792 232.466 61.2792H192.426C189.757 61.2792 187.551 59.0741 187.551 56.4047V16.3643C187.551 13.695 189.757 11.4898 192.426 11.4898H232.466C235.252 11.4898 237.341 13.695 237.341 16.3643Z" fill="#BCF2EB"/>
<path d="M238.617 16.3643V56.4047C238.617 59.0741 236.412 61.2792 233.743 61.2792H193.702C191.033 61.2792 188.828 59.0741 188.828 56.4047V16.3643C188.828 15.784 188.944 15.2037 189.176 14.6234C189.873 12.7665 191.613 11.4898 193.702 11.4898H233.743C236.412 11.4898 238.617 13.695 238.617 16.3643Z" fill="#F7FFFE"/>
<path d="M232.582 17.641H194.863V47.8163H232.582V17.641Z" fill="white"/>
<path d="M232.814 17.641H231.422V47.8163H232.814V17.641Z" fill="#F7FFFE"/>
<path opacity="0.502" d="M238.617 16.3643V56.4047C238.617 59.0741 236.412 61.2792 233.743 61.2792H230.957C230.261 58.8419 229.797 56.1726 228.404 54.0835C226.199 50.7178 222.253 49.3251 218.423 47.9324C217.03 47.3521 215.522 46.7718 214.245 46.0754C209.719 43.7543 206.237 39.5761 204.496 34.8177C202.871 30.0593 202.987 24.7206 201.014 20.0782C200.666 19.2658 200.202 18.4534 199.738 17.641C197.997 15.0877 195.443 13.1147 192.426 13.3468C191.265 13.4628 190.105 13.9271 189.176 14.6234C188.596 15.0877 188.016 15.668 187.551 16.3643C187.551 13.695 189.757 11.4898 192.426 11.4898H233.627C236.412 11.4898 238.617 13.695 238.617 16.3643Z" fill="#BCF2EB"/>
<path d="M217.843 51.6463H194.863V53.2711H217.843V51.6463Z" fill="#BCF2EB"/>
<path d="M212.736 55.3602H194.863V56.985H212.736V55.3602Z" fill="#BCF2EB"/>
<path d="M220.628 32.0323C220.628 35.7462 217.611 38.8798 213.781 38.8798C210.067 38.8798 206.933 35.8622 206.933 32.0323C206.933 28.3184 209.951 25.1848 213.781 25.1848C217.611 25.3009 220.628 28.3184 220.628 32.0323Z" stroke="#BCF2EB" stroke-width="3" stroke-miterlimit="10" stroke-linecap="round" stroke-linejoin="round"/>
<path d="M337.268 223.646V295.022C337.268 299.665 332.741 303.03 328.215 301.521L261.481 279.122L195.56 301.289C190.801 302.914 185.811 299.316 185.811 294.326V221.557C185.811 220.048 186.391 218.539 187.203 217.495C188.016 216.45 189.06 215.754 190.337 215.29L254.169 193.935C259.044 192.31 264.266 192.31 269.025 193.935L330.768 214.593C332.509 215.174 334.134 216.334 335.179 217.727C336.455 219.352 337.268 221.441 337.268 223.646Z" fill="#BCF2EB"/>
<g opacity="0.451">
<path opacity="0.451" d="M337.268 223.646V295.022C337.268 299.665 332.741 303.03 328.215 301.521L261.481 279.122L195.56 301.289C190.801 302.914 185.811 299.316 185.811 294.326V221.557C185.811 220.048 186.391 218.539 187.203 217.495C188.016 216.45 189.06 215.754 190.337 215.29L254.169 193.935C259.044 192.31 264.266 192.31 269.025 193.935L330.768 214.593C332.509 215.174 334.134 216.334 335.179 217.727C336.455 219.352 337.268 221.441 337.268 223.646Z" fill="#F7FFFE"/>
</g>
<path d="M261.597 242.331V330.072C261.597 330.072 207.165 311.503 190.569 305.7C187.667 304.771 185.811 302.102 185.811 299.084V221.441C185.811 219.932 186.391 218.423 187.203 217.379L261.597 242.331Z" fill="#74E2EB"/>
<path opacity="0.651" d="M193.122 296.067V233.743C193.122 231.074 195.792 229.101 198.345 229.913L251.384 247.786C253.009 248.366 254.053 249.875 254.053 251.616V313.94C254.053 316.609 251.384 318.582 248.831 317.77L195.792 299.897C194.283 299.2 193.122 297.692 193.122 296.067Z" fill="#BCF2EB"/>
<path opacity="0.7098" d="M207.049 295.37V252.196C207.049 250.572 208.674 249.411 210.299 249.875L247.206 262.293C248.25 262.642 248.831 263.57 248.831 264.615V304.887C248.831 308.021 245.813 310.226 242.796 309.181L208.79 297.808C207.746 297.343 207.049 296.415 207.049 295.37Z" fill="#74E2EB"/>
<path opacity="0.949" d="M201.363 288.059V244.885C201.363 243.26 202.987 242.099 204.612 242.563L241.519 254.982C242.564 255.33 243.144 256.258 243.144 257.303V300.477C243.144 302.102 241.519 303.262 239.894 302.798L202.987 290.38C202.059 290.032 201.363 289.103 201.363 288.059Z" fill="white"/>
<path d="M201.363 247.09V244.769C201.363 243.144 202.987 241.983 204.612 242.447L241.519 254.866C242.564 255.214 243.144 256.142 243.144 257.187V261.133L201.363 247.09Z" fill="#31AFF5"/>
<path d="M222.021 289.103C219.468 289.103 216.914 288.291 214.593 286.666C211.692 284.577 209.603 281.327 208.79 277.613C207.166 269.953 211.46 262.41 218.423 260.901C221.789 260.204 225.387 260.901 228.288 263.106C231.19 265.195 233.279 268.445 234.091 272.159C234.904 275.872 234.323 279.586 232.582 282.72C230.726 285.97 227.824 288.059 224.458 288.871C223.646 288.987 222.833 289.103 222.021 289.103ZM211.808 276.917C212.504 279.934 214.129 282.488 216.45 284.113C218.771 285.737 221.325 286.318 223.878 285.853C226.431 285.273 228.636 283.648 230.029 281.211C231.422 278.774 231.886 275.756 231.19 272.739C230.493 269.721 228.869 267.168 226.547 265.543C224.226 263.918 221.673 263.338 219.12 263.802C213.781 264.963 210.415 270.882 211.808 276.917Z" fill="#31AFF5"/>
<path d="M218.191 268.909V280.747L226.779 275.408L218.191 268.909Z" fill="#31AFF5"/>
<path d="M337.268 223.646V299.781C337.268 302.682 335.411 305.351 332.625 306.28L261.481 330.188V242.447L335.179 217.727C336.455 219.352 337.268 221.441 337.268 223.646Z" fill="#BCF2EB"/>
<path opacity="0.4392" d="M337.268 223.646V299.781C337.268 302.682 335.411 305.351 332.625 306.28L261.481 330.188V242.447L335.179 217.727C336.455 219.352 337.268 221.441 337.268 223.646Z" fill="url(#paint0_linear)"/>
<path opacity="0.651" d="M331.233 296.067V233.743C331.233 231.074 328.563 229.101 326.01 229.913L272.971 247.786C271.346 248.366 270.302 249.875 270.302 251.616V313.94C270.302 316.609 272.971 318.582 275.524 317.77L328.563 299.897C330.188 299.2 331.233 297.692 331.233 296.067Z" fill="#4D85D5"/>
<g opacity="0.2">
<path opacity="0.2" d="M284.577 296.299C284.229 296.415 283.997 296.415 283.881 296.183C283.648 296.067 283.532 295.951 283.532 295.835L277.265 286.55V297.575C277.265 297.808 277.149 298.04 277.033 298.272C276.917 298.504 276.685 298.62 276.453 298.736L272.855 299.897C272.623 300.013 272.507 299.897 272.275 299.781C272.159 299.665 272.042 299.432 272.042 299.2V278.078C272.042 277.845 272.159 277.613 272.275 277.381C272.391 277.149 272.623 277.033 272.855 276.917L275.756 276.105C276.105 275.988 276.337 275.988 276.569 276.221C276.801 276.337 276.917 276.453 276.917 276.569L283.184 285.853V274.944C283.184 274.712 283.3 274.48 283.416 274.248C283.532 274.015 283.764 273.899 283.881 273.899L287.478 272.855C287.71 272.855 287.827 272.855 287.943 272.971C288.059 273.087 288.175 273.319 288.175 273.551V294.326C288.175 294.558 288.059 294.79 287.943 295.022C287.827 295.254 287.594 295.37 287.478 295.486L284.577 296.299Z" fill="#74E2EB"/>
<path opacity="0.2" d="M304.655 267.98C304.887 267.98 305.003 267.98 305.119 268.096C305.235 268.213 305.351 268.445 305.351 268.677V272.042C305.351 272.275 305.235 272.507 305.119 272.739C305.003 272.971 304.771 273.087 304.655 273.087L296.763 275.408V279.818L304.075 277.613C304.307 277.613 304.423 277.613 304.539 277.729C304.655 277.845 304.771 278.078 304.771 278.31V281.675C304.771 281.907 304.655 282.14 304.539 282.372C304.423 282.604 304.191 282.72 304.075 282.72L296.763 284.925V291.889C296.763 292.121 296.647 292.353 296.531 292.585C296.415 292.817 296.183 292.933 296.067 293.049L292.585 294.094C292.353 294.21 292.237 294.094 292.121 293.978C292.005 293.862 291.889 293.629 291.889 293.397V272.623C291.889 272.391 292.005 272.159 292.121 271.926C292.237 271.694 292.469 271.578 292.585 271.578L304.655 267.98Z" fill="#74E2EB"/>
<path opacity="0.2" d="M321.252 263.222C321.484 263.222 321.6 263.222 321.716 263.338C321.832 263.454 321.948 263.686 321.948 263.918V267.168C321.948 267.4 321.832 267.632 321.716 267.864C321.6 268.096 321.368 268.213 321.252 268.213L316.841 269.489V285.505C316.841 285.737 316.725 285.97 316.609 286.202C316.493 286.434 316.261 286.55 316.145 286.55L312.779 287.594C312.547 287.594 312.431 287.594 312.315 287.478C312.199 287.362 312.083 287.13 312.083 286.898L311.967 270.766L307.441 272.042C307.209 272.042 307.092 272.042 306.976 271.926C306.86 271.81 306.744 271.578 306.744 271.346V267.98C306.744 267.748 306.86 267.516 306.976 267.284C307.092 267.052 307.325 266.936 307.441 266.936L321.252 263.222Z" fill="#74E2EB"/>
</g>
<g opacity="0.949">
<path opacity="0.949" d="M289.8 290.728C289.451 290.844 289.219 290.844 289.103 290.612C288.871 290.496 288.755 290.38 288.755 290.264L282.488 280.979V292.005C282.488 292.237 282.372 292.469 282.256 292.701C282.14 292.933 281.908 293.049 281.675 293.165L278.078 294.326C277.845 294.442 277.729 294.326 277.497 294.21C277.381 294.094 277.265 293.862 277.265 293.629V272.507C277.265 272.275 277.381 272.042 277.497 271.81C277.613 271.578 277.845 271.462 278.078 271.346L280.979 270.534C281.327 270.418 281.559 270.418 281.791 270.65C282.024 270.766 282.14 270.882 282.14 270.998L288.407 280.283V269.373C288.407 269.141 288.523 268.909 288.639 268.677C288.755 268.445 288.987 268.329 289.103 268.329L292.701 267.284C292.933 267.284 293.049 267.284 293.165 267.4C293.281 267.516 293.397 267.748 293.397 267.98V288.755C293.397 288.987 293.281 289.219 293.165 289.451C293.049 289.683 292.817 289.8 292.701 289.916L289.8 290.728Z" fill="white"/>
<path opacity="0.949" d="M309.762 262.41C309.994 262.41 310.11 262.41 310.226 262.526C310.342 262.642 310.458 262.874 310.458 263.106V266.472C310.458 266.704 310.342 266.936 310.226 267.168C310.11 267.4 309.878 267.516 309.762 267.516L301.87 269.837V274.248L309.181 272.042C309.414 272.042 309.53 272.042 309.646 272.159C309.762 272.275 309.878 272.507 309.878 272.739V276.105C309.878 276.337 309.762 276.569 309.646 276.801C309.53 277.033 309.298 277.149 309.181 277.149L301.87 279.354V286.318C301.87 286.55 301.754 286.782 301.638 287.014C301.522 287.246 301.289 287.362 301.173 287.478L297.692 288.523C297.459 288.639 297.343 288.523 297.227 288.407C297.111 288.291 296.995 288.059 296.995 287.826V267.052C296.995 266.82 297.111 266.588 297.227 266.356C297.343 266.123 297.576 266.007 297.692 266.007L309.762 262.41Z" fill="white"/>
<path opacity="0.949" d="M326.358 257.767C326.59 257.767 326.706 257.767 326.823 257.883C326.939 257.999 327.055 258.231 327.055 258.464V261.713C327.055 261.945 326.939 262.177 326.823 262.41C326.706 262.642 326.474 262.758 326.358 262.758L321.948 264.034L322.064 280.051C322.064 280.283 321.948 280.515 321.832 280.747C321.716 280.979 321.484 281.095 321.368 281.095L318.002 282.14C317.77 282.14 317.654 282.14 317.538 282.024C317.422 281.907 317.306 281.675 317.306 281.443L317.19 265.311L312.663 266.588C312.431 266.588 312.315 266.588 312.199 266.472C312.083 266.356 311.967 266.123 311.967 265.891V262.526C311.967 262.293 312.083 262.061 312.199 261.829C312.315 261.597 312.547 261.481 312.663 261.481L326.358 257.767Z" fill="white"/>
</g>
<path d="M300.129 154.359C300.129 142.985 290.96 133.816 279.586 133.816H243.492C232.118 133.816 222.949 142.985 222.949 154.359C222.949 165.732 232.118 174.901 243.492 174.901H279.586C290.96 175.017 300.129 165.732 300.129 154.359Z" fill="#4D85D5"/>
<path d="M238.385 189.176L239.546 174.089H251.616L238.385 189.176Z" fill="#4D85D5"/>
<path opacity="0.6" d="M279.586 133.816H243.492C232.118 133.816 222.949 142.985 222.949 154.359C222.949 164.34 230.029 172.696 239.546 174.553L238.385 189.176L250.804 175.017H279.586C290.96 175.017 300.129 165.848 300.129 154.475C300.129 143.101 290.96 133.816 279.586 133.816Z" fill="#BCF2EB"/>
<path d="M283.184 154.359C283.184 152.037 281.211 150.064 278.89 150.064C276.569 150.064 274.596 152.037 274.596 154.359C274.596 156.68 276.569 158.653 278.89 158.653C281.327 158.653 283.184 156.796 283.184 154.359Z" fill="white"/>
<path d="M265.543 154.359C265.543 152.037 263.57 150.064 261.249 150.064C258.928 150.064 256.955 152.037 256.955 154.359C256.955 156.68 258.928 158.653 261.249 158.653C263.686 158.653 265.543 156.796 265.543 154.359Z" fill="white"/>
<path d="M247.902 154.359C247.902 152.037 245.929 150.064 243.608 150.064C241.287 150.064 239.314 152.037 239.314 154.359C239.314 156.68 241.287 158.653 243.608 158.653C245.929 158.653 247.902 156.796 247.902 154.359Z" fill="white"/>
<path d="M98.4181 25.0688V40.3886L85.1874 44.7988L71.9567 40.3886V25.0688L85.1874 20.6585L98.4181 25.0688Z" fill="#F9F9F9" stroke="#BCF2EB" stroke-miterlimit="10" stroke-linecap="round" stroke-linejoin="round"/>
<path d="M71.9567 40.3885V25.1848L85.1874 29.5951V44.6827L71.9567 40.3885Z" fill="#F9F9F9" stroke="#BCF2EB" stroke-miterlimit="10" stroke-linecap="round" stroke-linejoin="round"/>
<path d="M98.4181 40.3885V25.1848L85.1874 29.5951V44.6827L98.4181 40.3885Z" fill="#F9F9F9" stroke="#BCF2EB" stroke-miterlimit="10" stroke-linecap="round" stroke-linejoin="round"/>
<path d="M403.653 467.486V482.69L390.423 487.216L377.192 482.69V467.486L390.423 463.076V462.96V463.076L403.653 467.486Z" fill="#F9F9F9" stroke="#BCF2EB" stroke-miterlimit="10" stroke-linecap="round" stroke-linejoin="round"/>
<path d="M390.423 462.96V463.076V462.96Z" fill="#F9F9F9" stroke="#BCF2EB" stroke-miterlimit="10" stroke-linecap="round" stroke-linejoin="round"/>
<path d="M390.423 462.96V463.076V462.96Z" fill="#F9F9F9" stroke="#BCF2EB" stroke-miterlimit="10" stroke-linecap="round" stroke-linejoin="round"/>
<path d="M377.308 482.806V467.602L390.423 471.896V487.1L377.308 482.806Z" fill="#F9F9F9" stroke="#BCF2EB" stroke-miterlimit="10" stroke-linecap="round" stroke-linejoin="round"/>
<path d="M403.653 482.806V467.602L390.423 471.896V487.1L403.653 482.806Z" fill="#F9F9F9" stroke="#BCF2EB" stroke-miterlimit="10" stroke-linecap="round" stroke-linejoin="round"/>
<path d="M304.075 374.755V387.985L292.585 391.932L281.095 387.985V374.755L292.585 370.925L304.075 374.755Z" fill="#F9F9F9" stroke="#BCF2EB" stroke-miterlimit="10" stroke-linecap="round" stroke-linejoin="round"/>
<path d="M281.095 388.102V374.871L292.585 378.585V391.815L281.095 388.102Z" fill="#F9F9F9" stroke="#BCF2EB" stroke-miterlimit="10" stroke-linecap="round" stroke-linejoin="round"/>
<path d="M304.075 388.102V374.871L292.585 378.585V391.815L304.075 388.102Z" fill="#F9F9F9" stroke="#BCF2EB" stroke-miterlimit="10" stroke-linecap="round" stroke-linejoin="round"/>
<path d="M326.822 4.5263V17.8731L315.217 21.8191L303.611 17.8731V4.5263L315.217 0.580292L326.822 4.5263Z" fill="#F9F9F9" stroke="#BCF2EB" stroke-miterlimit="10" stroke-linecap="round" stroke-linejoin="round"/>
<path d="M303.611 17.8731V4.52629L315.217 8.35624V21.703L303.611 17.8731Z" fill="#F9F9F9" stroke="#BCF2EB" stroke-miterlimit="10" stroke-linecap="round" stroke-linejoin="round"/>
<path d="M326.822 17.8731V4.52629L315.216 8.35624V21.703L326.822 17.8731Z" fill="#F9F9F9" stroke="#BCF2EB" stroke-miterlimit="10" stroke-linecap="round" stroke-linejoin="round"/>
<path d="M47.0039 425.008V440.328L33.7732 444.738L20.5425 440.328V425.008L33.7732 420.598L47.0039 425.008Z" fill="#F9F9F9" stroke="#BCF2EB" stroke-miterlimit="10" stroke-linecap="round" stroke-linejoin="round"/>
<path d="M20.5425 440.328V425.124L33.7732 429.419V444.622L20.5425 440.328Z" fill="#F9F9F9" stroke="#BCF2EB" stroke-miterlimit="10" stroke-linecap="round" stroke-linejoin="round"/>
<path d="M47.0039 440.328V425.124L33.7732 429.419V444.622L47.0039 440.328Z" fill="#F9F9F9" stroke="#BCF2EB" stroke-miterlimit="10" stroke-linecap="round" stroke-linejoin="round"/>
<defs>
<linearGradient id="paint0_linear" x1="341.851" y1="223.427" x2="254.475" y2="324.091" gradientUnits="userSpaceOnUse">
<stop stop-color="#FF91E2"/>
<stop offset="0.2268" stop-color="#FEA1E7" stop-opacity="0.7732"/>
<stop offset="0.6664" stop-color="#FDCAF4" stop-opacity="0.3336"/>
<stop offset="1" stop-color="#FCEDFF" stop-opacity="0"/>
</linearGradient>
</defs>
</svg>
