<svg width="1517" height="628" viewBox="0 0 1517 628" fill="none" xmlns="http://www.w3.org/2000/svg">
<path fill-rule="evenodd" clip-rule="evenodd" d="M183.603 1.08502H423.7V57.4787H391.922V189.142L409.025 207.403L381.98 232.643L345.823 268.737L341.212 267.394C329.108 264.134 316.62 262.408 303.94 262.408C291.26 262.408 278.772 264.134 266.668 267.394L262.057 268.737L234.184 240.913L198.278 207.403L215.381 189.142V57.4787H183.603V1.08502ZM335.429 57.4787V199.625C324.975 198.013 314.389 197.201 303.748 197.201C293.059 197.201 282.398 198.02 271.874 199.647V57.4787H335.429ZM390.972 512.879L385.208 516.907C361.385 533.975 332.951 542.989 303.556 542.989C274.161 542.989 245.919 533.975 221.903 516.907L216.139 512.879L169.645 559.291L177.138 565.045C213.45 593.237 257.638 608.388 303.556 608.388C349.473 608.388 393.854 593.237 429.973 565.045L437.466 559.291L390.972 512.879ZM112.008 478.549C105.884 462.907 101.618 446.59 99.3669 430.073C99.2169 428.972 99.0758 427.87 98.9437 426.767C98.0431 419.396 97.6491 412.024 97.6034 404.494C97.6003 403.992 97.5988 403.49 97.5988 402.986C97.5988 378.653 105.542 345.951 114.864 321.068C116.196 317.513 117.556 314.118 118.925 310.929L169.261 361.177C168.999 362.221 168.638 363.606 168.236 365.15L168.235 365.153L168.235 365.153C167.158 369.282 165.786 374.548 165.226 377.479C163.689 385.917 162.921 394.548 162.921 402.986C162.921 415.452 164.458 427.918 167.916 439.809L168.108 440.192C172.527 456.11 183.67 476.823 193.276 490.248L120.973 562.424L112.2 571.181L77.618 605.703C31.124 550.66 0 474.905 0 402.986C0 331.067 25.1682 262.024 71.8543 207.174C82.6132 194.324 94.717 182.433 107.589 171.502L303.555 356.382L499.714 171.502C512.586 182.433 524.498 194.324 535.449 207.174C581.943 262.024 607.303 331.067 607.303 402.986C607.303 474.905 576.179 550.852 529.493 605.703L494.911 571.181L486.244 562.531L413.834 490.248C422.24 478.501 431.822 461.175 437.046 446.363C437.793 444.247 438.45 442.182 439.003 440.192C442.065 428.865 443.776 417.201 443.978 405.357C443.991 404.568 443.998 403.777 443.998 402.986C443.998 392.078 441.644 377.5 438.868 365.931C438.471 364.278 438.066 362.687 437.658 361.177L487.994 310.929C498.945 336.437 509.32 375.177 509.32 402.986C509.32 428.877 504.517 454.576 494.911 478.549L519.31 502.906C522.048 497.045 524.536 491.082 526.771 485.035C536.458 458.83 541.404 431.035 541.404 402.986C541.404 351.012 524.69 300.957 493.374 259.723L303.555 449.398L113.545 259.723C82.2289 300.957 65.5142 351.012 65.5142 402.986C65.5142 432.97 71.1044 462.381 82.0374 489.985C83.564 493.839 85.1948 497.658 86.9292 501.439C87.1538 501.929 87.3802 502.418 87.6084 502.906L112.008 478.549Z" fill="white"/>
<path fill-rule="evenodd" clip-rule="evenodd" d="M183.646 0.331543H424.41V58.1725H392.756V188.378L410.122 206.943L382.605 232.656L346.267 268.976L341.235 267.509C341.233 267.508 341.23 267.508 341.228 267.507C329.238 264.274 316.871 262.563 304.316 262.563C291.76 262.563 279.393 264.274 267.404 267.507C267.401 267.508 267.398 267.508 267.396 267.509L262.364 268.976L234.28 240.906L197.934 206.943L215.301 188.378V58.1725H183.646V0.331543ZM185.242 1.9269V56.5771H216.897V189.007L200.19 206.868L235.38 239.75L235.39 239.759L235.399 239.769L262.825 267.18L266.972 265.971L266.98 265.969C279.102 262.699 291.611 260.968 304.316 260.968C317.02 260.968 329.529 262.699 341.651 265.969L341.659 265.971L345.806 267.18L381.486 231.518L381.496 231.509L381.506 231.499L407.866 206.868L391.159 189.007V56.5771H422.814V1.9269H185.242ZM271.576 56.5771H336.481V200.078L335.561 199.936C325.187 198.334 314.684 197.528 304.124 197.528C293.517 197.528 282.939 198.341 272.496 199.957L271.576 200.1V56.5771ZM273.172 58.1725V198.241C283.397 196.705 293.747 195.932 304.124 195.932C314.453 195.932 324.729 196.698 334.885 198.219V58.1725H273.172ZM108.753 170.027L303.933 354.396L499.304 170.027L499.849 170.491C512.704 181.421 524.6 193.311 535.536 206.16L535.538 206.161C581.974 261.012 607.303 330.055 607.303 401.975C607.303 473.916 576.217 549.842 529.604 604.675L529.044 605.335L412.742 489.094L413.135 488.544C422.669 475.204 433.717 454.63 438.086 438.871C441.321 426.887 443.033 414.525 443.033 401.975C443.033 389.637 439.989 372.496 436.746 360.483L436.625 360.038L487.927 308.762L488.391 309.845C499.326 335.347 509.699 374.096 509.699 401.975C509.699 427.72 504.961 453.279 495.483 477.147L518.609 500.26C532.788 469.47 540.063 435.91 540.063 401.975C540.063 350.616 523.665 301.145 492.932 260.3L303.933 449.393L114.742 260.3C84.0084 301.145 67.6104 350.616 67.6104 401.975C67.6104 436.098 74.8851 469.474 89.0648 500.26L112.194 477.144C105.766 460.588 101.413 443.283 99.32 425.788C98.3586 417.908 97.9747 410.033 97.9747 401.975C97.9747 374.096 108.347 335.347 119.282 309.845L119.747 308.762L171.042 360.031L170.932 360.469C170.671 361.51 170.313 362.888 169.914 364.419L169.914 364.419L169.91 364.434L169.909 364.437L169.909 364.439L169.908 364.442C168.833 368.571 167.475 373.788 166.924 376.679C165.401 385.047 164.64 393.606 164.64 401.975C164.64 414.319 166.157 426.652 169.564 438.409L169.758 438.796L169.778 438.87C174.148 454.63 185.196 475.203 194.73 488.544L195.123 489.094L78.8192 605.337L78.2591 604.673C31.8398 549.651 0.753479 473.917 0.753479 401.975C0.753479 330.058 25.8899 261.014 72.518 206.162C83.2678 193.308 95.3569 181.417 108.207 170.491L108.753 170.027ZM108.697 172.17C96.107 182.92 84.2726 194.593 73.7402 207.188L73.7381 207.19L73.736 207.193C27.3543 261.754 2.34966 330.432 2.34966 401.975C2.34966 473.204 33.0213 548.263 78.9202 602.98L193.039 488.92C183.54 475.491 172.649 455.137 168.261 439.371L168.072 438.992L168.052 438.923C164.583 426.982 163.044 414.472 163.044 401.975C163.044 393.511 163.814 384.855 165.353 376.391L165.354 376.388L165.355 376.385C165.917 373.436 167.288 368.168 168.356 364.067L168.358 364.062L168.363 364.041L168.363 364.04L168.364 364.039L168.364 364.037L168.366 364.029C168.713 362.698 169.027 361.491 169.273 360.519L120.288 311.559C109.578 336.941 99.5709 374.772 99.5709 401.975C99.5709 409.983 99.9524 417.793 100.905 425.597L100.905 425.599C103.002 443.128 107.387 460.469 113.87 477.049L114.06 477.535L88.5794 503.002L88.0977 501.969C73.5031 470.684 66.0142 436.712 66.0142 401.975C66.0142 349.965 82.7201 299.871 114.021 258.606L114.574 257.877L303.932 447.136L493.099 257.876L493.652 258.606C524.954 299.871 541.659 349.965 541.659 401.975C541.659 436.52 534.171 470.683 519.576 501.969L519.094 503.002L493.611 477.531L493.806 477.043C503.336 453.23 508.103 427.699 508.103 401.975C508.103 374.772 498.096 336.941 487.386 311.559L438.406 360.514C441.625 372.579 444.63 389.599 444.63 401.975C444.63 414.672 442.897 427.175 439.626 439.291L439.625 439.296C435.251 455.072 424.34 475.47 414.826 488.92L528.947 602.982C575.034 548.454 605.707 473.206 605.707 401.975C605.707 330.434 580.512 261.756 534.321 207.193C523.594 194.592 511.941 182.917 499.359 172.17L303.932 356.591L108.697 172.17ZM216.764 510.542L223.054 514.942L223.056 514.944L223.059 514.946C246.847 531.874 274.818 540.812 303.933 540.812C333.049 540.812 361.21 531.873 384.804 514.948L384.808 514.945L384.812 514.942L391.102 510.542L438.532 557.947L430.353 564.236C430.352 564.236 430.351 564.237 430.351 564.237C394.23 592.465 349.849 607.634 303.933 607.634C258.015 607.634 213.825 592.464 177.515 564.237L169.334 557.947L216.764 510.542ZM216.946 512.616L171.748 557.79L178.491 562.975L178.494 562.978C214.526 590.987 258.371 606.039 303.933 606.039C349.496 606.039 393.531 590.987 429.369 562.979L429.372 562.977L429.374 562.975L436.118 557.79L390.92 512.616L385.735 516.244C385.733 516.245 385.732 516.246 385.731 516.246C361.863 533.367 333.377 542.408 303.933 542.408C274.485 542.408 246.191 533.366 222.133 516.245L216.946 512.616Z" fill="url(#paint0_linear)"/>
<path d="M488.008 486.66V549.1C488.008 553.278 484.642 556.76 480.348 556.76H417.908C413.73 556.76 410.248 553.394 410.248 549.1V486.66C410.248 485.731 410.48 484.803 410.712 483.874C411.873 480.973 414.658 479 417.908 479H480.348C484.526 479 488.008 482.482 488.008 486.66Z" fill="#BCF2EB"/>
<path d="M486.035 486.66V549.1C486.035 553.278 482.669 556.76 478.375 556.76H415.935C411.757 556.76 408.275 553.394 408.275 549.1V486.66C408.275 482.482 411.757 479 415.935 479H478.375C482.553 479 486.035 482.482 486.035 486.66Z" fill="#BCF2EB"/>
<path d="M488.008 486.66V549.1C488.008 553.278 484.642 556.76 480.348 556.76H417.908C413.73 556.76 410.248 553.394 410.248 549.1V486.66C410.248 485.731 410.48 484.803 410.712 483.874C411.873 480.973 414.658 479 417.908 479H480.348C484.526 479 488.008 482.482 488.008 486.66Z" fill="#BCF2EB"/>
<path d="M478.607 488.633H419.649V535.753H478.607V488.633Z" fill="white"/>
<path d="M478.723 488.633H476.634V535.753H478.723V488.633Z" fill="#F7FFFE"/>
<path opacity="0.502" d="M488.008 486.66V549.1C488.008 553.278 484.642 556.76 480.348 556.76H475.938C474.777 552.93 474.081 548.752 471.992 545.502C468.51 540.279 462.475 538.19 456.44 535.869C454.235 535.057 451.913 534.128 449.94 533.084C442.977 529.37 437.406 522.986 434.737 515.559C432.067 508.131 432.299 499.891 429.398 492.579C428.818 491.302 428.121 489.91 427.309 488.749C424.64 484.803 420.577 481.669 415.935 482.018C414.078 482.134 412.337 482.946 410.829 483.991C409.9 484.687 408.972 485.731 408.391 486.66C408.391 482.482 411.873 479 416.051 479H480.464C484.526 479 488.008 482.482 488.008 486.66Z" fill="#F7FFFE"/>
<path d="M445.995 544.689H417.096V546.778H445.995V544.689Z" fill="#BCF2EB"/>
<path d="M439.495 549.332H417.096V551.421H439.495V549.332Z" fill="#BCF2EB"/>
<path d="M437.638 512.309L447.155 523.335L462.823 502.908" stroke="#BCF2EB" stroke-width="5" stroke-miterlimit="10" stroke-linecap="round" stroke-linejoin="round"/>
<path d="M408.739 564.536C416.88 564.536 423.479 557.936 423.479 549.796C423.479 541.656 416.88 535.057 408.739 535.057C400.599 535.057 394 541.656 394 549.796C394 557.936 400.599 564.536 408.739 564.536Z" fill="#FCBE1C"/>
<path d="M412.989 560.014C418.609 557.67 421.265 551.214 418.921 545.593C416.578 539.973 410.122 537.317 404.501 539.66C398.881 542.004 396.224 548.46 398.568 554.081C400.912 559.701 407.368 562.357 412.989 560.014Z" fill="#FB8400"/>
<path d="M411.409 550.841L410.48 549.912C410.364 550.26 410.248 550.608 409.9 550.841C409.204 551.537 408.275 551.653 407.347 551.305C407.115 551.189 406.883 551.073 406.766 550.841L403.865 547.939C403.053 547.127 402.937 545.618 403.865 544.805C404.677 543.993 406.186 543.993 406.999 544.805L409.9 547.707C410.132 547.939 410.248 548.055 410.364 548.287C410.596 548.403 410.829 548.519 410.945 548.751L411.757 549.564C411.757 548.868 411.641 548.171 411.293 547.475C411.177 547.243 410.945 547.011 410.829 546.895L407.927 543.993C406.65 542.716 404.445 542.716 403.053 543.993C401.776 545.27 401.776 547.475 403.053 548.868L405.954 551.769C406.186 552.001 406.302 552.117 406.534 552.233C407.115 552.581 407.927 552.814 408.623 552.698C409.436 552.581 410.132 552.349 410.712 551.653C411.061 551.421 411.293 551.189 411.409 550.841Z" fill="white"/>
<path d="M414.775 550.841L411.873 547.939C411.641 547.707 411.525 547.591 411.293 547.475C410.713 547.127 409.9 546.895 409.204 547.011C408.74 547.011 408.275 547.127 407.927 547.359C407.579 547.475 407.347 547.707 406.999 547.939C406.418 548.519 406.07 549.332 406.07 550.144C406.07 550.841 406.186 551.537 406.65 552.233C406.767 552.465 406.883 552.581 407.115 552.814L410.016 555.715C411.293 556.992 413.498 556.992 414.775 555.715C416.051 554.322 416.051 552.117 414.775 550.841ZM410.829 554.787L407.927 551.885C407.695 551.653 407.579 551.537 407.463 551.305C407.115 550.492 407.231 549.448 407.927 548.752C408.159 548.519 408.507 548.287 408.856 548.171C409.32 548.055 409.9 548.055 410.48 548.287C410.713 548.403 410.945 548.519 411.061 548.752L413.962 551.653C414.078 551.769 414.194 551.885 414.194 552.001C414.775 552.814 414.775 554.09 413.962 554.903C413.034 555.715 411.641 555.715 410.829 554.787Z" fill="white"/>
<path d="M414.065 304.151V354.405C414.065 357.77 411.279 360.556 407.914 360.556H357.776C354.41 360.556 351.625 357.77 351.625 354.405V304.151C351.625 303.339 351.741 302.642 352.089 301.946C353.018 299.625 355.223 298 357.776 298H408.03C411.279 298 414.065 300.785 414.065 304.151Z" fill="#74E2EB"/>
<path d="M412.556 304.151V354.405C412.556 357.77 409.77 360.556 406.405 360.556H356.151C352.785 360.556 350 357.77 350 354.405V304.151C350 300.785 352.785 298 356.151 298H406.405C409.77 298 412.556 300.785 412.556 304.151Z" fill="#BCF2EB"/>
<path d="M414.065 304.151V354.405C414.065 357.77 411.279 360.556 407.914 360.556H357.776C354.41 360.556 351.625 357.77 351.625 354.405V304.151C351.625 303.339 351.741 302.642 352.089 301.946C353.018 299.625 355.223 298 357.776 298H408.03C411.279 298 414.065 300.785 414.065 304.151Z" fill="#74E2EB"/>
<path d="M406.637 305.776H359.169V343.727H406.637V305.776Z" fill="white"/>
<path d="M406.753 305.776H405.012V343.727H406.753V305.776Z" fill="#F7FFFE"/>
<path opacity="0.502" d="M414.065 304.151V354.405C414.065 357.77 411.279 360.556 407.914 360.556H404.316C403.387 357.422 402.807 354.173 401.066 351.503C398.281 347.325 393.406 345.584 388.532 343.727C386.675 343.031 384.934 342.335 383.309 341.406C377.622 338.505 373.212 333.282 371.123 327.363C369.034 321.444 369.15 314.713 366.829 308.91C366.364 307.865 365.9 306.82 365.204 305.776C362.999 302.526 359.749 300.089 356.035 300.437C354.526 300.553 353.134 301.134 351.973 302.062C351.161 302.642 350.464 303.455 350 304.267C350 300.901 352.785 298.116 356.151 298.116H407.914C411.279 298 414.065 300.785 414.065 304.151Z" fill="#F7FFFE"/>
<path d="M388.067 348.486H359.169V350.575H388.067V348.486Z" fill="#BCF2EB"/>
<path d="M381.568 353.128H359.169V355.217H381.568V353.128Z" fill="#BCF2EB"/>
<path d="M373.56 324.81L381.22 333.63L393.87 317.266" stroke="#BCF2EB" stroke-width="4" stroke-miterlimit="10" stroke-linecap="round" stroke-linejoin="round"/>
<path d="M577.857 163.846V232.553C577.857 237.195 574.143 241.025 569.385 241.025H500.678C496.035 241.025 492.205 237.311 492.205 232.553V163.846C492.205 162.802 492.437 161.757 492.786 160.829C493.946 157.695 497.08 155.49 500.678 155.49H569.385C574.027 155.374 577.857 159.088 577.857 163.846Z" fill="#BCF2EB"/>
<path d="M575.652 163.846V232.553C575.652 237.195 571.938 241.025 567.179 241.025H498.472C493.83 241.025 490 237.311 490 232.553V163.73C490 159.088 493.83 155.374 498.472 155.374H567.179C571.938 155.374 575.652 159.088 575.652 163.846Z" fill="#74E2EB"/>
<path d="M577.857 163.846V232.553C577.857 237.195 574.143 241.025 569.385 241.025H500.678C496.035 241.025 492.205 237.311 492.205 232.553V163.846C492.205 162.802 492.437 161.757 492.786 160.829C493.946 157.695 497.08 155.49 500.678 155.49H569.385C574.027 155.374 577.857 159.088 577.857 163.846Z" fill="#BCF2EB"/>
<path d="M567.528 165.935H502.535V217.93H567.528V165.935Z" fill="white"/>
<path d="M567.644 165.935H565.322V217.93H567.644V165.935Z" fill="#F7FFFE"/>
<path d="M550.003 179.862H521.916V209.109H550.003V179.862Z" fill="#74E2EB"/>
<path d="M540.37 184.853L535.727 176.961L531.549 184.389L530.04 183.46L535.727 173.479L541.762 184.04L540.37 184.853Z" fill="#74E2EB"/>
<path d="M546.521 183.576H525.282V205.395H546.521V183.576Z" fill="white"/>
<path opacity="0.502" d="M577.857 163.846V232.553C577.857 237.195 574.143 241.025 569.385 241.025H564.51C563.233 236.731 562.537 232.321 560.1 228.607C556.27 222.804 549.655 220.483 543.039 217.93C540.602 217.001 538.165 215.957 535.843 214.796C528.184 210.734 522.032 203.77 519.131 195.53C516.23 187.406 516.462 178.237 513.212 170.229C512.632 168.721 511.819 167.328 511.007 165.935C508.105 161.525 503.579 158.159 498.473 158.507C496.383 158.623 494.526 159.436 492.902 160.712C491.857 161.525 490.929 162.569 490.232 163.73C490.232 159.088 494.062 155.374 498.705 155.374H569.617C574.027 155.374 577.857 159.088 577.857 163.846Z" fill="#F7FFFE"/>
<path d="M542.111 224.429H502.534V227.33H542.111V224.429Z" fill="#74E2EB"/>
<path d="M533.174 230.812H502.535V233.714H533.174V230.812Z" fill="#74E2EB"/>
<path d="M524.934 173.479C533.074 173.479 539.673 166.88 539.673 158.74C539.673 150.599 533.074 144 524.934 144C516.793 144 510.194 150.599 510.194 158.74C510.194 166.88 516.793 173.479 524.934 173.479Z" fill="#FCBE1C"/>
<path d="M524.934 169.765C531.023 169.765 535.959 164.829 535.959 158.739C535.959 152.65 531.023 147.714 524.934 147.714C518.845 147.714 513.908 152.65 513.908 158.739C513.908 164.829 518.845 169.765 524.934 169.765Z" fill="#FB8400"/>
<path d="M527.603 159.784L526.675 158.856C526.559 159.204 526.443 159.552 526.094 159.784C525.398 160.48 524.47 160.596 523.541 160.248C523.309 160.132 523.077 160.016 522.961 159.784L520.059 156.883C519.247 156.07 519.131 154.561 520.059 153.749C520.872 152.937 522.381 152.937 523.193 153.749L526.094 156.65C526.327 156.883 526.443 156.999 526.559 157.231C526.791 157.347 527.023 157.463 527.139 157.695L527.951 158.507C527.951 157.811 527.835 157.115 527.487 156.418C527.371 156.186 527.139 155.954 527.023 155.838L524.121 152.937C522.845 151.66 520.64 151.66 519.247 152.937C517.97 154.213 517.97 156.418 519.247 157.811L522.148 160.712C522.381 160.945 522.497 161.061 522.729 161.177C523.309 161.525 524.121 161.757 524.818 161.641C525.63 161.525 526.327 161.293 526.907 160.596C527.255 160.364 527.487 160.016 527.603 159.784Z" fill="white"/>
<path d="M530.969 159.784L528.067 156.883C527.835 156.65 527.719 156.534 527.487 156.418C526.907 156.07 526.094 155.838 525.398 155.954C524.934 155.954 524.47 156.07 524.121 156.302C523.773 156.418 523.541 156.65 523.193 156.883C522.613 157.463 522.265 158.275 522.265 159.088C522.265 159.784 522.381 160.48 522.845 161.177C522.961 161.409 523.077 161.525 523.309 161.757L526.211 164.659C527.487 165.935 529.692 165.935 530.969 164.659C532.246 163.266 532.246 161.061 530.969 159.784ZM526.907 163.73L524.005 160.829C523.773 160.596 523.657 160.48 523.541 160.248C523.193 159.436 523.309 158.391 524.005 157.695C524.238 157.463 524.586 157.231 524.934 157.115C525.398 156.999 525.978 156.999 526.559 157.231C526.791 157.347 527.023 157.463 527.139 157.695L530.04 160.596C530.157 160.713 530.273 160.829 530.273 160.945C530.853 161.757 530.853 163.034 530.04 163.846C529.228 164.659 527.835 164.659 526.907 163.73Z" fill="white"/>
<path d="M575.187 247.757C583.328 247.757 589.927 241.158 589.927 233.017C589.927 224.877 583.328 218.278 575.187 218.278C567.047 218.278 560.448 224.877 560.448 233.017C560.448 241.158 567.047 247.757 575.187 247.757Z" fill="#FCBE1C"/>
<path d="M575.187 244.043C581.277 244.043 586.213 239.107 586.213 233.017C586.213 226.928 581.277 221.992 575.187 221.992C569.098 221.992 564.162 226.928 564.162 233.017C564.162 239.107 569.098 244.043 575.187 244.043Z" fill="#FB8400"/>
<path d="M577.741 233.946L576.812 233.017C576.696 233.365 576.58 233.714 576.232 233.946C575.536 234.642 574.607 234.758 573.679 234.41C573.447 234.294 573.215 234.178 573.098 233.946L570.197 231.044C569.385 230.232 569.269 228.723 570.197 227.911C571.009 227.098 572.518 227.098 573.331 227.911L576.232 230.812C576.464 231.044 576.58 231.16 576.696 231.392C576.928 231.509 577.161 231.625 577.277 231.857L578.089 232.669C578.089 231.973 577.973 231.276 577.625 230.58C577.509 230.348 577.277 230.116 577.161 230L574.259 227.098C572.982 225.822 570.777 225.822 569.385 227.098C568.108 228.375 568.108 230.58 569.385 231.973L572.286 234.874C572.518 235.106 572.634 235.222 572.866 235.338C573.447 235.687 574.259 235.919 574.955 235.803C575.768 235.687 576.464 235.455 577.044 234.758C577.393 234.642 577.625 234.294 577.741 233.946Z" fill="white"/>
<path d="M581.107 234.062L578.205 231.16C577.973 230.928 577.857 230.812 577.625 230.696C577.045 230.348 576.232 230.116 575.536 230.232C575.072 230.232 574.607 230.348 574.259 230.58C573.911 230.696 573.679 230.928 573.331 231.16C572.75 231.741 572.402 232.553 572.402 233.365C572.402 234.062 572.518 234.758 572.982 235.455C573.099 235.687 573.215 235.803 573.447 236.035L576.348 238.936C577.625 240.213 579.83 240.213 581.107 238.936C582.499 237.544 582.499 235.338 581.107 234.062ZM577.161 238.008L574.259 235.106C574.027 234.874 573.911 234.758 573.795 234.526C573.447 233.714 573.563 232.669 574.259 231.973C574.491 231.741 574.839 231.509 575.188 231.392C575.652 231.276 576.232 231.276 576.812 231.509C577.045 231.625 577.277 231.741 577.393 231.973L580.294 234.874C580.41 234.99 580.526 235.106 580.526 235.222C581.107 236.035 581.107 237.311 580.294 238.124C579.366 238.82 577.973 238.82 577.161 238.008Z" fill="white"/>
<path d="M396.066 106.874V146.915C396.066 149.584 393.861 151.789 391.191 151.789H351.151C348.482 151.789 346.277 149.584 346.277 146.915V106.874C346.277 106.294 346.393 105.714 346.625 105.134C347.321 103.277 349.062 102 351.151 102H391.191C393.861 102 396.066 104.205 396.066 106.874Z" fill="#F7FFFE"/>
<path d="M394.789 106.874V146.915C394.789 149.584 392.584 151.789 389.915 151.789H349.874C347.205 151.789 345 149.584 345 146.915V106.874C345 104.205 347.205 102 349.874 102H389.915C392.7 102 394.789 104.205 394.789 106.874Z" fill="#BCF2EB"/>
<path d="M396.066 106.874V146.915C396.066 149.584 393.861 151.789 391.191 151.789H351.151C348.482 151.789 346.277 149.584 346.277 146.915V106.874C346.277 106.294 346.393 105.714 346.625 105.134C347.321 103.277 349.062 102 351.151 102H391.191C393.861 102 396.066 104.205 396.066 106.874Z" fill="#F7FFFE"/>
<path d="M390.031 108.151H352.312V138.326H390.031V108.151Z" fill="white"/>
<path d="M390.263 108.151H388.87V138.326H390.263V108.151Z" fill="#F7FFFE"/>
<path opacity="0.502" d="M396.066 106.874V146.915C396.066 149.584 393.861 151.789 391.191 151.789H388.406C387.71 149.352 387.245 146.683 385.853 144.594C383.648 141.228 379.702 139.835 375.872 138.443C374.479 137.862 372.97 137.282 371.694 136.586C367.167 134.264 363.685 130.086 361.945 125.328C360.32 120.569 360.436 115.231 358.463 110.588C358.115 109.776 357.65 108.964 357.186 108.151C355.445 105.598 352.892 103.625 349.874 103.857C348.714 103.973 347.553 104.437 346.625 105.134C346.045 105.598 345.464 106.178 345 106.874C345 104.205 347.205 102 349.874 102H391.075C393.861 102 396.066 104.205 396.066 106.874Z" fill="#BCF2EB"/>
<path d="M375.291 142.156H352.312V143.781H375.291V142.156Z" fill="#BCF2EB"/>
<path d="M370.185 145.87H352.312V147.495H370.185V145.87Z" fill="#BCF2EB"/>
<path d="M378.077 122.542C378.077 126.256 375.059 129.39 371.229 129.39C367.515 129.39 364.382 126.372 364.382 122.542C364.382 118.829 367.399 115.695 371.229 115.695C375.059 115.811 378.077 118.829 378.077 122.542Z" stroke="#BCF2EB" stroke-width="3" stroke-miterlimit="10" stroke-linecap="round" stroke-linejoin="round"/>
<g opacity="0.5">
<path opacity="0.5" d="M1499.45 255.45L1483.43 353.404" stroke="#BFCBDD" stroke-miterlimit="10" stroke-linecap="round" stroke-linejoin="round" stroke-dasharray="5 5"/>
<path opacity="0.5" d="M1465.67 365.474L1288.92 390.427L1442.11 505.21L1396.04 590.281" stroke="#BFCBDD" stroke-miterlimit="10" stroke-linecap="round" stroke-linejoin="round" stroke-dasharray="5 5"/>
<path opacity="0.5" d="M1045.77 557.668L1145.23 550.008" stroke="#BFCBDD" stroke-miterlimit="10" stroke-linecap="round" stroke-linejoin="round" stroke-dasharray="5 5"/>
<path opacity="0.5" d="M1032.77 545.598L1058.54 386.481L1197.34 388.686" stroke="#BFCBDD" stroke-miterlimit="10" stroke-linecap="round" stroke-linejoin="round" stroke-dasharray="5 5"/>
<path opacity="0.5" d="M1096.72 158.541H1212.9L1268.26 337.736" stroke="#BFCBDD" stroke-miterlimit="10" stroke-linecap="round" stroke-linejoin="round" stroke-dasharray="5 5"/>
<path opacity="0.5" d="M1084.19 169.683V258.12L1202.34 355.029" stroke="#BFCBDD" stroke-miterlimit="10" stroke-linecap="round" stroke-linejoin="round" stroke-dasharray="5 5"/>
<path opacity="0.5" d="M1304.82 513.682L1376.31 592.602" stroke="#BFCBDD" stroke-miterlimit="10" stroke-linecap="round" stroke-linejoin="round" stroke-dasharray="5 5"/>
<path opacity="0.5" d="M1279.63 506.486L1088.83 426.754" stroke="#BFCBDD" stroke-miterlimit="10" stroke-linecap="round" stroke-linejoin="round" stroke-dasharray="5 5"/>
<path opacity="0.5" d="M1227.4 431.628L1143.26 526.564" stroke="#BFCBDD" stroke-miterlimit="10" stroke-linecap="round" stroke-linejoin="round" stroke-dasharray="5 5"/>
<path opacity="0.5" d="M1291.58 493.836L1280.91 431.512" stroke="#BFCBDD" stroke-miterlimit="10" stroke-linecap="round" stroke-linejoin="round" stroke-dasharray="5 5"/>
<path opacity="0.5" d="M1323.04 142.641L1392.67 229.917L1287.52 341.914" stroke="#BFCBDD" stroke-miterlimit="10" stroke-linecap="round" stroke-linejoin="round" stroke-dasharray="5 5"/>
<path opacity="0.5" d="M1212.9 157.032L1300.99 141.248" stroke="#BFCBDD" stroke-miterlimit="10" stroke-linecap="round" stroke-linejoin="round" stroke-dasharray="5 5"/>
<path opacity="0.5" d="M1485.87 243.728H1414.84" stroke="#BFCBDD" stroke-miterlimit="10" stroke-linecap="round" stroke-linejoin="round" stroke-dasharray="5 5"/>
<path opacity="0.5" d="M1291.58 517.976L1267.79 606.413" stroke="#BFCBDD" stroke-miterlimit="10" stroke-linecap="round" stroke-linejoin="round" stroke-dasharray="5 5"/>
<path opacity="0.5" d="M1442.11 482.578L1387.57 250.924" stroke="#BFCBDD" stroke-miterlimit="10" stroke-linecap="round" stroke-linejoin="round" stroke-dasharray="5 5"/>
</g>
<path d="M1299.59 570.899V621.733C1299.59 625.215 1296.81 628 1293.33 628H1242.49C1239.01 628 1236.22 625.215 1236.22 621.733V570.899C1236.22 570.087 1236.34 569.39 1236.69 568.694C1237.62 566.373 1239.82 564.748 1242.49 564.748H1293.33C1296.81 564.748 1299.59 567.533 1299.59 570.899Z" fill="#BCF2EB"/>
<path d="M1298.08 570.899V621.733C1298.08 625.215 1295.3 628 1291.82 628H1240.98C1237.5 628 1234.72 625.215 1234.72 621.733V570.899C1234.72 567.417 1237.5 564.748 1240.98 564.748H1291.82C1295.3 564.748 1298.08 567.533 1298.08 570.899Z" fill="#BCF2EB"/>
<path d="M1299.59 570.899V621.733C1299.59 625.215 1296.81 628 1293.33 628H1242.49C1239.01 628 1236.22 625.215 1236.22 621.733V570.899C1236.22 570.087 1236.34 569.39 1236.69 568.694C1237.62 566.373 1239.82 564.748 1242.49 564.748H1293.33C1296.81 564.748 1299.59 567.533 1299.59 570.899Z" fill="#BCF2EB"/>
<path d="M1291.93 572.524H1244V610.939H1291.93V572.524Z" fill="white"/>
<path d="M1292.17 572.524H1290.42V610.939H1292.17V572.524Z" fill="#F7FFFE"/>
<path d="M1267.79 603.628C1273.82 603.628 1278.7 598.743 1278.7 592.718C1278.7 586.693 1273.82 581.809 1267.79 581.809C1261.77 581.809 1256.88 586.693 1256.88 592.718C1256.88 598.743 1261.77 603.628 1267.79 603.628Z" stroke="#BCF2EB" stroke-width="4" stroke-miterlimit="10" stroke-linecap="round" stroke-linejoin="round"/>
<path opacity="0.502" d="M1299.59 570.899V621.733C1299.59 625.215 1296.81 628 1293.33 628H1289.73C1288.8 624.866 1288.22 621.501 1286.48 618.831C1283.69 614.537 1278.7 612.796 1273.83 610.939C1271.97 610.243 1270.23 609.547 1268.49 608.618C1262.8 605.601 1258.28 600.378 1256.19 594.343C1254.1 588.308 1254.21 581.576 1251.78 575.657C1251.31 574.613 1250.73 573.568 1250.15 572.524C1247.95 569.274 1244.7 566.837 1240.87 567.069C1239.36 567.185 1237.97 567.765 1236.69 568.694C1235.88 569.274 1235.18 570.087 1234.72 570.899C1234.72 567.417 1237.5 564.748 1240.98 564.748H1293.33C1296.81 564.748 1299.59 567.533 1299.59 570.899Z" fill="#F7FFFE"/>
<path d="M1273.25 615.698H1244V617.787H1273.25V615.698Z" fill="#BCF2EB"/>
<path d="M1266.63 620.456H1244V622.545H1266.63V620.456Z" fill="#BCF2EB"/>
<path d="M1477.98 479.56V535.733C1477.98 539.563 1474.84 542.581 1471.13 542.581H1414.96C1411.13 542.581 1408.11 539.447 1408.11 535.733V479.56C1408.11 478.632 1408.22 477.82 1408.57 477.123C1409.62 474.57 1412.05 472.713 1414.96 472.713H1471.13C1474.84 472.597 1477.98 475.731 1477.98 479.56Z" fill="#BCF2EB"/>
<path d="M1476.24 479.56V535.733C1476.24 539.563 1473.1 542.581 1469.39 542.581H1413.21C1409.38 542.581 1406.37 539.447 1406.37 535.733V479.56C1406.37 475.731 1409.5 472.713 1413.21 472.713H1469.39C1473.1 472.597 1476.24 475.731 1476.24 479.56Z" fill="#BCF2EB"/>
<path d="M1477.98 479.56V535.733C1477.98 539.563 1474.84 542.581 1471.13 542.581H1414.96C1411.13 542.581 1408.11 539.447 1408.11 535.733V479.56C1408.11 478.632 1408.22 477.82 1408.57 477.123C1409.62 474.57 1412.05 472.713 1414.96 472.713H1471.13C1474.84 472.597 1477.98 475.731 1477.98 479.56Z" fill="#BCF2EB"/>
<path d="M1469.5 481.301H1416.46V523.779H1469.5V481.301Z" fill="white"/>
<path d="M1469.74 481.301H1467.76V523.779H1469.74V481.301Z" fill="#F7FFFE"/>
<path d="M1438.17 496.621V509.968L1450.7 503.353L1438.17 496.621Z" fill="#BCF2EB"/>
<path d="M1443.04 517.628C1435.15 517.628 1428.65 511.245 1428.65 503.237C1428.65 495.344 1435.03 488.845 1443.04 488.845C1450.93 488.845 1457.43 495.228 1457.43 503.237C1457.32 511.245 1450.93 517.628 1443.04 517.628ZM1443.04 491.166C1436.31 491.166 1430.86 496.621 1430.86 503.353C1430.86 510.084 1436.31 515.539 1443.04 515.539C1449.77 515.539 1455.23 510.084 1455.23 503.353C1455.23 496.621 1449.66 491.166 1443.04 491.166Z" fill="#BCF2EB"/>
<path opacity="0.502" d="M1477.98 479.56V535.733C1477.98 539.563 1474.84 542.581 1471.13 542.581H1467.18C1466.14 539.099 1465.56 535.385 1463.58 532.367C1460.45 527.609 1455 525.752 1449.66 523.663C1447.68 522.85 1445.6 522.038 1443.74 521.11C1437.47 517.86 1432.48 512.057 1430.04 505.326C1427.72 498.594 1427.84 491.282 1425.17 484.667C1424.7 483.506 1424.12 482.346 1423.31 481.185C1420.87 477.587 1417.28 474.802 1412.98 475.15C1411.36 475.266 1409.73 475.963 1408.46 477.007C1407.64 477.703 1406.83 478.516 1406.25 479.444C1406.25 475.614 1409.38 472.597 1413.1 472.597H1471.01C1474.84 472.597 1477.98 475.731 1477.98 479.56Z" fill="#F7FFFE"/>
<path d="M1448.73 529.118H1416.46V531.439H1448.73V529.118Z" fill="#BCF2EB"/>
<path d="M1441.53 534.224H1416.46V536.545H1441.53V534.224Z" fill="#BCF2EB"/>
<path d="M1471.59 547.107C1479.73 547.107 1486.33 540.508 1486.33 532.367C1486.33 524.227 1479.73 517.628 1471.59 517.628C1463.45 517.628 1456.85 524.227 1456.85 532.367C1456.85 540.508 1463.45 547.107 1471.59 547.107Z" fill="#FCBE1C"/>
<path d="M1475.84 542.572C1481.46 540.228 1484.12 533.772 1481.77 528.151C1479.43 522.531 1472.97 519.875 1467.35 522.219C1461.73 524.562 1459.08 531.019 1461.42 536.639C1463.76 542.259 1470.22 544.916 1475.84 542.572Z" fill="#FB8400"/>
<path d="M1474.26 533.412L1473.33 532.483C1473.22 532.832 1473.1 533.18 1472.75 533.412C1472.06 534.108 1471.13 534.224 1470.2 533.876C1469.97 533.76 1469.74 533.644 1469.62 533.412L1466.72 530.51C1465.91 529.698 1465.79 528.189 1466.72 527.377C1467.53 526.564 1469.04 526.564 1469.85 527.377L1472.75 530.278C1472.99 530.51 1473.1 530.626 1473.22 530.859C1473.45 530.975 1473.68 531.091 1473.8 531.323L1474.61 532.135C1474.61 531.439 1474.49 530.742 1474.15 530.046C1474.03 529.814 1473.8 529.582 1473.68 529.466L1470.78 526.564C1469.5 525.288 1467.3 525.288 1465.91 526.564C1464.63 527.841 1464.63 530.046 1465.91 531.439L1468.81 534.34C1469.04 534.572 1469.16 534.689 1469.39 534.805C1469.97 535.153 1470.78 535.385 1471.48 535.269C1472.29 535.153 1472.99 534.921 1473.57 534.224C1473.91 533.992 1474.15 533.76 1474.26 533.412Z" fill="white"/>
<path d="M1477.63 533.412L1474.73 530.51C1474.49 530.278 1474.38 530.162 1474.15 530.046C1473.57 529.698 1472.75 529.466 1472.06 529.582C1471.59 529.582 1471.13 529.698 1470.78 529.93C1470.43 530.046 1470.2 530.278 1469.85 530.51C1469.27 531.091 1468.92 531.903 1468.92 532.716C1468.92 533.412 1469.04 534.108 1469.5 534.805C1469.62 535.037 1469.74 535.153 1469.97 535.385L1472.87 538.286C1474.15 539.563 1476.35 539.563 1477.63 538.286C1478.9 536.894 1478.9 534.805 1477.63 533.412ZM1473.57 537.474L1470.66 534.572C1470.43 534.34 1470.32 534.224 1470.2 533.992C1469.85 533.18 1469.97 532.135 1470.66 531.439C1470.9 531.207 1471.24 530.975 1471.59 530.859C1472.06 530.743 1472.64 530.743 1473.22 530.975C1473.45 531.091 1473.68 531.207 1473.8 531.439L1476.7 534.34C1476.82 534.456 1476.93 534.572 1476.93 534.689C1477.51 535.501 1477.51 536.778 1476.7 537.59C1475.89 538.286 1474.49 538.286 1473.57 537.474Z" fill="white"/>
<path d="M1502.23 454.956C1502.23 447.992 1496.55 442.422 1489.7 442.422H1467.53C1460.57 442.422 1455 448.108 1455 454.956C1455 461.919 1460.68 467.49 1467.53 467.49H1489.7C1496.55 467.49 1502.23 461.803 1502.23 454.956Z" fill="#BCF2EB"/>
<path d="M1464.4 476.195L1465.09 466.91H1472.52L1464.4 476.195Z" fill="#BCF2EB"/>
<path d="M1491.9 454.956C1491.9 453.563 1490.74 452.287 1489.23 452.287C1487.84 452.287 1486.56 453.447 1486.56 454.956C1486.56 456.465 1487.72 457.625 1489.23 457.625C1490.63 457.509 1491.9 456.349 1491.9 454.956Z" fill="white"/>
<path d="M1481.11 454.956C1481.11 453.563 1479.95 452.287 1478.44 452.287C1477.05 452.287 1475.77 453.447 1475.77 454.956C1475.77 456.465 1476.93 457.625 1478.44 457.625C1479.83 457.509 1481.11 456.349 1481.11 454.956Z" fill="white"/>
<path d="M1470.2 454.956C1470.2 453.563 1469.04 452.287 1467.53 452.287C1466.02 452.287 1464.86 453.447 1464.86 454.956C1464.86 456.465 1466.02 457.625 1467.53 457.625C1469.04 457.625 1470.2 456.349 1470.2 454.956Z" fill="white"/>
<path d="M1120.28 232.239V282.492C1120.28 285.858 1117.5 288.643 1114.13 288.643H1063.99C1060.63 288.643 1057.84 285.858 1057.84 282.492V232.239C1057.84 231.426 1057.96 230.73 1058.31 230.033C1059.23 227.712 1061.44 226.087 1063.99 226.087H1114.25C1117.5 226.087 1120.28 228.873 1120.28 232.239Z" fill="#74E2EB"/>
<path d="M1118.77 232.239V282.492C1118.77 285.858 1115.99 288.643 1112.62 288.643H1062.37C1059 288.643 1056.22 285.858 1056.22 282.492V232.239C1056.22 228.873 1059 226.087 1062.37 226.087H1112.62C1115.99 226.087 1118.77 228.873 1118.77 232.239Z" fill="#BCF2EB"/>
<path d="M1120.28 232.239V282.492C1120.28 285.858 1117.5 288.643 1114.13 288.643H1063.99C1060.63 288.643 1057.84 285.858 1057.84 282.492V232.239C1057.84 231.426 1057.96 230.73 1058.31 230.033C1059.23 227.712 1061.44 226.087 1063.99 226.087H1114.25C1117.5 226.087 1120.28 228.873 1120.28 232.239Z" fill="#74E2EB"/>
<path d="M1112.85 233.863H1065.39V271.815H1112.85V233.863Z" fill="white"/>
<path d="M1112.97 233.863H1111.23V271.815H1112.97V233.863Z" fill="#F7FFFE"/>
<path opacity="0.502" d="M1120.28 232.239V282.492C1120.28 285.858 1117.5 288.643 1114.13 288.643H1110.53C1109.6 285.51 1109.02 282.26 1107.28 279.591C1104.5 275.413 1099.62 273.672 1094.75 271.815C1092.89 271.118 1091.15 270.422 1089.53 269.494C1083.84 266.592 1079.43 261.369 1077.34 255.45C1075.25 249.531 1075.37 242.8 1073.05 236.997C1072.58 235.952 1072.12 234.908 1071.42 233.863C1069.22 230.614 1065.97 228.177 1062.25 228.525C1060.74 228.641 1059.35 229.221 1058.19 230.15C1057.38 230.73 1056.68 231.542 1056.22 232.355C1056.22 228.989 1059 226.204 1062.37 226.204H1114.13C1117.5 226.087 1120.28 228.873 1120.28 232.239Z" fill="#F7FFFE"/>
<path d="M1094.28 276.573H1065.39V278.662H1094.28V276.573Z" fill="#BCF2EB"/>
<path d="M1087.79 281.216H1065.39V283.305H1087.79V281.216Z" fill="#BCF2EB"/>
<path d="M1079.78 252.897L1087.44 261.718L1100.09 245.353" stroke="#BCF2EB" stroke-width="4" stroke-miterlimit="10" stroke-linecap="round" stroke-linejoin="round"/>
<path d="M1516.28 340.406V390.659C1516.28 394.025 1513.49 396.81 1510.12 396.81H1459.87C1456.5 396.81 1453.72 394.025 1453.72 390.659V340.406C1453.72 339.593 1453.84 338.897 1454.18 338.201C1455.11 335.879 1457.32 334.255 1459.87 334.255H1510.12C1513.49 334.255 1516.28 337.04 1516.28 340.406Z" fill="#BCF2EB"/>
<path d="M1514.65 340.406V390.659C1514.65 394.025 1511.87 396.81 1508.5 396.81H1458.25C1454.88 396.81 1452.09 394.025 1452.09 390.659V340.406C1452.09 337.04 1454.88 334.255 1458.25 334.255H1508.5C1511.87 334.255 1514.65 337.04 1514.65 340.406Z" fill="#BCF2EB"/>
<path d="M1516.28 340.406V390.659C1516.28 394.025 1513.49 396.81 1510.12 396.81H1459.87C1456.5 396.81 1453.72 394.025 1453.72 390.659V340.406C1453.72 339.593 1453.84 338.897 1454.18 338.201C1455.11 335.879 1457.32 334.255 1459.87 334.255H1510.12C1513.49 334.255 1516.28 337.04 1516.28 340.406Z" fill="#BCF2EB"/>
<path d="M1508.73 341.914H1461.26V379.866H1508.73V341.914Z" fill="white"/>
<path d="M1508.85 341.914H1507.11V379.866H1508.85V341.914Z" fill="#F7FFFE"/>
<path opacity="0.502" d="M1516.28 340.406V390.659C1516.28 394.025 1513.49 396.81 1510.12 396.81H1506.53C1505.6 393.677 1505.02 390.427 1503.28 387.758C1500.49 383.58 1495.62 381.839 1490.74 379.982C1488.89 379.285 1487.14 378.589 1485.52 377.661C1479.83 374.759 1475.42 369.536 1473.33 363.617C1471.24 357.698 1471.36 350.967 1469.04 345.164C1468.58 344.12 1468.11 343.075 1467.41 342.03C1465.21 338.781 1461.96 336.344 1458.25 336.692C1456.74 336.808 1455.34 337.388 1454.18 338.317C1453.37 338.897 1452.67 339.709 1452.21 340.522C1452.21 337.156 1455 334.371 1458.36 334.371H1510.12C1513.49 334.254 1516.28 337.04 1516.28 340.406Z" fill="#F7FFFE"/>
<path d="M1490.16 384.624H1461.26V386.713H1490.16V384.624Z" fill="#BCF2EB"/>
<path d="M1483.66 389.266H1461.26V391.356H1483.66V389.266Z" fill="#BCF2EB"/>
<path d="M1475.65 361.064L1483.43 369.769L1495.96 353.404" stroke="#BCF2EB" stroke-width="4" stroke-miterlimit="10" stroke-linecap="round" stroke-linejoin="round"/>
<path d="M1187.94 522.502V584.942C1187.94 589.12 1184.58 592.602 1180.28 592.602H1117.84C1113.67 592.602 1110.18 589.236 1110.18 584.942V522.502C1110.18 521.574 1110.42 520.645 1110.65 519.717C1111.81 516.815 1114.59 514.842 1117.84 514.842H1180.28C1184.46 514.842 1187.94 518.324 1187.94 522.502Z" fill="#BCF2EB"/>
<path d="M1185.97 522.502V584.942C1185.97 589.12 1182.61 592.602 1178.31 592.602H1115.87C1111.69 592.602 1108.21 589.236 1108.21 584.942V522.502C1108.21 518.324 1111.69 514.842 1115.87 514.842H1178.31C1182.49 514.842 1185.97 518.324 1185.97 522.502Z" fill="#BCF2EB"/>
<path d="M1187.94 522.502V584.942C1187.94 589.12 1184.58 592.602 1180.28 592.602H1117.84C1113.67 592.602 1110.18 589.236 1110.18 584.942V522.502C1110.18 521.574 1110.42 520.645 1110.65 519.717C1111.81 516.815 1114.59 514.842 1117.84 514.842H1180.28C1184.46 514.842 1187.94 518.324 1187.94 522.502Z" fill="#BCF2EB"/>
<path d="M1178.54 524.475H1119.59V571.595H1178.54V524.475Z" fill="white"/>
<path d="M1178.66 524.475H1176.57V571.595H1178.66V524.475Z" fill="#F7FFFE"/>
<path opacity="0.502" d="M1187.94 522.502V584.942C1187.94 589.12 1184.58 592.602 1180.28 592.602H1175.87C1174.71 588.772 1174.02 584.594 1171.93 581.344C1168.45 576.122 1162.41 574.033 1156.38 571.711C1154.17 570.899 1151.85 569.97 1149.88 568.926C1142.91 565.212 1137.34 558.829 1134.67 551.401C1132 543.973 1132.24 535.733 1129.33 528.421C1128.75 527.145 1128.06 525.752 1127.25 524.591C1124.58 520.645 1120.51 517.512 1115.87 517.86C1114.01 517.976 1112.27 518.788 1110.77 519.833C1109.84 520.529 1108.91 521.574 1108.33 522.502C1108.33 518.324 1111.81 514.842 1115.99 514.842H1180.4C1184.46 514.842 1187.94 518.324 1187.94 522.502Z" fill="#F7FFFE"/>
<path d="M1145.93 580.532H1117.03V582.621H1145.93V580.532Z" fill="#BCF2EB"/>
<path d="M1139.43 585.174H1117.03V587.263H1139.43V585.174Z" fill="#BCF2EB"/>
<path d="M1137.57 548.151L1147.09 559.177L1162.76 538.751" stroke="#BCF2EB" stroke-width="5" stroke-miterlimit="10" stroke-linecap="round" stroke-linejoin="round"/>
<path d="M1108.68 600.378C1116.82 600.378 1123.42 593.779 1123.42 585.638C1123.42 577.498 1116.82 570.899 1108.68 570.899C1100.54 570.899 1093.94 577.498 1093.94 585.638C1093.94 593.779 1100.54 600.378 1108.68 600.378Z" fill="#FCBE1C"/>
<path d="M1112.93 595.856C1118.55 593.512 1121.2 587.056 1118.86 581.436C1116.51 575.815 1110.06 573.159 1104.44 575.503C1098.82 577.847 1096.16 584.303 1098.5 589.923C1100.85 595.544 1107.3 598.2 1112.93 595.856Z" fill="#FB8400"/>
<path d="M1111.35 586.683L1110.42 585.754C1110.3 586.103 1110.18 586.451 1109.84 586.683C1109.14 587.379 1108.21 587.495 1107.28 587.147C1107.05 587.031 1106.82 586.915 1106.7 586.683L1103.8 583.781C1102.99 582.969 1102.87 581.46 1103.8 580.648C1104.61 579.835 1106.12 579.835 1106.93 580.648L1109.84 583.549C1110.07 583.782 1110.18 583.898 1110.3 584.13C1110.53 584.246 1110.76 584.362 1110.88 584.594L1111.69 585.406C1111.69 584.71 1111.58 584.014 1111.23 583.317C1111.11 583.085 1110.88 582.853 1110.76 582.737L1107.86 579.835C1106.59 578.559 1104.38 578.559 1102.99 579.835C1101.71 581.112 1101.71 583.317 1102.99 584.71L1105.89 587.611C1106.12 587.844 1106.24 587.96 1106.47 588.076C1107.05 588.424 1107.86 588.656 1108.56 588.54C1109.37 588.424 1110.07 588.192 1110.65 587.495C1111 587.263 1111.23 587.031 1111.35 586.683Z" fill="white"/>
<path d="M1114.71 586.683L1111.81 583.781C1111.58 583.549 1111.46 583.433 1111.23 583.317C1110.65 582.969 1109.84 582.737 1109.14 582.853C1108.68 582.853 1108.21 582.969 1107.86 583.201C1107.52 583.317 1107.28 583.549 1106.94 583.781C1106.35 584.362 1106.01 585.174 1106.01 585.987C1106.01 586.683 1106.12 587.379 1106.59 588.076C1106.7 588.308 1106.82 588.424 1107.05 588.656L1109.95 591.557C1111.23 592.834 1113.43 592.834 1114.71 591.557C1115.99 590.165 1115.99 587.96 1114.71 586.683ZM1110.77 590.629L1107.86 587.728C1107.63 587.495 1107.52 587.379 1107.4 587.147C1107.05 586.335 1107.17 585.29 1107.86 584.594C1108.1 584.362 1108.44 584.13 1108.79 584.014C1109.26 583.898 1109.84 583.898 1110.42 584.13C1110.65 584.246 1110.88 584.362 1111 584.594L1113.9 587.495C1114.01 587.611 1114.13 587.728 1114.13 587.844C1114.71 588.656 1114.71 589.933 1113.9 590.745C1112.97 591.557 1111.58 591.557 1110.77 590.629Z" fill="white"/>
<path d="M1432.6 201.831V270.538C1432.6 275.18 1428.88 279.01 1424.12 279.01H1355.42C1350.78 279.01 1346.95 275.297 1346.95 270.538V201.831C1346.95 200.787 1347.18 199.742 1347.53 198.814C1348.69 195.68 1351.82 193.475 1355.42 193.475H1424.12C1428.77 193.359 1432.6 197.073 1432.6 201.831Z" fill="#BCF2EB"/>
<path d="M1430.39 201.831V270.538C1430.39 275.18 1426.68 279.01 1421.92 279.01H1353.21C1348.57 279.01 1344.74 275.296 1344.74 270.538V201.715C1344.74 197.073 1348.57 193.359 1353.21 193.359H1421.92C1426.68 193.359 1430.39 197.073 1430.39 201.831Z" fill="#74E2EB"/>
<path d="M1432.6 201.831V270.538C1432.6 275.18 1428.88 279.01 1424.12 279.01H1355.42C1350.78 279.01 1346.95 275.297 1346.95 270.538V201.831C1346.95 200.787 1347.18 199.742 1347.53 198.814C1348.69 195.68 1351.82 193.475 1355.42 193.475H1424.12C1428.77 193.359 1432.6 197.073 1432.6 201.831Z" fill="#BCF2EB"/>
<path d="M1422.27 203.92H1357.27V255.915H1422.27V203.92Z" fill="white"/>
<path d="M1422.38 203.92H1420.06V255.915H1422.38V203.92Z" fill="#F7FFFE"/>
<path d="M1404.74 217.847H1376.66V247.094H1404.74V217.847Z" fill="#74E2EB"/>
<path d="M1395.11 222.838L1390.47 214.946L1386.29 222.374L1384.78 221.445L1390.47 211.464L1396.5 222.025L1395.11 222.838Z" fill="#74E2EB"/>
<path d="M1401.26 221.561H1380.02V243.38H1401.26V221.561Z" fill="white"/>
<path opacity="0.502" d="M1432.6 201.831V270.538C1432.6 275.18 1428.88 279.01 1424.12 279.01H1419.25C1417.97 274.716 1417.28 270.306 1414.84 266.592C1411.01 260.789 1404.39 258.468 1397.78 255.915C1395.34 254.986 1392.9 253.942 1390.58 252.781C1382.92 248.719 1376.77 241.755 1373.87 233.515C1370.97 225.391 1371.2 216.222 1367.95 208.214C1367.37 206.706 1366.56 205.313 1365.75 203.92C1362.85 199.51 1358.32 196.144 1353.21 196.492C1351.12 196.608 1349.27 197.421 1347.64 198.698C1346.6 199.51 1345.67 200.554 1344.97 201.715C1344.97 197.073 1348.8 193.359 1353.44 193.359H1424.36C1428.77 193.359 1432.6 197.073 1432.6 201.831Z" fill="#F7FFFE"/>
<path d="M1396.85 262.414H1357.27V265.315H1396.85V262.414Z" fill="#74E2EB"/>
<path d="M1387.91 268.797H1357.27V271.699H1387.91V268.797Z" fill="#74E2EB"/>
<path d="M1379.67 211.464C1387.81 211.464 1394.41 204.865 1394.41 196.725C1394.41 188.584 1387.81 181.985 1379.67 181.985C1371.53 181.985 1364.93 188.584 1364.93 196.725C1364.93 204.865 1371.53 211.464 1379.67 211.464Z" fill="#FCBE1C"/>
<path d="M1379.67 207.75C1385.76 207.75 1390.7 202.814 1390.7 196.725C1390.7 190.635 1385.76 185.699 1379.67 185.699C1373.58 185.699 1368.65 190.635 1368.65 196.725C1368.65 202.814 1373.58 207.75 1379.67 207.75Z" fill="#FB8400"/>
<path d="M1382.34 197.769L1381.41 196.841C1381.3 197.189 1381.18 197.537 1380.83 197.769C1380.14 198.465 1379.21 198.581 1378.28 198.233C1378.05 198.117 1377.82 198.001 1377.7 197.769L1374.8 194.868C1373.99 194.055 1373.87 192.546 1374.8 191.734C1375.61 190.922 1377.12 190.922 1377.93 191.734L1380.83 194.635C1381.07 194.868 1381.18 194.984 1381.3 195.216C1381.53 195.332 1381.76 195.448 1381.88 195.68L1382.69 196.492C1382.69 195.796 1382.58 195.1 1382.23 194.403C1382.11 194.171 1381.88 193.939 1381.76 193.823L1378.86 190.922C1377.58 189.645 1375.38 189.645 1373.99 190.922C1372.71 192.198 1372.71 194.403 1373.99 195.796L1376.89 198.698C1377.12 198.93 1377.24 199.046 1377.47 199.162C1378.05 199.51 1378.86 199.742 1379.56 199.626C1380.37 199.51 1381.07 199.278 1381.65 198.581C1381.99 198.349 1382.23 198.001 1382.34 197.769Z" fill="white"/>
<path d="M1385.71 197.769L1382.81 194.868C1382.58 194.635 1382.46 194.519 1382.23 194.403C1381.65 194.055 1380.83 193.823 1380.14 193.939C1379.67 193.939 1379.21 194.055 1378.86 194.287C1378.51 194.403 1378.28 194.635 1377.93 194.868C1377.35 195.448 1377 196.26 1377 197.073C1377 197.769 1377.12 198.465 1377.58 199.162C1377.7 199.394 1377.82 199.51 1378.05 199.742L1380.95 202.644C1382.23 203.92 1384.43 203.92 1385.71 202.644C1386.99 201.251 1386.99 199.046 1385.71 197.769ZM1381.65 201.715L1378.75 198.814C1378.51 198.581 1378.4 198.465 1378.28 198.233C1377.93 197.421 1378.05 196.376 1378.75 195.68C1378.98 195.448 1379.33 195.216 1379.67 195.1C1380.14 194.984 1380.72 194.984 1381.3 195.216C1381.53 195.332 1381.76 195.448 1381.88 195.68L1384.78 198.581C1384.9 198.698 1385.01 198.814 1385.01 198.93C1385.59 199.742 1385.59 201.019 1384.78 201.831C1383.97 202.644 1382.58 202.644 1381.65 201.715Z" fill="white"/>
<path d="M1429.93 285.742C1438.07 285.742 1444.67 279.143 1444.67 271.002C1444.67 262.862 1438.07 256.263 1429.93 256.263C1421.79 256.263 1415.19 262.862 1415.19 271.002C1415.19 279.143 1421.79 285.742 1429.93 285.742Z" fill="#FCBE1C"/>
<path d="M1429.93 282.028C1436.02 282.028 1440.95 277.092 1440.95 271.002C1440.95 264.913 1436.02 259.977 1429.93 259.977C1423.84 259.977 1418.9 264.913 1418.9 271.002C1418.9 277.092 1423.84 282.028 1429.93 282.028Z" fill="#FB8400"/>
<path d="M1432.48 271.931L1431.55 271.002C1431.44 271.35 1431.32 271.699 1430.97 271.931C1430.28 272.627 1429.35 272.743 1428.42 272.395C1428.19 272.279 1427.95 272.163 1427.84 271.931L1424.94 269.029C1424.12 268.217 1424.01 266.708 1424.94 265.896C1425.75 265.083 1427.26 265.083 1428.07 265.896L1430.97 268.797C1431.2 269.029 1431.32 269.145 1431.44 269.377C1431.67 269.494 1431.9 269.61 1432.02 269.842L1432.83 270.654C1432.83 269.958 1432.71 269.261 1432.36 268.565C1432.25 268.333 1432.02 268.101 1431.9 267.985L1429 265.083C1427.72 263.807 1425.52 263.807 1424.12 265.083C1422.85 266.36 1422.85 268.565 1424.12 269.958L1427.03 272.859C1427.26 273.091 1427.37 273.207 1427.61 273.323C1428.19 273.672 1429 273.904 1429.7 273.788C1430.51 273.672 1431.2 273.44 1431.78 272.743C1432.13 272.627 1432.36 272.279 1432.48 271.931Z" fill="white"/>
<path d="M1435.85 272.047L1432.95 269.145C1432.71 268.913 1432.6 268.797 1432.36 268.681C1431.78 268.333 1430.97 268.101 1430.28 268.217C1429.81 268.217 1429.35 268.333 1429 268.565C1428.65 268.681 1428.42 268.913 1428.07 269.145C1427.49 269.726 1427.14 270.538 1427.14 271.35C1427.14 272.047 1427.26 272.743 1427.72 273.44C1427.84 273.672 1427.95 273.788 1428.19 274.02L1431.09 276.921C1432.36 278.198 1434.57 278.198 1435.85 276.921C1437.24 275.529 1437.24 273.323 1435.85 272.047ZM1431.9 275.993L1429 273.091C1428.77 272.859 1428.65 272.743 1428.53 272.511C1428.19 271.699 1428.3 270.654 1429 269.958C1429.23 269.726 1429.58 269.494 1429.93 269.377C1430.39 269.261 1430.97 269.261 1431.55 269.494C1431.78 269.61 1432.02 269.726 1432.13 269.958L1435.03 272.859C1435.15 272.975 1435.27 273.091 1435.27 273.207C1435.85 274.02 1435.85 275.296 1435.03 276.109C1434.11 276.805 1432.71 276.805 1431.9 275.993Z" fill="white"/>
<path d="M1101.36 358.395V427.102C1101.36 431.744 1097.65 435.574 1092.89 435.574H1024.18C1019.54 435.574 1015.71 431.86 1015.71 427.102V358.395C1015.71 357.35 1015.94 356.306 1016.29 355.377C1017.45 352.244 1020.59 350.039 1024.18 350.039H1092.89C1097.53 349.922 1101.36 353.752 1101.36 358.395Z" fill="#BCF2EB"/>
<path d="M1099.16 358.395V427.102C1099.16 431.744 1095.45 435.574 1090.69 435.574H1021.98C1017.34 435.574 1013.51 431.86 1013.51 427.102V358.279C1013.51 353.636 1017.34 349.922 1021.98 349.922H1090.69C1095.45 349.922 1099.16 353.752 1099.16 358.395Z" fill="white"/>
<path d="M1101.36 358.395V427.102C1101.36 431.744 1097.65 435.574 1092.89 435.574H1024.18C1019.54 435.574 1015.71 431.86 1015.71 427.102V358.395C1015.71 357.35 1015.94 356.306 1016.29 355.377C1017.45 352.244 1020.59 350.039 1024.18 350.039H1092.89C1097.53 349.922 1101.36 353.752 1101.36 358.395Z" fill="#BCF2EB"/>
<path d="M1091.03 360.484H1026.04V412.478H1091.03V360.484Z" fill="white"/>
<path d="M1091.15 360.484H1088.83V412.478H1091.15V360.484Z" fill="#F7FFFE"/>
<path d="M1069.71 389.084C1071.17 382.906 1067.33 376.721 1061.16 375.269C1054.98 373.818 1048.79 377.648 1047.34 383.826C1045.89 390.003 1049.72 396.188 1055.9 397.64C1062.08 399.092 1068.26 395.261 1069.71 389.084Z" stroke="#BCF2EB" stroke-width="5" stroke-miterlimit="10" stroke-linecap="round" stroke-linejoin="round"/>
<path opacity="0.502" d="M1103.62 358.472V427.179C1103.62 431.822 1099.91 435.652 1095.15 435.652H1090.28C1089 431.357 1088.3 426.947 1085.87 423.233C1082.04 417.43 1075.42 415.109 1068.81 412.556C1066.37 411.627 1063.93 410.583 1061.61 409.422C1053.95 405.36 1047.8 398.397 1044.9 390.156C1042 382.032 1042.23 372.864 1038.98 364.856C1038.4 363.347 1037.59 361.954 1036.77 360.561C1033.87 356.151 1029.35 352.785 1024.24 353.134C1022.15 353.25 1020.29 354.062 1018.67 355.339C1017.62 356.151 1016.7 357.196 1016 358.356C1016 353.714 1019.83 350 1024.47 350H1095.38C1099.79 350 1103.62 353.83 1103.62 358.472Z" fill="#F7FFFE"/>
<path d="M1065.62 418.978H1026.04V421.879H1065.62V418.978Z" fill="#F7FFFE"/>
<path d="M1056.68 425.361H1026.04V428.262H1056.68V425.361Z" fill="#F7FFFE"/>
<path d="M999 458.09C999 467.026 1006.2 474.222 1015.13 474.222H1043.45C1052.39 474.222 1059.58 467.026 1059.58 458.09C1059.58 449.153 1052.39 441.957 1043.45 441.957H1015.13C1006.2 442.073 999 449.269 999 458.09Z" fill="#F7FFFE"/>
<path d="M1047.51 430.932L1046.58 442.77H1037.07L1047.51 430.932Z" fill="#F7FFFE"/>
<path d="M1012.23 458.09C1012.23 459.946 1013.74 461.455 1015.6 461.455C1017.45 461.455 1018.96 459.946 1018.96 458.09C1018.96 456.233 1017.45 454.724 1015.6 454.724C1013.74 454.724 1012.23 456.233 1012.23 458.09Z" fill="white"/>
<path d="M1026.16 458.09C1026.16 459.946 1027.67 461.455 1029.52 461.455C1031.38 461.455 1032.89 459.946 1032.89 458.09C1032.89 456.233 1031.38 454.724 1029.52 454.724C1027.67 454.724 1026.16 456.233 1026.16 458.09Z" fill="white"/>
<path d="M1039.97 458.09C1039.97 459.946 1041.48 461.455 1043.33 461.455C1045.19 461.455 1046.7 459.946 1046.7 458.09C1046.7 456.233 1045.19 454.724 1043.33 454.724C1041.48 454.724 1039.97 456.233 1039.97 458.09Z" fill="white"/>
<path d="M1237.62 141.364V181.405C1237.62 184.074 1235.41 186.279 1232.74 186.279H1192.7C1190.03 186.279 1187.83 184.074 1187.83 181.405V141.364C1187.83 140.784 1187.94 140.204 1188.18 139.623C1188.87 137.766 1190.61 136.49 1192.7 136.49H1232.74C1235.41 136.49 1237.62 138.695 1237.62 141.364Z" fill="#F7FFFE"/>
<path d="M1236.34 141.364V181.405C1236.34 184.074 1234.14 186.279 1231.47 186.279H1191.43C1188.76 186.279 1186.55 184.074 1186.55 181.405V141.364C1186.55 138.695 1188.76 136.49 1191.43 136.49H1231.47C1234.25 136.49 1236.34 138.695 1236.34 141.364Z" fill="#BCF2EB"/>
<path d="M1237.62 141.364V181.405C1237.62 184.074 1235.41 186.279 1232.74 186.279H1192.7C1190.03 186.279 1187.83 184.074 1187.83 181.405V141.364C1187.83 140.784 1187.94 140.204 1188.18 139.623C1188.87 137.766 1190.61 136.49 1192.7 136.49H1232.74C1235.41 136.49 1237.62 138.695 1237.62 141.364Z" fill="#F7FFFE"/>
<path d="M1231.58 142.641H1193.86V172.816H1231.58V142.641Z" fill="white"/>
<path d="M1231.81 142.641H1230.42V172.816H1231.81V142.641Z" fill="#F7FFFE"/>
<path opacity="0.502" d="M1237.62 141.364V181.405C1237.62 184.074 1235.41 186.279 1232.74 186.279H1229.96C1229.26 183.842 1228.8 181.173 1227.4 179.084C1225.2 175.718 1221.25 174.325 1217.42 172.932C1216.03 172.352 1214.52 171.772 1213.24 171.075C1208.72 168.754 1205.24 164.576 1203.5 159.818C1201.87 155.059 1201.99 149.721 1200.01 145.078C1199.67 144.266 1199.2 143.453 1198.74 142.641C1197 140.088 1194.44 138.115 1191.43 138.347C1190.27 138.463 1189.1 138.927 1188.18 139.623C1187.6 140.088 1187.02 140.668 1186.55 141.364C1186.55 138.695 1188.76 136.49 1191.43 136.49H1232.63C1235.41 136.49 1237.62 138.695 1237.62 141.364Z" fill="#BCF2EB"/>
<path d="M1216.84 176.646H1193.86V178.271H1216.84V176.646Z" fill="#BCF2EB"/>
<path d="M1211.74 180.36H1193.86V181.985H1211.74V180.36Z" fill="#BCF2EB"/>
<path d="M1219.63 157.032C1219.63 160.746 1216.61 163.88 1212.78 163.88C1209.07 163.88 1205.93 160.862 1205.93 157.032C1205.93 153.318 1208.95 150.185 1212.78 150.185C1216.61 150.301 1219.63 153.318 1219.63 157.032Z" stroke="#BCF2EB" stroke-width="3" stroke-miterlimit="10" stroke-linecap="round" stroke-linejoin="round"/>
<path d="M1336.27 348.646V420.022C1336.27 424.665 1331.74 428.03 1327.22 426.521L1260.48 404.122L1194.56 426.289C1189.8 427.914 1184.81 424.316 1184.81 419.326V346.557C1184.81 345.048 1185.39 343.539 1186.2 342.495C1187.02 341.45 1188.06 340.754 1189.34 340.29L1253.17 318.935C1258.04 317.31 1263.27 317.31 1268.02 318.935L1329.77 339.593C1331.51 340.174 1333.13 341.334 1334.18 342.727C1335.46 344.352 1336.27 346.441 1336.27 348.646Z" fill="#BCF2EB"/>
<g opacity="0.451">
<path opacity="0.451" d="M1336.27 348.646V420.022C1336.27 424.665 1331.74 428.03 1327.22 426.521L1260.48 404.122L1194.56 426.289C1189.8 427.914 1184.81 424.316 1184.81 419.326V346.557C1184.81 345.048 1185.39 343.539 1186.2 342.495C1187.02 341.45 1188.06 340.754 1189.34 340.29L1253.17 318.935C1258.04 317.31 1263.27 317.31 1268.02 318.935L1329.77 339.593C1331.51 340.174 1333.13 341.334 1334.18 342.727C1335.46 344.352 1336.27 346.441 1336.27 348.646Z" fill="#F7FFFE"/>
</g>
<path d="M1260.6 367.331V455.072C1260.6 455.072 1206.17 436.503 1189.57 430.7C1186.67 429.771 1184.81 427.102 1184.81 424.084V346.441C1184.81 344.932 1185.39 343.423 1186.2 342.379L1260.6 367.331Z" fill="#74E2EB"/>
<path opacity="0.651" d="M1192.12 421.067V358.743C1192.12 356.074 1194.79 354.101 1197.34 354.913L1250.38 372.786C1252.01 373.366 1253.05 374.875 1253.05 376.616V438.94C1253.05 441.609 1250.38 443.582 1247.83 442.77L1194.79 424.897C1193.28 424.2 1192.12 422.692 1192.12 421.067Z" fill="#BCF2EB"/>
<path opacity="0.7098" d="M1206.05 420.37V377.196C1206.05 375.572 1207.67 374.411 1209.3 374.875L1246.21 387.293C1247.25 387.642 1247.83 388.57 1247.83 389.615V429.887C1247.83 433.021 1244.81 435.226 1241.8 434.181L1207.79 422.808C1206.75 422.343 1206.05 421.415 1206.05 420.37Z" fill="#74E2EB"/>
<path opacity="0.949" d="M1200.36 413.059V369.885C1200.36 368.26 1201.99 367.099 1203.61 367.563L1240.52 379.982C1241.56 380.33 1242.14 381.258 1242.14 382.303V425.477C1242.14 427.102 1240.52 428.262 1238.89 427.798L1201.99 415.38C1201.06 415.032 1200.36 414.103 1200.36 413.059Z" fill="white"/>
<path d="M1200.36 372.09V369.769C1200.36 368.144 1201.99 366.983 1203.61 367.447L1240.52 379.866C1241.56 380.214 1242.14 381.142 1242.14 382.187V386.133L1200.36 372.09Z" fill="#31AFF5"/>
<path d="M1221.02 414.103C1218.47 414.103 1215.91 413.291 1213.59 411.666C1210.69 409.577 1208.6 406.327 1207.79 402.613C1206.17 394.953 1210.46 387.41 1217.42 385.901C1220.79 385.204 1224.39 385.901 1227.29 388.106C1230.19 390.195 1232.28 393.445 1233.09 397.159C1233.9 400.872 1233.32 404.586 1231.58 407.72C1229.73 410.97 1226.82 413.059 1223.46 413.871C1222.65 413.987 1221.83 414.103 1221.02 414.103ZM1210.81 401.917C1211.5 404.934 1213.13 407.488 1215.45 409.113C1217.77 410.737 1220.32 411.318 1222.88 410.853C1225.43 410.273 1227.64 408.648 1229.03 406.211C1230.42 403.774 1230.89 400.756 1230.19 397.739C1229.49 394.721 1227.87 392.168 1225.55 390.543C1223.23 388.918 1220.67 388.338 1218.12 388.802C1212.78 389.963 1209.42 395.882 1210.81 401.917Z" fill="#31AFF5"/>
<path d="M1217.19 393.909V405.747L1225.78 400.408L1217.19 393.909Z" fill="#31AFF5"/>
<path d="M1336.27 348.646V424.781C1336.27 427.682 1334.41 430.351 1331.63 431.28L1260.48 455.188V367.447L1334.18 342.727C1335.46 344.352 1336.27 346.441 1336.27 348.646Z" fill="#BCF2EB"/>
<path opacity="0.4392" d="M1336.27 348.646V424.781C1336.27 427.682 1334.41 430.351 1331.63 431.28L1260.48 455.188V367.447L1334.18 342.727C1335.46 344.352 1336.27 346.441 1336.27 348.646Z" fill="url(#paint1_linear)"/>
<path opacity="0.651" d="M1330.23 421.067V358.743C1330.23 356.074 1327.56 354.101 1325.01 354.913L1271.97 372.786C1270.35 373.366 1269.3 374.875 1269.3 376.616V438.94C1269.3 441.609 1271.97 443.582 1274.52 442.77L1327.56 424.897C1329.19 424.2 1330.23 422.692 1330.23 421.067Z" fill="#4D85D5"/>
<g opacity="0.2">
<path opacity="0.2" d="M1283.58 421.299C1283.23 421.415 1283 421.415 1282.88 421.183C1282.65 421.067 1282.53 420.951 1282.53 420.835L1276.27 411.55V422.575C1276.27 422.808 1276.15 423.04 1276.03 423.272C1275.92 423.504 1275.68 423.62 1275.45 423.736L1271.85 424.897C1271.62 425.013 1271.51 424.897 1271.27 424.781C1271.16 424.665 1271.04 424.432 1271.04 424.2V403.078C1271.04 402.845 1271.16 402.613 1271.27 402.381C1271.39 402.149 1271.62 402.033 1271.85 401.917L1274.76 401.105C1275.1 400.988 1275.34 400.988 1275.57 401.221C1275.8 401.337 1275.92 401.453 1275.92 401.569L1282.18 410.853V399.944C1282.18 399.712 1282.3 399.48 1282.42 399.248C1282.53 399.015 1282.76 398.899 1282.88 398.899L1286.48 397.855C1286.71 397.855 1286.83 397.855 1286.94 397.971C1287.06 398.087 1287.17 398.319 1287.17 398.551V419.326C1287.17 419.558 1287.06 419.79 1286.94 420.022C1286.83 420.254 1286.59 420.37 1286.48 420.486L1283.58 421.299Z" fill="#74E2EB"/>
<path opacity="0.2" d="M1303.66 392.98C1303.89 392.98 1304 392.98 1304.12 393.096C1304.24 393.213 1304.35 393.445 1304.35 393.677V397.042C1304.35 397.275 1304.24 397.507 1304.12 397.739C1304 397.971 1303.77 398.087 1303.66 398.087L1295.76 400.408V404.818L1303.07 402.613C1303.31 402.613 1303.42 402.613 1303.54 402.729C1303.66 402.845 1303.77 403.078 1303.77 403.31V406.675C1303.77 406.907 1303.66 407.14 1303.54 407.372C1303.42 407.604 1303.19 407.72 1303.07 407.72L1295.76 409.925V416.889C1295.76 417.121 1295.65 417.353 1295.53 417.585C1295.41 417.817 1295.18 417.933 1295.07 418.049L1291.58 419.094C1291.35 419.21 1291.24 419.094 1291.12 418.978C1291 418.862 1290.89 418.629 1290.89 418.397V397.623C1290.89 397.391 1291 397.159 1291.12 396.926C1291.24 396.694 1291.47 396.578 1291.58 396.578L1303.66 392.98Z" fill="#74E2EB"/>
<path opacity="0.2" d="M1320.25 388.222C1320.48 388.222 1320.6 388.222 1320.72 388.338C1320.83 388.454 1320.95 388.686 1320.95 388.918V392.168C1320.95 392.4 1320.83 392.632 1320.72 392.864C1320.6 393.096 1320.37 393.213 1320.25 393.213L1315.84 394.489V410.505C1315.84 410.737 1315.73 410.97 1315.61 411.202C1315.49 411.434 1315.26 411.55 1315.15 411.55L1311.78 412.594C1311.55 412.594 1311.43 412.594 1311.32 412.478C1311.2 412.362 1311.08 412.13 1311.08 411.898L1310.97 395.766L1306.44 397.042C1306.21 397.042 1306.09 397.042 1305.98 396.926C1305.86 396.81 1305.74 396.578 1305.74 396.346V392.98C1305.74 392.748 1305.86 392.516 1305.98 392.284C1306.09 392.052 1306.32 391.936 1306.44 391.936L1320.25 388.222Z" fill="#74E2EB"/>
</g>
<g opacity="0.949">
<path opacity="0.949" d="M1288.8 415.728C1288.45 415.844 1288.22 415.844 1288.1 415.612C1287.87 415.496 1287.75 415.38 1287.75 415.264L1281.49 405.979V417.005C1281.49 417.237 1281.37 417.469 1281.26 417.701C1281.14 417.933 1280.91 418.049 1280.68 418.165L1277.08 419.326C1276.85 419.442 1276.73 419.326 1276.5 419.21C1276.38 419.094 1276.27 418.862 1276.27 418.629V397.507C1276.27 397.275 1276.38 397.042 1276.5 396.81C1276.61 396.578 1276.85 396.462 1277.08 396.346L1279.98 395.534C1280.33 395.418 1280.56 395.418 1280.79 395.65C1281.02 395.766 1281.14 395.882 1281.14 395.998L1287.41 405.283V394.373C1287.41 394.141 1287.52 393.909 1287.64 393.677C1287.75 393.445 1287.99 393.329 1288.1 393.329L1291.7 392.284C1291.93 392.284 1292.05 392.284 1292.17 392.4C1292.28 392.516 1292.4 392.748 1292.4 392.98V413.755C1292.4 413.987 1292.28 414.219 1292.17 414.451C1292.05 414.683 1291.82 414.8 1291.7 414.916L1288.8 415.728Z" fill="white"/>
<path opacity="0.949" d="M1308.76 387.41C1308.99 387.41 1309.11 387.41 1309.23 387.526C1309.34 387.642 1309.46 387.874 1309.46 388.106V391.472C1309.46 391.704 1309.34 391.936 1309.23 392.168C1309.11 392.4 1308.88 392.516 1308.76 392.516L1300.87 394.837V399.248L1308.18 397.042C1308.41 397.042 1308.53 397.042 1308.65 397.159C1308.76 397.275 1308.88 397.507 1308.88 397.739V401.105C1308.88 401.337 1308.76 401.569 1308.65 401.801C1308.53 402.033 1308.3 402.149 1308.18 402.149L1300.87 404.354V411.318C1300.87 411.55 1300.75 411.782 1300.64 412.014C1300.52 412.246 1300.29 412.362 1300.17 412.478L1296.69 413.523C1296.46 413.639 1296.34 413.523 1296.23 413.407C1296.11 413.291 1296 413.059 1296 412.826V392.052C1296 391.82 1296.11 391.588 1296.23 391.356C1296.34 391.123 1296.58 391.007 1296.69 391.007L1308.76 387.41Z" fill="white"/>
<path opacity="0.949" d="M1325.36 382.767C1325.59 382.767 1325.71 382.767 1325.82 382.883C1325.94 382.999 1326.05 383.231 1326.05 383.464V386.713C1326.05 386.945 1325.94 387.177 1325.82 387.41C1325.71 387.642 1325.47 387.758 1325.36 387.758L1320.95 389.034L1321.06 405.051C1321.06 405.283 1320.95 405.515 1320.83 405.747C1320.72 405.979 1320.48 406.095 1320.37 406.095L1317 407.14C1316.77 407.14 1316.65 407.14 1316.54 407.024C1316.42 406.907 1316.31 406.675 1316.31 406.443L1316.19 390.311L1311.66 391.588C1311.43 391.588 1311.32 391.588 1311.2 391.472C1311.08 391.356 1310.97 391.123 1310.97 390.891V387.526C1310.97 387.293 1311.08 387.061 1311.2 386.829C1311.32 386.597 1311.55 386.481 1311.66 386.481L1325.36 382.767Z" fill="white"/>
</g>
<path d="M1299.13 279.359C1299.13 267.985 1289.96 258.816 1278.59 258.816H1242.49C1231.12 258.816 1221.95 267.985 1221.95 279.359C1221.95 290.732 1231.12 299.901 1242.49 299.901H1278.59C1289.96 300.017 1299.13 290.732 1299.13 279.359Z" fill="#4D85D5"/>
<path d="M1237.39 314.176L1238.55 299.089H1250.62L1237.39 314.176Z" fill="#4D85D5"/>
<path opacity="0.6" d="M1278.59 258.816H1242.49C1231.12 258.816 1221.95 267.985 1221.95 279.359C1221.95 289.34 1229.03 297.696 1238.55 299.553L1237.39 314.176L1249.8 300.017H1278.59C1289.96 300.017 1299.13 290.848 1299.13 279.475C1299.13 268.101 1289.96 258.816 1278.59 258.816Z" fill="#BCF2EB"/>
<path d="M1282.18 279.359C1282.18 277.037 1280.21 275.064 1277.89 275.064C1275.57 275.064 1273.6 277.037 1273.6 279.359C1273.6 281.68 1275.57 283.653 1277.89 283.653C1280.33 283.653 1282.18 281.796 1282.18 279.359Z" fill="white"/>
<path d="M1264.54 279.359C1264.54 277.037 1262.57 275.064 1260.25 275.064C1257.93 275.064 1255.95 277.037 1255.95 279.359C1255.95 281.68 1257.93 283.653 1260.25 283.653C1262.69 283.653 1264.54 281.796 1264.54 279.359Z" fill="white"/>
<path d="M1246.9 279.359C1246.9 277.037 1244.93 275.064 1242.61 275.064C1240.29 275.064 1238.31 277.037 1238.31 279.359C1238.31 281.68 1240.29 283.653 1242.61 283.653C1244.93 283.653 1246.9 281.796 1246.9 279.359Z" fill="white"/>
<path d="M1097.42 150.069V165.389L1084.19 169.799L1070.96 165.389V150.069L1084.19 145.659L1097.42 150.069Z" fill="#F9F9F9" stroke="#BCF2EB" stroke-miterlimit="10" stroke-linecap="round" stroke-linejoin="round"/>
<path d="M1070.96 165.389V150.185L1084.19 154.595V169.683L1070.96 165.389Z" fill="#F9F9F9" stroke="#BCF2EB" stroke-miterlimit="10" stroke-linecap="round" stroke-linejoin="round"/>
<path d="M1097.42 165.389V150.185L1084.19 154.595V169.683L1097.42 165.389Z" fill="#F9F9F9" stroke="#BCF2EB" stroke-miterlimit="10" stroke-linecap="round" stroke-linejoin="round"/>
<path d="M1402.65 592.486V607.69L1389.42 612.216L1376.19 607.69V592.486L1389.42 588.076V587.96V588.076L1402.65 592.486Z" fill="#F9F9F9" stroke="#BCF2EB" stroke-miterlimit="10" stroke-linecap="round" stroke-linejoin="round"/>
<path d="M1389.42 587.96V588.076V587.96Z" fill="#F9F9F9" stroke="#BCF2EB" stroke-miterlimit="10" stroke-linecap="round" stroke-linejoin="round"/>
<path d="M1389.42 587.96V588.076V587.96Z" fill="#F9F9F9" stroke="#BCF2EB" stroke-miterlimit="10" stroke-linecap="round" stroke-linejoin="round"/>
<path d="M1376.31 607.806V592.602L1389.42 596.896V612.1L1376.31 607.806Z" fill="#F9F9F9" stroke="#BCF2EB" stroke-miterlimit="10" stroke-linecap="round" stroke-linejoin="round"/>
<path d="M1402.65 607.806V592.602L1389.42 596.896V612.1L1402.65 607.806Z" fill="#F9F9F9" stroke="#BCF2EB" stroke-miterlimit="10" stroke-linecap="round" stroke-linejoin="round"/>
<path d="M1303.07 499.755V512.985L1291.58 516.932L1280.1 512.985V499.755L1291.58 495.925L1303.07 499.755Z" fill="#F9F9F9" stroke="#BCF2EB" stroke-miterlimit="10" stroke-linecap="round" stroke-linejoin="round"/>
<path d="M1280.1 513.102V499.871L1291.58 503.585V516.815L1280.1 513.102Z" fill="#F9F9F9" stroke="#BCF2EB" stroke-miterlimit="10" stroke-linecap="round" stroke-linejoin="round"/>
<path d="M1303.07 513.102V499.871L1291.58 503.585V516.815L1303.07 513.102Z" fill="#F9F9F9" stroke="#BCF2EB" stroke-miterlimit="10" stroke-linecap="round" stroke-linejoin="round"/>
<path d="M1325.82 129.526V142.873L1314.22 146.819L1302.61 142.873V129.526L1314.22 125.58L1325.82 129.526Z" fill="#F9F9F9" stroke="#BCF2EB" stroke-miterlimit="10" stroke-linecap="round" stroke-linejoin="round"/>
<path d="M1302.61 142.873V129.526L1314.22 133.356V146.703L1302.61 142.873Z" fill="#F9F9F9" stroke="#BCF2EB" stroke-miterlimit="10" stroke-linecap="round" stroke-linejoin="round"/>
<path d="M1325.82 142.873V129.526L1314.22 133.356V146.703L1325.82 142.873Z" fill="#F9F9F9" stroke="#BCF2EB" stroke-miterlimit="10" stroke-linecap="round" stroke-linejoin="round"/>
<path d="M1046 550.008V565.328L1032.77 569.738L1019.54 565.328V550.008L1032.77 545.598L1046 550.008Z" fill="#F9F9F9" stroke="#BCF2EB" stroke-miterlimit="10" stroke-linecap="round" stroke-linejoin="round"/>
<path d="M1019.54 565.328V550.124L1032.77 554.419V569.622L1019.54 565.328Z" fill="#F9F9F9" stroke="#BCF2EB" stroke-miterlimit="10" stroke-linecap="round" stroke-linejoin="round"/>
<path d="M1046 565.328V550.124L1032.77 554.419V569.622L1046 565.328Z" fill="#F9F9F9" stroke="#BCF2EB" stroke-miterlimit="10" stroke-linecap="round" stroke-linejoin="round"/>
<path d="M1510.82 236.301V249.415L1499.45 253.245L1488.19 249.415V236.301L1499.45 232.471L1510.82 236.301Z" fill="#F9F9F9" stroke="#BCF2EB" stroke-miterlimit="10" stroke-linecap="round" stroke-linejoin="round"/>
<path d="M1488.19 249.415V236.301L1499.45 240.131V253.129L1488.19 249.415Z" fill="#F9F9F9" stroke="#BCF2EB" stroke-miterlimit="10" stroke-linecap="round" stroke-linejoin="round"/>
<path d="M1510.82 249.415V236.417L1499.45 240.131V253.129L1510.82 249.415Z" fill="#F9F9F9" stroke="#BCF2EB" stroke-miterlimit="10" stroke-linecap="round" stroke-linejoin="round"/>
<defs>
<linearGradient id="paint0_linear" x1="511.532" y1="275.53" x2="162.738" y2="607.146" gradientUnits="userSpaceOnUse">
<stop stop-color="#C9F4E9"/>
<stop offset="1" stop-color="#4098F4"/>
</linearGradient>
<linearGradient id="paint1_linear" x1="1340.85" y1="348.427" x2="1253.48" y2="449.091" gradientUnits="userSpaceOnUse">
<stop stop-color="#FF91E2"/>
<stop offset="0.2268" stop-color="#FEA1E7" stop-opacity="0.7732"/>
<stop offset="0.6664" stop-color="#FDCAF4" stop-opacity="0.3336"/>
<stop offset="1" stop-color="#FCEDFF" stop-opacity="0"/>
</linearGradient>
</defs>
</svg>
