<svg width="304" height="609" viewBox="0 0 304 609" fill="none" xmlns="http://www.w3.org/2000/svg">
<path fill-rule="evenodd" clip-rule="evenodd" d="M-120.397 1.08502H119.7V57.4787H87.9223V189.142L105.025 207.403L77.9801 232.643L41.8228 268.737L37.2119 267.394C25.1081 264.134 12.62 262.408 -0.0601196 262.408C-12.7403 262.408 -25.2283 264.134 -37.3321 267.394L-41.9431 268.737L-69.8161 240.913L-105.722 207.403L-88.6193 189.142V57.4787H-120.397V1.08502ZM31.429 57.4787V199.625C20.9746 198.013 10.3892 197.201 -0.252289 197.201C-10.9413 197.201 -21.6021 198.02 -32.126 199.647V57.4787H31.429ZM86.9719 512.879L81.2082 516.907C57.3848 533.975 28.9505 542.989 -0.444397 542.989C-29.8393 542.989 -58.0815 533.975 -82.0969 516.907L-87.8606 512.879L-134.355 559.291L-126.862 565.045C-90.5504 593.237 -46.362 608.388 -0.444397 608.388C45.4731 608.388 89.8537 593.237 125.973 565.045L133.466 559.291L86.9719 512.879ZM-191.992 478.549C-198.116 462.907 -202.382 446.59 -204.633 430.073C-204.783 428.972 -204.924 427.87 -205.056 426.767C-205.957 419.396 -206.351 412.024 -206.397 404.494C-206.4 403.992 -206.401 403.49 -206.401 402.986C-206.401 378.653 -198.458 345.951 -189.136 321.068C-187.804 317.513 -186.444 314.118 -185.075 310.929L-134.739 361.177C-135.001 362.221 -135.362 363.606 -135.764 365.15L-135.765 365.153L-135.765 365.153C-136.842 369.282 -138.214 374.548 -138.774 377.479C-140.311 385.917 -141.079 394.548 -141.079 402.986C-141.079 415.452 -139.542 427.918 -136.084 439.809L-135.892 440.192C-131.473 456.11 -120.33 476.823 -110.724 490.248L-183.027 562.424L-191.8 571.181L-226.382 605.703C-272.876 550.66 -304 474.905 -304 402.986C-304 331.067 -278.832 262.024 -232.146 207.174C-221.387 194.324 -209.283 182.433 -196.411 171.502L-0.444611 356.382L195.714 171.502C208.586 182.433 220.498 194.324 231.449 207.174C277.943 262.024 303.303 331.067 303.303 402.986C303.303 474.905 272.179 550.852 225.493 605.703L190.911 571.181L182.244 562.531L109.834 490.248C118.24 478.501 127.822 461.175 133.046 446.363C133.793 444.247 134.45 442.182 135.003 440.192C138.065 428.865 139.776 417.201 139.978 405.357C139.991 404.568 139.998 403.777 139.998 402.986C139.998 392.078 137.644 377.5 134.868 365.931C134.471 364.278 134.066 362.687 133.658 361.177L183.994 310.929C194.945 336.437 205.32 375.177 205.32 402.986C205.32 428.877 200.517 454.576 190.911 478.549L215.31 502.906C218.048 497.045 220.536 491.082 222.771 485.035C232.458 458.83 237.404 431.035 237.404 402.986C237.404 351.012 220.69 300.957 189.374 259.723L-0.444611 449.398L-190.455 259.723C-221.771 300.957 -238.486 351.012 -238.486 402.986C-238.486 432.97 -232.896 462.381 -221.963 489.985C-220.436 493.839 -218.805 497.658 -217.071 501.439C-216.846 501.929 -216.62 502.418 -216.392 502.906L-191.992 478.549Z" fill="white"/>
<path fill-rule="evenodd" clip-rule="evenodd" d="M-120.354 0.331543H120.41V58.1725H88.7556V188.378L106.122 206.943L78.6055 232.656L42.2666 268.976L37.2354 267.509C37.2328 267.508 37.2301 267.508 37.2275 267.507C25.2382 264.274 12.871 262.563 0.315552 262.563C-12.2399 262.563 -24.6071 264.274 -36.5964 267.507C-36.5991 267.508 -36.6017 267.508 -36.6043 267.509L-41.6356 268.976L-69.7196 240.906L-106.066 206.943L-88.6992 188.378V58.1725H-120.354V0.331543ZM-118.758 1.9269V56.5771H-87.103V189.007L-103.81 206.868L-68.6199 239.75L-68.61 239.759L-68.6006 239.769L-41.1752 267.18L-37.028 265.971L-37.0202 265.969C-24.8981 262.699 -12.3885 260.968 0.315552 260.968C13.0196 260.968 25.5291 262.699 37.6512 265.969L37.6591 265.971L41.8063 267.18L77.4864 231.518L77.4959 231.509L77.5057 231.499L103.866 206.868L87.1594 189.007V56.5771H118.814V1.9269H-118.758ZM-32.4244 56.5771H32.4808V200.078L31.5609 199.936C21.1874 198.334 10.6838 197.528 0.124176 197.528C-10.4828 197.528 -21.0614 198.341 -31.5042 199.957L-32.4244 200.1V56.5771ZM-30.8282 58.1725V198.241C-20.6035 196.705 -10.2529 195.932 0.124176 195.932C10.4531 195.932 20.7295 196.698 30.8846 198.219V58.1725H-30.8282ZM-195.247 170.027L-0.0671997 354.396L195.304 170.027L195.849 170.491C208.704 181.421 220.6 193.311 231.536 206.16L231.538 206.161C277.974 261.012 303.303 330.055 303.303 401.975C303.303 473.916 272.217 549.842 225.604 604.675L225.044 605.335L108.742 489.094L109.135 488.544C118.669 475.204 129.717 454.63 134.086 438.871C137.321 426.887 139.033 414.525 139.033 401.975C139.033 389.637 135.989 372.496 132.746 360.483L132.625 360.038L183.927 308.762L184.391 309.845C195.326 335.347 205.699 374.096 205.699 401.975C205.699 427.72 200.961 453.279 191.483 477.147L214.609 500.26C228.788 469.47 236.063 435.91 236.063 401.975C236.063 350.616 219.665 301.145 188.932 260.3L-0.0671997 449.393L-189.258 260.3C-219.992 301.145 -236.39 350.616 -236.39 401.975C-236.39 436.098 -229.115 469.474 -214.935 500.26L-191.806 477.144C-198.234 460.588 -202.587 443.283 -204.68 425.788C-205.641 417.908 -206.025 410.033 -206.025 401.975C-206.025 374.096 -195.653 335.347 -184.718 309.845L-184.253 308.762L-132.958 360.031L-133.068 360.469C-133.329 361.51 -133.687 362.888 -134.086 364.419L-134.086 364.419L-134.09 364.434L-134.091 364.437L-134.091 364.439L-134.092 364.442C-135.167 368.571 -136.525 373.788 -137.076 376.679C-138.599 385.047 -139.36 393.606 -139.36 401.975C-139.36 414.319 -137.843 426.652 -134.436 438.409L-134.242 438.796L-134.222 438.87C-129.852 454.63 -118.804 475.203 -109.27 488.544L-108.877 489.094L-225.181 605.337L-225.741 604.673C-272.16 549.651 -303.247 473.917 -303.247 401.975C-303.247 330.058 -278.11 261.014 -231.482 206.162C-220.732 193.308 -208.643 181.417 -195.793 170.491L-195.247 170.027ZM-195.303 172.17C-207.893 182.92 -219.727 194.593 -230.26 207.188L-230.262 207.19L-230.264 207.193C-276.646 261.754 -301.65 330.432 -301.65 401.975C-301.65 473.204 -270.979 548.263 -225.08 602.98L-110.961 488.92C-120.46 475.491 -131.351 455.137 -135.739 439.371L-135.928 438.992L-135.948 438.923C-139.417 426.982 -140.956 414.472 -140.956 401.975C-140.956 393.511 -140.186 384.855 -138.647 376.391L-138.646 376.388L-138.645 376.385C-138.083 373.436 -136.712 368.168 -135.644 364.067L-135.642 364.062L-135.637 364.041L-135.637 364.04L-135.636 364.039L-135.636 364.037L-135.634 364.029C-135.287 362.698 -134.973 361.491 -134.727 360.519L-183.712 311.559C-194.422 336.941 -204.429 374.772 -204.429 401.975C-204.429 409.983 -204.048 417.793 -203.095 425.597L-203.095 425.599C-200.998 443.128 -196.613 460.469 -190.13 477.049L-189.94 477.535L-215.421 503.002L-215.902 501.969C-230.497 470.684 -237.986 436.712 -237.986 401.975C-237.986 349.965 -221.28 299.871 -189.979 258.606L-189.426 257.877L-0.0677795 447.136L189.099 257.876L189.652 258.606C220.954 299.871 237.659 349.965 237.659 401.975C237.659 436.52 230.171 470.683 215.576 501.969L215.094 503.002L189.611 477.531L189.806 477.043C199.336 453.23 204.103 427.699 204.103 401.975C204.103 374.772 194.096 336.941 183.386 311.559L134.406 360.514C137.625 372.579 140.63 389.599 140.63 401.975C140.63 414.672 138.897 427.175 135.626 439.291L135.625 439.296C131.251 455.072 120.34 475.47 110.826 488.92L224.947 602.982C271.034 548.454 301.707 473.206 301.707 401.975C301.707 330.434 276.512 261.756 230.321 207.193C219.594 194.592 207.941 182.917 195.359 172.17L-0.067749 356.591L-195.303 172.17ZM-87.2361 510.542L-80.9462 514.942L-80.9436 514.944L-80.941 514.946C-57.1534 531.874 -29.1822 540.812 -0.0672302 540.812C29.0494 540.812 57.2104 531.873 80.804 514.948L80.8079 514.945L80.8117 514.942L87.1017 510.542L134.532 557.947L126.353 564.236C126.352 564.236 126.351 564.237 126.351 564.237C90.2299 592.465 45.8485 607.634 -0.0672302 607.634C-45.985 607.634 -90.1748 592.464 -126.485 564.237L-134.666 557.947L-87.2361 510.542ZM-87.0544 512.616L-132.252 557.79L-125.509 562.975L-125.506 562.978C-89.4745 590.987 -45.6293 606.039 -0.0672302 606.039C45.496 606.039 89.5315 590.987 125.369 562.979L125.372 562.977L125.374 562.975L132.118 557.79L86.9199 512.616L81.7348 516.244C81.7335 516.245 81.7322 516.246 81.7309 516.246C57.8629 533.367 29.377 542.408 -0.0672302 542.408C-29.5147 542.408 -57.8093 533.366 -81.8668 516.245L-87.0544 512.616Z" fill="url(#paint0_linear)"/>
<defs>
<linearGradient id="paint0_linear" x1="207.532" y1="275.53" x2="-141.262" y2="607.146" gradientUnits="userSpaceOnUse">
<stop stop-color="#C9F4E9"/>
<stop offset="1" stop-color="#4098F4"/>
</linearGradient>
</defs>
</svg>
