<svg width="608" height="609" viewBox="0 0 608 609" fill="none" xmlns="http://www.w3.org/2000/svg">
<path fill-rule="evenodd" clip-rule="evenodd" d="M183.603 0.753479H423.7V57.1472H391.922V188.811L409.025 207.072L381.98 232.312L345.823 268.405L341.212 267.063C329.108 263.802 316.62 262.076 303.94 262.076C291.26 262.076 278.772 263.802 266.668 267.063L262.057 268.405L234.184 240.581L198.278 207.072L215.381 188.811V57.1472H183.603V0.753479ZM335.429 57.1472V199.293C324.975 197.681 314.389 196.87 303.748 196.87C293.059 196.87 282.398 197.688 271.874 199.315V57.1472H335.429ZM390.972 512.548L385.208 516.575C361.385 533.644 332.951 542.658 303.556 542.658C274.161 542.658 245.919 533.644 221.903 516.575L216.139 512.548L169.645 558.959L177.138 564.713C213.45 592.905 257.638 608.056 303.556 608.056C349.473 608.056 393.854 592.905 429.973 564.713L437.466 558.959L390.972 512.548ZM112.008 478.218C105.884 462.575 101.618 446.259 99.3669 429.742C99.2169 428.641 99.0758 427.539 98.9437 426.436C98.0431 419.064 97.6491 411.692 97.6034 404.163C97.6003 403.661 97.5988 403.158 97.5988 402.655C97.5988 378.322 105.542 345.62 114.864 320.736C116.196 317.181 117.556 313.786 118.925 310.598L169.261 360.845C168.999 361.889 168.638 363.274 168.236 364.819L168.235 364.821L168.235 364.822C167.158 368.951 165.786 374.217 165.226 377.147C163.689 385.586 162.921 394.216 162.921 402.655C162.921 415.121 164.458 427.587 167.916 439.477L168.108 439.861C172.527 455.779 183.67 476.492 193.276 489.917L120.973 562.092L112.2 570.85L77.618 605.371C31.124 550.329 0 474.574 0 402.655C0 330.735 25.1682 261.693 71.8543 206.842C82.6132 193.993 94.717 182.102 107.589 171.17L303.555 356.051L499.714 171.17C512.586 182.102 524.498 193.993 535.449 206.842C581.943 261.693 607.303 330.735 607.303 402.655C607.303 474.574 576.179 550.521 529.493 605.371L494.911 570.85L486.244 562.199L413.834 489.917C422.24 478.17 431.822 460.843 437.046 446.031C437.793 443.915 438.45 441.851 439.003 439.861C442.065 428.533 443.776 416.869 443.978 405.026C443.991 404.236 443.998 403.446 443.998 402.655C443.998 391.747 441.644 377.168 438.868 365.6C438.471 363.947 438.066 362.356 437.658 360.845L487.994 310.598C498.945 336.105 509.32 374.846 509.32 402.655C509.32 428.545 504.517 454.245 494.911 478.218L519.31 502.574C522.048 496.713 524.536 490.751 526.771 484.703C536.458 458.498 541.404 430.703 541.404 402.655C541.404 350.681 524.69 300.625 493.374 259.391L303.555 449.066L113.545 259.391C82.2289 300.625 65.5142 350.681 65.5142 402.655C65.5142 432.638 71.1044 462.05 82.0374 489.653C83.564 493.507 85.1948 497.327 86.9292 501.107C87.1538 501.597 87.3802 502.086 87.6084 502.574L112.008 478.218Z" fill="white"/>
<path fill-rule="evenodd" clip-rule="evenodd" d="M183.646 0H424.41V57.8409H392.756V188.046L410.122 206.612L382.605 232.324L346.267 268.644L341.235 267.177C341.233 267.177 341.23 267.176 341.228 267.175C329.238 263.942 316.871 262.232 304.316 262.232C291.76 262.232 279.393 263.942 267.404 267.175C267.401 267.176 267.398 267.177 267.396 267.177L262.364 268.644L234.28 240.575L197.934 206.612L215.301 188.046V57.8409H183.646V0ZM185.242 1.59536V56.2456H216.897V188.676L200.19 206.536L235.38 239.418L235.39 239.428L235.399 239.437L262.825 266.848L266.972 265.639L266.98 265.637C279.102 262.368 291.611 260.636 304.316 260.636C317.02 260.636 329.529 262.368 341.651 265.637L341.659 265.639L345.806 266.848L381.486 231.187L381.496 231.177L381.506 231.168L407.866 206.536L391.159 188.676V56.2456H422.814V1.59536H185.242ZM271.576 56.2456H336.481V199.746L335.561 199.604C325.187 198.002 314.684 197.196 304.124 197.196C293.517 197.196 282.939 198.01 272.496 199.626L271.576 199.768V56.2456ZM273.172 57.8409V197.909C283.397 196.373 293.747 195.601 304.124 195.601C314.453 195.601 324.729 196.366 334.885 197.888V57.8409H273.172ZM108.753 169.696L303.933 354.064L499.304 169.696L499.849 170.159C512.704 181.09 524.6 192.98 535.536 205.828L535.538 205.83C581.974 260.68 607.303 329.724 607.303 401.643C607.303 473.585 576.217 549.511 529.604 604.344L529.044 605.003L412.742 488.762L413.135 488.212C422.669 474.872 433.717 454.299 438.086 438.539C441.321 426.555 443.033 414.193 443.033 401.643C443.033 389.305 439.989 372.164 436.746 360.152L436.625 359.706L487.927 308.431L488.391 309.514C499.326 335.016 509.699 373.765 509.699 401.643C509.699 427.388 504.961 452.947 495.483 476.815L518.609 499.929C532.788 469.139 540.063 435.578 540.063 401.643C540.063 350.285 523.665 300.814 492.932 259.969L303.933 449.061L114.742 259.968C84.0084 300.814 67.6104 350.284 67.6104 401.643C67.6104 435.767 74.8851 469.143 89.0648 499.929L112.194 476.812C105.766 460.256 101.413 442.951 99.32 425.457C98.3586 417.576 97.9747 409.702 97.9747 401.643C97.9747 373.765 108.347 335.016 119.282 309.514L119.747 308.431L171.042 359.699L170.932 360.137C170.671 361.179 170.313 362.557 169.914 364.087L169.914 364.088L169.91 364.102L169.909 364.106L169.909 364.107L169.908 364.11C168.833 368.24 167.475 373.456 166.924 376.347C165.401 384.716 164.64 393.275 164.64 401.643C164.64 413.988 166.157 426.321 169.564 438.077L169.758 438.464L169.778 438.539C174.148 454.298 185.196 474.872 194.73 488.212L195.123 488.762L78.8192 605.005L78.2591 604.341C31.8398 549.319 0.753479 473.585 0.753479 401.643C0.753479 329.726 25.8899 260.682 72.518 205.83C83.2678 192.976 95.3569 181.086 108.207 170.159L108.753 169.696ZM108.697 171.838C96.107 182.589 84.2726 194.262 73.7402 206.856L73.7381 206.859L73.736 206.861C27.3543 261.422 2.34966 330.1 2.34966 401.643C2.34966 472.873 33.0213 547.931 78.9202 602.648L193.039 488.589C183.54 475.16 172.649 454.805 168.261 439.039L168.072 438.661L168.052 438.591C164.583 426.65 163.044 414.141 163.044 401.643C163.044 393.179 163.814 384.524 165.353 376.06L165.354 376.057L165.355 376.053C165.917 373.104 167.288 367.836 168.356 363.736L168.358 363.731L168.363 363.709L168.363 363.708L168.364 363.707L168.364 363.706L168.366 363.697C168.713 362.367 169.027 361.159 169.273 360.188L120.288 311.228C109.578 336.61 99.5709 374.441 99.5709 401.643C99.5709 409.651 99.9524 417.461 100.905 425.265L100.905 425.267C103.002 442.797 107.387 460.138 113.87 476.717L114.06 477.203L88.5794 502.67L88.0977 501.638C73.5031 470.352 66.0142 436.38 66.0142 401.643C66.0142 349.634 82.7201 299.54 114.021 258.274L114.574 257.545L303.932 446.805L493.099 257.545L493.652 258.274C524.954 299.54 541.659 349.634 541.659 401.643C541.659 436.189 534.171 470.352 519.576 501.638L519.094 502.67L493.611 477.2L493.806 476.712C503.336 452.899 508.103 427.368 508.103 401.643C508.103 374.441 498.096 336.61 487.386 311.228L438.406 360.182C441.625 372.247 444.63 389.268 444.63 401.643C444.63 414.34 442.897 426.844 439.626 438.959L439.625 438.965C435.251 454.741 424.34 475.139 414.826 488.589L528.947 602.651C575.034 548.123 605.707 472.874 605.707 401.643C605.707 330.102 580.512 261.424 534.321 206.862C523.594 194.26 511.941 182.586 499.359 171.838L303.932 356.259L108.697 171.838ZM216.764 510.21L223.054 514.611L223.056 514.612L223.059 514.614C246.847 531.542 274.818 540.481 303.933 540.481C333.049 540.481 361.21 531.541 384.804 514.616L384.808 514.613L384.812 514.611L391.102 510.21L438.532 557.616L430.353 563.904C430.352 563.905 430.351 563.905 430.351 563.906C394.23 592.134 349.849 607.303 303.933 607.303C258.015 607.303 213.825 592.132 177.515 563.905L169.334 557.616L216.764 510.21ZM216.946 512.285L171.748 557.459L178.491 562.643L178.494 562.646C214.526 590.656 258.371 605.708 303.933 605.708C349.496 605.708 393.531 590.655 429.369 562.647L429.372 562.645L429.374 562.643L436.118 557.459L390.92 512.285L385.735 515.912C385.733 515.913 385.732 515.914 385.731 515.915C361.863 533.036 333.377 542.076 303.933 542.076C274.485 542.076 246.191 533.034 222.133 515.914L216.946 512.285Z" fill="url(#paint0_linear)"/>
<defs>
<linearGradient id="paint0_linear" x1="511.532" y1="275.199" x2="162.738" y2="606.815" gradientUnits="userSpaceOnUse">
<stop stop-color="#C9F4E9"/>
<stop offset="1" stop-color="#4098F4"/>
</linearGradient>
</defs>
</svg>
