<svg width="608" height="609" viewBox="0 0 608 609" fill="none" xmlns="http://www.w3.org/2000/svg">
<path fill-rule="evenodd" clip-rule="evenodd" d="M183.603 0.753479H423.7V57.1472H391.922V188.811L409.025 207.072L381.98 232.312L345.823 268.405L341.212 267.063C329.108 263.802 316.62 262.076 303.94 262.076C291.26 262.076 278.772 263.802 266.668 267.063L262.057 268.405L234.184 240.581L198.278 207.072L215.381 188.811V57.1472H183.603V0.753479ZM335.429 57.1472V199.293C324.975 197.681 314.389 196.87 303.748 196.87C293.059 196.87 282.398 197.688 271.874 199.315V57.1472H335.429ZM390.972 512.548L385.208 516.575C361.385 533.644 332.951 542.658 303.556 542.658C274.161 542.658 245.919 533.644 221.903 516.575L216.139 512.548L169.645 558.959L177.138 564.713C213.45 592.905 257.638 608.056 303.556 608.056C349.473 608.056 393.854 592.905 429.973 564.713L437.466 558.959L390.972 512.548ZM112.008 478.218C105.884 462.575 101.618 446.259 99.3669 429.742C99.2169 428.641 99.0758 427.539 98.9437 426.436C98.0431 419.064 97.6491 411.692 97.6034 404.163C97.6003 403.661 97.5988 403.158 97.5988 402.655C97.5988 378.322 105.542 345.62 114.864 320.736C116.196 317.181 117.556 313.786 118.925 310.598L169.261 360.845C168.999 361.889 168.638 363.274 168.236 364.819L168.235 364.821L168.235 364.822C167.158 368.951 165.786 374.217 165.226 377.147C163.689 385.586 162.921 394.216 162.921 402.655C162.921 415.121 164.458 427.587 167.916 439.477L168.108 439.861C172.527 455.779 183.67 476.492 193.276 489.917L120.973 562.092L112.2 570.85L77.618 605.371C31.124 550.329 0 474.574 0 402.655C0 330.735 25.1682 261.693 71.8543 206.842C82.6132 193.993 94.717 182.102 107.589 171.17L303.555 356.051L499.714 171.17C512.586 182.102 524.498 193.993 535.449 206.842C581.943 261.693 607.303 330.735 607.303 402.655C607.303 474.574 576.179 550.521 529.493 605.371L494.911 570.85L486.244 562.199L413.834 489.917C422.24 478.17 431.822 460.843 437.046 446.031C437.793 443.915 438.45 441.851 439.003 439.861C442.065 428.533 443.776 416.869 443.978 405.026C443.991 404.236 443.998 403.446 443.998 402.655C443.998 391.747 441.644 377.168 438.868 365.6C438.471 363.947 438.066 362.356 437.658 360.845L487.994 310.598C498.945 336.105 509.32 374.846 509.32 402.655C509.32 428.545 504.517 454.245 494.911 478.218L519.31 502.574C522.048 496.713 524.536 490.751 526.771 484.703C536.458 458.498 541.404 430.703 541.404 402.655C541.404 350.681 524.69 300.625 493.374 259.391L303.555 449.066L113.545 259.391C82.2289 300.625 65.5142 350.681 65.5142 402.655C65.5142 432.638 71.1044 462.05 82.0374 489.653C83.564 493.507 85.1948 497.327 86.9292 501.107C87.1538 501.597 87.3802 502.086 87.6084 502.574L112.008 478.218Z" fill="white"/>
<path fill-rule="evenodd" clip-rule="evenodd" d="M183.646 0H424.41V57.8409H392.756V188.046L410.122 206.612L382.605 232.324L346.267 268.644L341.235 267.177C341.233 267.177 341.23 267.176 341.228 267.175C329.238 263.942 316.871 262.232 304.316 262.232C291.76 262.232 279.393 263.942 267.404 267.175C267.401 267.176 267.398 267.177 267.396 267.177L262.364 268.644L234.28 240.575L197.934 206.612L215.301 188.046V57.8409H183.646V0ZM185.242 1.59536V56.2456H216.897V188.676L200.19 206.536L235.38 239.418L235.39 239.428L235.399 239.437L262.825 266.848L266.972 265.639L266.98 265.637C279.102 262.368 291.611 260.636 304.316 260.636C317.02 260.636 329.529 262.368 341.651 265.637L341.659 265.639L345.806 266.848L381.486 231.187L381.496 231.177L381.506 231.168L407.866 206.536L391.159 188.676V56.2456H422.814V1.59536H185.242ZM271.576 56.2456H336.481V199.746L335.561 199.604C325.187 198.002 314.684 197.196 304.124 197.196C293.517 197.196 282.939 198.01 272.496 199.626L271.576 199.768V56.2456ZM273.172 57.8409V197.909C283.397 196.373 293.747 195.601 304.124 195.601C314.453 195.601 324.729 196.366 334.885 197.888V57.8409H273.172ZM108.753 169.696L303.933 354.064L499.304 169.696L499.849 170.159C512.704 181.09 524.6 192.98 535.536 205.828L535.538 205.83C581.974 260.68 607.303 329.724 607.303 401.643C607.303 473.585 576.217 549.511 529.604 604.344L529.044 605.003L412.742 488.762L413.135 488.212C422.669 474.872 433.717 454.299 438.086 438.539C441.321 426.555 443.033 414.193 443.033 401.643C443.033 389.305 439.989 372.164 436.746 360.152L436.625 359.706L487.927 308.431L488.391 309.514C499.326 335.016 509.699 373.765 509.699 401.643C509.699 427.388 504.961 452.947 495.483 476.815L518.609 499.929C532.788 469.139 540.063 435.578 540.063 401.643C540.063 350.285 523.665 300.814 492.932 259.969L303.933 449.061L114.742 259.968C84.0084 300.814 67.6104 350.284 67.6104 401.643C67.6104 435.767 74.8851 469.143 89.0648 499.929L112.194 476.812C105.766 460.256 101.413 442.951 99.32 425.457C98.3586 417.576 97.9747 409.702 97.9747 401.643C97.9747 373.765 108.347 335.016 119.282 309.514L119.747 308.431L171.042 359.699L170.932 360.137C170.671 361.179 170.313 362.557 169.914 364.087L169.914 364.088L169.91 364.102L169.909 364.106L169.909 364.107L169.908 364.11C168.833 368.24 167.475 373.456 166.924 376.347C165.401 384.716 164.64 393.275 164.64 401.643C164.64 413.988 166.157 426.321 169.564 438.077L169.758 438.464L169.778 438.539C174.148 454.298 185.196 474.872 194.73 488.212L195.123 488.762L78.8192 605.005L78.2591 604.341C31.8398 549.319 0.753479 473.585 0.753479 401.643C0.753479 329.726 25.8899 260.682 72.518 205.83C83.2678 192.976 95.3569 181.086 108.207 170.159L108.753 169.696ZM108.697 171.838C96.107 182.589 84.2726 194.262 73.7402 206.856L73.7381 206.859L73.736 206.861C27.3543 261.422 2.34966 330.1 2.34966 401.643C2.34966 472.873 33.0213 547.931 78.9202 602.648L193.039 488.589C183.54 475.16 172.649 454.805 168.261 439.039L168.072 438.661L168.052 438.591C164.583 426.65 163.044 414.141 163.044 401.643C163.044 393.179 163.814 384.524 165.353 376.06L165.354 376.057L165.355 376.053C165.917 373.104 167.288 367.836 168.356 363.736L168.358 363.731L168.363 363.709L168.363 363.708L168.364 363.707L168.364 363.706L168.366 363.697C168.713 362.367 169.027 361.159 169.273 360.188L120.288 311.228C109.578 336.61 99.5709 374.441 99.5709 401.643C99.5709 409.651 99.9524 417.461 100.905 425.265L100.905 425.267C103.002 442.797 107.387 460.138 113.87 476.717L114.06 477.203L88.5794 502.67L88.0977 501.638C73.5031 470.352 66.0142 436.38 66.0142 401.643C66.0142 349.634 82.7201 299.54 114.021 258.274L114.574 257.545L303.932 446.805L493.099 257.545L493.652 258.274C524.954 299.54 541.659 349.634 541.659 401.643C541.659 436.189 534.171 470.352 519.576 501.638L519.094 502.67L493.611 477.2L493.806 476.712C503.336 452.899 508.103 427.368 508.103 401.643C508.103 374.441 498.096 336.61 487.386 311.228L438.406 360.182C441.625 372.247 444.63 389.268 444.63 401.643C444.63 414.34 442.897 426.844 439.626 438.959L439.625 438.965C435.251 454.741 424.34 475.139 414.826 488.589L528.947 602.651C575.034 548.123 605.707 472.874 605.707 401.643C605.707 330.102 580.512 261.424 534.321 206.862C523.594 194.26 511.941 182.586 499.359 171.838L303.932 356.259L108.697 171.838ZM216.764 510.21L223.054 514.611L223.056 514.612L223.059 514.614C246.847 531.542 274.818 540.481 303.933 540.481C333.049 540.481 361.21 531.541 384.804 514.616L384.808 514.613L384.812 514.611L391.102 510.21L438.532 557.616L430.353 563.904C430.352 563.905 430.351 563.905 430.351 563.906C394.23 592.134 349.849 607.303 303.933 607.303C258.015 607.303 213.825 592.132 177.515 563.905L169.334 557.616L216.764 510.21ZM216.946 512.285L171.748 557.459L178.491 562.643L178.494 562.646C214.526 590.656 258.371 605.708 303.933 605.708C349.496 605.708 393.531 590.655 429.369 562.647L429.372 562.645L429.374 562.643L436.118 557.459L390.92 512.285L385.735 515.912C385.733 515.913 385.732 515.914 385.731 515.915C361.863 533.036 333.377 542.076 303.933 542.076C274.485 542.076 246.191 533.034 222.133 515.914L216.946 512.285Z" fill="url(#paint0_linear)"/>
<path d="M488.008 486.328V548.768C488.008 552.946 484.642 556.428 480.348 556.428H417.908C413.73 556.428 410.248 553.062 410.248 548.768V486.328C410.248 485.4 410.48 484.471 410.713 483.543C411.873 480.641 414.659 478.668 417.908 478.668H480.348C484.526 478.668 488.008 482.15 488.008 486.328Z" fill="#BCF2EB"/>
<path d="M486.035 486.328V548.768C486.035 552.946 482.669 556.428 478.375 556.428H415.935C411.757 556.428 408.275 553.062 408.275 548.768V486.328C408.275 482.15 411.757 478.668 415.935 478.668H478.375C482.553 478.668 486.035 482.15 486.035 486.328Z" fill="#BCF2EB"/>
<path d="M488.008 486.328V548.768C488.008 552.946 484.642 556.428 480.348 556.428H417.908C413.73 556.428 410.248 553.062 410.248 548.768V486.328C410.248 485.4 410.48 484.471 410.713 483.543C411.873 480.641 414.659 478.668 417.908 478.668H480.348C484.526 478.668 488.008 482.15 488.008 486.328Z" fill="#BCF2EB"/>
<path d="M478.607 488.301H419.649V535.421H478.607V488.301Z" fill="white"/>
<path d="M478.723 488.301H476.634V535.421H478.723V488.301Z" fill="#F7FFFE"/>
<path opacity="0.502" d="M488.008 486.328V548.768C488.008 552.946 484.642 556.428 480.348 556.428H475.938C474.777 552.598 474.081 548.42 471.992 545.17C468.51 539.948 462.475 537.859 456.44 535.537C454.235 534.725 451.914 533.797 449.941 532.752C442.977 529.038 437.406 522.655 434.737 515.227C432.067 507.799 432.3 499.559 429.398 492.247C428.818 490.971 428.121 489.578 427.309 488.417C424.64 484.471 420.578 481.338 415.935 481.686C414.078 481.802 412.337 482.614 410.829 483.659C409.9 484.355 408.972 485.4 408.391 486.328C408.391 482.15 411.873 478.668 416.051 478.668H480.464C484.526 478.668 488.008 482.15 488.008 486.328Z" fill="#F7FFFE"/>
<path d="M445.995 544.358H417.096V546.447H445.995V544.358Z" fill="#BCF2EB"/>
<path d="M439.495 549H417.096V551.089H439.495V549Z" fill="#BCF2EB"/>
<path d="M437.638 511.977L447.155 523.003L462.823 502.577" stroke="#BCF2EB" stroke-width="5" stroke-miterlimit="10" stroke-linecap="round" stroke-linejoin="round"/>
<path d="M408.739 564.204C416.88 564.204 423.479 557.605 423.479 549.464C423.479 541.324 416.88 534.725 408.739 534.725C400.599 534.725 394 541.324 394 549.464C394 557.605 400.599 564.204 408.739 564.204Z" fill="#FCBE1C"/>
<path d="M412.989 559.682C418.609 557.338 421.265 550.882 418.921 545.262C416.578 539.641 410.122 536.985 404.501 539.329C398.881 541.673 396.224 548.129 398.568 553.749C400.912 559.37 407.368 562.026 412.989 559.682Z" fill="#FB8400"/>
<path d="M411.409 550.509L410.48 549.581C410.364 549.929 410.248 550.277 409.9 550.509C409.204 551.205 408.275 551.321 407.347 550.973C407.115 550.857 406.883 550.741 406.766 550.509L403.865 547.608C403.053 546.795 402.937 545.286 403.865 544.474C404.677 543.662 406.186 543.662 406.999 544.474L409.9 547.375C410.132 547.608 410.248 547.724 410.364 547.956C410.596 548.072 410.829 548.188 410.945 548.42L411.757 549.232C411.757 548.536 411.641 547.84 411.293 547.143C411.177 546.911 410.945 546.679 410.829 546.563L407.927 543.662C406.65 542.385 404.445 542.385 403.053 543.662C401.776 544.938 401.776 547.143 403.053 548.536L405.954 551.437C406.186 551.67 406.302 551.786 406.534 551.902C407.115 552.25 407.927 552.482 408.623 552.366C409.436 552.25 410.132 552.018 410.712 551.321C411.061 551.089 411.293 550.857 411.409 550.509Z" fill="white"/>
<path d="M414.775 550.509L411.873 547.608C411.641 547.375 411.525 547.259 411.293 547.143C410.713 546.795 409.9 546.563 409.204 546.679C408.74 546.679 408.275 546.795 407.927 547.027C407.579 547.143 407.347 547.375 406.999 547.608C406.418 548.188 406.07 549 406.07 549.813C406.07 550.509 406.186 551.205 406.65 551.902C406.767 552.134 406.883 552.25 407.115 552.482L410.016 555.384C411.293 556.66 413.498 556.66 414.775 555.384C416.051 553.991 416.051 551.786 414.775 550.509ZM410.829 554.455L407.927 551.554C407.695 551.321 407.579 551.205 407.463 550.973C407.115 550.161 407.231 549.116 407.927 548.42C408.159 548.188 408.507 547.956 408.856 547.84C409.32 547.724 409.9 547.724 410.48 547.956C410.713 548.072 410.945 548.188 411.061 548.42L413.962 551.321C414.078 551.438 414.194 551.554 414.194 551.67C414.775 552.482 414.775 553.759 413.962 554.571C413.034 555.384 411.641 555.384 410.829 554.455Z" fill="white"/>
<path d="M414.065 303.82V354.073C414.065 357.439 411.279 360.224 407.914 360.224H357.776C354.41 360.224 351.625 357.439 351.625 354.073V303.82C351.625 303.007 351.741 302.311 352.089 301.614C353.018 299.293 355.223 297.668 357.776 297.668H408.03C411.279 297.668 414.065 300.454 414.065 303.82Z" fill="#74E2EB"/>
<path d="M412.556 303.82V354.073C412.556 357.439 409.77 360.224 406.405 360.224H356.151C352.785 360.224 350 357.439 350 354.073V303.82C350 300.454 352.785 297.668 356.151 297.668H406.405C409.77 297.668 412.556 300.454 412.556 303.82Z" fill="#BCF2EB"/>
<path d="M414.065 303.82V354.073C414.065 357.439 411.279 360.224 407.914 360.224H357.776C354.41 360.224 351.625 357.439 351.625 354.073V303.82C351.625 303.007 351.741 302.311 352.089 301.614C353.018 299.293 355.223 297.668 357.776 297.668H408.03C411.279 297.668 414.065 300.454 414.065 303.82Z" fill="#74E2EB"/>
<path d="M406.637 305.444H359.169V343.396H406.637V305.444Z" fill="white"/>
<path d="M406.753 305.444H405.012V343.396H406.753V305.444Z" fill="#F7FFFE"/>
<path opacity="0.502" d="M414.065 303.82V354.073C414.065 357.439 411.279 360.224 407.913 360.224H404.316C403.387 357.091 402.807 353.841 401.066 351.172C398.281 346.994 393.406 345.253 388.532 343.396C386.675 342.699 384.934 342.003 383.309 341.075C377.622 338.173 373.212 332.95 371.123 327.031C369.034 321.112 369.15 314.381 366.829 308.578C366.364 307.533 365.9 306.489 365.204 305.444C362.999 302.195 359.749 299.758 356.035 300.106C354.526 300.222 353.134 300.802 351.973 301.731C351.161 302.311 350.464 303.123 350 303.936C350 300.57 352.785 297.785 356.151 297.785H407.913C411.279 297.668 414.065 300.454 414.065 303.82Z" fill="#F7FFFE"/>
<path d="M388.067 348.154H359.169V350.243H388.067V348.154Z" fill="#BCF2EB"/>
<path d="M381.568 352.797H359.169V354.886H381.568V352.797Z" fill="#BCF2EB"/>
<path d="M373.56 324.478L381.22 333.299L393.87 316.934" stroke="#BCF2EB" stroke-width="4" stroke-miterlimit="10" stroke-linecap="round" stroke-linejoin="round"/>
<path d="M577.857 163.515V232.222C577.857 236.864 574.143 240.694 569.384 240.694H500.678C496.035 240.694 492.205 236.98 492.205 232.222V163.515C492.205 162.47 492.437 161.425 492.785 160.497C493.946 157.363 497.08 155.158 500.678 155.158H569.384C574.027 155.042 577.857 158.756 577.857 163.515Z" fill="#BCF2EB"/>
<path d="M575.652 163.515V232.222C575.652 236.864 571.938 240.694 567.179 240.694H498.472C493.83 240.694 490 236.98 490 232.222V163.398C490 158.756 493.83 155.042 498.472 155.042H567.179C571.938 155.042 575.652 158.756 575.652 163.515Z" fill="#74E2EB"/>
<path d="M577.857 163.515V232.222C577.857 236.864 574.143 240.694 569.384 240.694H500.678C496.035 240.694 492.205 236.98 492.205 232.222V163.515C492.205 162.47 492.437 161.425 492.785 160.497C493.946 157.363 497.08 155.158 500.678 155.158H569.384C574.027 155.042 577.857 158.756 577.857 163.515Z" fill="#BCF2EB"/>
<path d="M567.528 165.604H502.534V217.598H567.528V165.604Z" fill="white"/>
<path d="M567.644 165.604H565.322V217.598H567.644V165.604Z" fill="#F7FFFE"/>
<path d="M550.003 179.531H521.916V208.778H550.003V179.531Z" fill="#74E2EB"/>
<path d="M540.37 184.521L535.727 176.629L531.549 184.057L530.04 183.129L535.727 173.147L541.762 183.709L540.37 184.521Z" fill="#74E2EB"/>
<path d="M546.521 183.245H525.282V205.064H546.521V183.245Z" fill="white"/>
<path opacity="0.502" d="M577.857 163.515V232.222C577.857 236.864 574.143 240.694 569.385 240.694H564.51C563.233 236.4 562.537 231.989 560.1 228.276C556.27 222.473 549.655 220.151 543.039 217.598C540.602 216.67 538.165 215.625 535.843 214.464C528.184 210.402 522.032 203.439 519.131 195.199C516.23 187.075 516.462 177.906 513.212 169.898C512.632 168.389 511.819 166.996 511.007 165.604C508.105 161.193 503.579 157.828 498.473 158.176C496.383 158.292 494.526 159.104 492.902 160.381C491.857 161.193 490.929 162.238 490.232 163.398C490.232 158.756 494.062 155.042 498.705 155.042H569.617C574.027 155.042 577.857 158.756 577.857 163.515Z" fill="#F7FFFE"/>
<path d="M542.111 224.097H502.534V226.999H542.111V224.097Z" fill="#74E2EB"/>
<path d="M533.174 230.481H502.534V233.382H533.174V230.481Z" fill="#74E2EB"/>
<path d="M524.934 173.147C533.074 173.147 539.673 166.548 539.673 158.408C539.673 150.268 533.074 143.668 524.934 143.668C516.793 143.668 510.194 150.268 510.194 158.408C510.194 166.548 516.793 173.147 524.934 173.147Z" fill="#FCBE1C"/>
<path d="M524.934 169.434C531.023 169.434 535.959 164.497 535.959 158.408C535.959 152.319 531.023 147.382 524.934 147.382C518.845 147.382 513.908 152.319 513.908 158.408C513.908 164.497 518.845 169.434 524.934 169.434Z" fill="#FB8400"/>
<path d="M527.603 159.452L526.675 158.524C526.559 158.872 526.443 159.22 526.094 159.452C525.398 160.149 524.47 160.265 523.541 159.917C523.309 159.801 523.077 159.685 522.961 159.452L520.059 156.551C519.247 155.739 519.131 154.23 520.059 153.417C520.872 152.605 522.381 152.605 523.193 153.417L526.094 156.319C526.327 156.551 526.443 156.667 526.559 156.899C526.791 157.015 527.023 157.131 527.139 157.363L527.951 158.176C527.951 157.479 527.835 156.783 527.487 156.087C527.371 155.855 527.139 155.623 527.023 155.506L524.121 152.605C522.845 151.328 520.64 151.328 519.247 152.605C517.97 153.882 517.97 156.087 519.247 157.479L522.148 160.381C522.381 160.613 522.497 160.729 522.729 160.845C523.309 161.193 524.121 161.425 524.818 161.309C525.63 161.193 526.327 160.961 526.907 160.265C527.255 160.033 527.487 159.685 527.603 159.452Z" fill="white"/>
<path d="M530.969 159.452L528.067 156.551C527.835 156.319 527.719 156.203 527.487 156.087C526.907 155.739 526.094 155.506 525.398 155.623C524.934 155.623 524.47 155.739 524.121 155.971C523.773 156.087 523.541 156.319 523.193 156.551C522.613 157.131 522.265 157.944 522.265 158.756C522.265 159.452 522.381 160.149 522.845 160.845C522.961 161.077 523.077 161.193 523.309 161.425L526.211 164.327C527.487 165.604 529.692 165.604 530.969 164.327C532.246 162.934 532.246 160.729 530.969 159.452ZM526.907 163.398L524.005 160.497C523.773 160.265 523.657 160.149 523.541 159.917C523.193 159.104 523.309 158.06 524.005 157.363C524.238 157.131 524.586 156.899 524.934 156.783C525.398 156.667 525.978 156.667 526.559 156.899C526.791 157.015 527.023 157.131 527.139 157.363L530.04 160.265C530.157 160.381 530.273 160.497 530.273 160.613C530.853 161.425 530.853 162.702 530.04 163.515C529.228 164.327 527.835 164.327 526.907 163.398Z" fill="white"/>
<path d="M575.187 247.425C583.328 247.425 589.927 240.826 589.927 232.686C589.927 224.545 583.328 217.946 575.187 217.946C567.047 217.946 560.448 224.545 560.448 232.686C560.448 240.826 567.047 247.425 575.187 247.425Z" fill="#FCBE1C"/>
<path d="M575.187 243.711C581.277 243.711 586.213 238.775 586.213 232.686C586.213 226.596 581.277 221.66 575.187 221.66C569.098 221.66 564.162 226.596 564.162 232.686C564.162 238.775 569.098 243.711 575.187 243.711Z" fill="#FB8400"/>
<path d="M577.741 233.614L576.812 232.686C576.696 233.034 576.58 233.382 576.232 233.614C575.536 234.311 574.607 234.427 573.679 234.078C573.447 233.962 573.214 233.846 573.098 233.614L570.197 230.713C569.385 229.9 569.268 228.392 570.197 227.579C571.009 226.767 572.518 226.767 573.331 227.579L576.232 230.481C576.464 230.713 576.58 230.829 576.696 231.061C576.928 231.177 577.16 231.293 577.277 231.525L578.089 232.338C578.089 231.641 577.973 230.945 577.625 230.249C577.509 230.016 577.277 229.784 577.16 229.668L574.259 226.767C572.982 225.49 570.777 225.49 569.384 226.767C568.108 228.043 568.108 230.249 569.384 231.641L572.286 234.543C572.518 234.775 572.634 234.891 572.866 235.007C573.447 235.355 574.259 235.587 574.955 235.471C575.768 235.355 576.464 235.123 577.044 234.427C577.393 234.311 577.625 233.962 577.741 233.614Z" fill="white"/>
<path d="M581.107 233.73L578.205 230.829C577.973 230.597 577.857 230.481 577.625 230.365C577.044 230.016 576.232 229.784 575.536 229.9C575.071 229.9 574.607 230.016 574.259 230.249C573.911 230.365 573.679 230.597 573.331 230.829C572.75 231.409 572.402 232.222 572.402 233.034C572.402 233.73 572.518 234.427 572.982 235.123C573.098 235.355 573.215 235.471 573.447 235.703L576.348 238.605C577.625 239.881 579.83 239.881 581.107 238.605C582.499 237.212 582.499 235.007 581.107 233.73ZM577.161 237.676L574.259 234.775C574.027 234.543 573.911 234.427 573.795 234.195C573.447 233.382 573.563 232.338 574.259 231.641C574.491 231.409 574.839 231.177 575.188 231.061C575.652 230.945 576.232 230.945 576.812 231.177C577.044 231.293 577.277 231.409 577.393 231.641L580.294 234.543C580.41 234.659 580.526 234.775 580.526 234.891C581.107 235.703 581.107 236.98 580.294 237.792C579.366 238.489 577.973 238.489 577.161 237.676Z" fill="white"/>
<path d="M396.066 106.543V146.583C396.066 149.253 393.861 151.458 391.191 151.458H351.151C348.482 151.458 346.277 149.253 346.277 146.583V106.543C346.277 105.963 346.393 105.382 346.625 104.802C347.321 102.945 349.062 101.668 351.151 101.668H391.191C393.861 101.668 396.066 103.874 396.066 106.543Z" fill="#F7FFFE"/>
<path d="M394.789 106.543V146.583C394.789 149.253 392.584 151.458 389.915 151.458H349.874C347.205 151.458 345 149.253 345 146.583V106.543C345 103.874 347.205 101.668 349.874 101.668H389.915C392.7 101.668 394.789 103.874 394.789 106.543Z" fill="#BCF2EB"/>
<path d="M396.066 106.543V146.583C396.066 149.253 393.861 151.458 391.191 151.458H351.151C348.482 151.458 346.277 149.253 346.277 146.583V106.543C346.277 105.963 346.393 105.382 346.625 104.802C347.321 102.945 349.062 101.668 351.151 101.668H391.191C393.861 101.668 396.066 103.874 396.066 106.543Z" fill="#F7FFFE"/>
<path d="M390.031 107.82H352.312V137.995H390.031V107.82Z" fill="white"/>
<path d="M390.263 107.82H388.87V137.995H390.263V107.82Z" fill="#F7FFFE"/>
<path opacity="0.502" d="M396.066 106.543V146.583C396.066 149.253 393.861 151.458 391.191 151.458H388.406C387.71 149.021 387.245 146.351 385.853 144.262C383.648 140.896 379.702 139.504 375.872 138.111C374.479 137.531 372.97 136.95 371.694 136.254C367.167 133.933 363.685 129.755 361.945 124.996C360.32 120.238 360.436 114.899 358.463 110.257C358.115 109.444 357.65 108.632 357.186 107.82C355.445 105.266 352.892 103.293 349.874 103.525C348.714 103.641 347.553 104.106 346.625 104.802C346.045 105.266 345.464 105.847 345 106.543C345 103.874 347.205 101.668 349.874 101.668H391.075C393.861 101.668 396.066 103.874 396.066 106.543Z" fill="#BCF2EB"/>
<path d="M375.291 141.825H352.312V143.45H375.291V141.825Z" fill="#BCF2EB"/>
<path d="M370.185 145.539H352.312V147.164H370.185V145.539Z" fill="#BCF2EB"/>
<path d="M378.077 122.211C378.077 125.925 375.059 129.058 371.229 129.058C367.515 129.058 364.382 126.041 364.382 122.211C364.382 118.497 367.399 115.363 371.229 115.363C375.059 115.479 378.077 118.497 378.077 122.211Z" stroke="#BCF2EB" stroke-width="3" stroke-miterlimit="10" stroke-linecap="round" stroke-linejoin="round"/>
<defs>
<linearGradient id="paint0_linear" x1="511.532" y1="275.199" x2="162.738" y2="606.815" gradientUnits="userSpaceOnUse">
<stop stop-color="#C9F4E9"/>
<stop offset="1" stop-color="#4098F4"/>
</linearGradient>
</defs>
</svg>
