<svg width="95" height="86" viewBox="0 0 95 86" fill="none" xmlns="http://www.w3.org/2000/svg">
<path d="M94.0078 7.65991V70.0997C94.0078 74.2778 90.6421 77.7596 86.3479 77.7596H23.9081C19.73 77.7596 16.2482 74.3939 16.2482 70.0997V7.65991C16.2482 6.73143 16.4803 5.80297 16.7125 4.8745C17.873 1.97302 20.6585 0 23.9081 0H86.3479C90.526 0 94.0078 3.48178 94.0078 7.65991Z" fill="#BCF2EB"/>
<path d="M92.0349 7.65991V70.0997C92.0349 74.2778 88.6692 77.7596 84.375 77.7596H21.9352C17.7571 77.7596 14.2753 74.3939 14.2753 70.0997V7.65991C14.2753 3.48178 17.7571 0 21.9352 0H84.375C88.5531 0 92.0349 3.48178 92.0349 7.65991Z" fill="#BCF2EB"/>
<path d="M94.0078 7.65991V70.0997C94.0078 74.2778 90.6421 77.7596 86.3479 77.7596H23.9081C19.73 77.7596 16.2482 74.3939 16.2482 70.0997V7.65991C16.2482 6.73143 16.4803 5.80297 16.7125 4.8745C17.873 1.97302 20.6585 0 23.9081 0H86.3479C90.526 0 94.0078 3.48178 94.0078 7.65991Z" fill="#BCF2EB"/>
<path d="M84.6071 9.63292H25.6491V56.7529H84.6071V9.63292Z" fill="white"/>
<path d="M84.7232 9.63292H82.6341V56.7529H84.7232V9.63292Z" fill="#F7FFFE"/>
<path opacity="0.502" d="M94.0078 7.65991V70.0997C94.0078 74.2778 90.6421 77.7596 86.3479 77.7596H81.9377C80.7771 73.9296 80.0807 69.7515 77.9917 66.5019C74.5099 61.2792 68.4748 59.1901 62.4398 56.8689C60.2346 56.0565 57.9135 55.1281 55.9404 54.0835C48.9769 50.3696 43.4061 43.9864 40.7367 36.5586C38.0674 29.1308 38.2995 20.8906 35.398 13.5789C34.8177 12.3023 34.1213 10.9095 33.3089 9.74895C30.6396 5.80295 26.5775 2.66937 21.9351 3.01754C20.0782 3.1336 18.3373 3.94603 16.8285 4.99056C15.9001 5.68692 14.9716 6.73143 14.3913 7.65991C14.3913 3.48178 17.8731 0 22.0512 0H86.464C90.5261 0 94.0078 3.48178 94.0078 7.65991Z" fill="#F7FFFE"/>
<path d="M51.9945 65.6894H23.0958V67.7785H51.9945V65.6894Z" fill="#BCF2EB"/>
<path d="M45.4952 70.3318H23.0958V72.4209H45.4952V70.3318Z" fill="#BCF2EB"/>
<path d="M43.6382 33.309L53.155 44.3346L68.823 23.9082" stroke="#BCF2EB" stroke-width="5" stroke-miterlimit="10" stroke-linecap="round" stroke-linejoin="round"/>
<path d="M14.7395 85.5355C22.8799 85.5355 29.479 78.9364 29.479 70.796C29.479 62.6556 22.8799 56.0565 14.7395 56.0565C6.5991 56.0565 0 62.6556 0 70.796C0 78.9364 6.5991 85.5355 14.7395 85.5355Z" fill="#FCBE1C"/>
<path d="M18.9886 81.0137C24.609 78.6699 27.2653 72.2137 24.9215 66.5933C22.5777 60.9729 16.1215 58.3167 10.5011 60.6604C4.8807 63.0042 2.22446 69.4604 4.56822 75.0808C6.91198 80.7012 13.3682 83.3575 18.9886 81.0137Z" fill="#FB8400"/>
<path d="M17.4088 71.8405L16.4804 70.9121C16.3643 71.2603 16.2482 71.6084 15.9001 71.8405C15.2037 72.5369 14.2752 72.653 13.3468 72.3048C13.1147 72.1888 12.8825 72.0727 12.7665 71.8405L9.865 68.9391C9.05259 68.1267 8.93653 66.6179 9.865 65.8055C10.6774 64.9931 12.1862 64.9931 12.9986 65.8055L15.9001 68.707C16.1322 68.9391 16.2482 69.0552 16.3643 69.2873C16.5964 69.4033 16.8285 69.5194 16.9446 69.7515L17.757 70.5639C17.757 69.8676 17.641 69.1712 17.2928 68.4748C17.1767 68.2427 16.9446 68.0106 16.8285 67.8945L13.9271 64.9931C12.6504 63.7164 10.4453 63.7164 9.05258 64.9931C7.77593 66.2697 7.77593 68.4749 9.05258 69.8676L11.9541 72.769C12.1862 73.0012 12.3022 73.1172 12.5344 73.2333C13.1146 73.5814 13.9271 73.8136 14.6234 73.6975C15.4358 73.5814 16.1322 73.3493 16.7125 72.653C17.0607 72.4209 17.2928 72.1887 17.4088 71.8405Z" fill="white"/>
<path d="M20.7746 71.8406L17.8731 68.9391C17.641 68.707 17.525 68.5909 17.2928 68.4749C16.7126 68.1267 15.9001 67.8946 15.2038 68.0106C14.7396 68.0106 14.2753 68.1267 13.9271 68.3588C13.579 68.4749 13.3468 68.707 12.9987 68.9391C12.4184 69.5194 12.0702 70.3318 12.0702 71.1442C12.0702 71.8406 12.1862 72.5369 12.6505 73.2333C12.7665 73.4654 12.8826 73.5815 13.1147 73.8136L16.0162 76.7151C17.2929 77.9917 19.498 77.9917 20.7746 76.7151C22.0513 75.3224 22.0513 73.1172 20.7746 71.8406ZM16.8286 75.7866L13.9271 72.8851C13.695 72.653 13.579 72.5369 13.4629 72.3048C13.1147 71.4924 13.2308 70.4479 13.9271 69.7515C14.1593 69.5194 14.5074 69.2873 14.8556 69.1712C15.3198 69.0552 15.9001 69.0552 16.4804 69.2873C16.7126 69.4033 16.9447 69.5194 17.0607 69.7515L19.9622 72.653C20.0783 72.7691 20.1943 72.8851 20.1943 73.0012C20.7746 73.8136 20.7746 75.0902 19.9622 75.9026C19.0337 76.715 17.641 76.7151 16.8286 75.7866Z" fill="white"/>
</svg>
