<svg width="52" height="50" viewBox="0 0 52 50" fill="none" xmlns="http://www.w3.org/2000/svg">
<path d="M51.0659 4.87448V44.9149C51.0659 47.5842 48.8608 49.7893 46.1914 49.7893H6.15103C3.48167 49.7893 1.27655 47.5842 1.27655 44.9149V4.87448C1.27655 4.29419 1.39261 3.71389 1.62473 3.1336C2.32109 1.27665 4.06196 0 6.15103 0H46.1914C48.8608 0 51.0659 2.20512 51.0659 4.87448Z" fill="#F7FFFE"/>
<path d="M49.7893 4.87448V44.9149C49.7893 47.5842 47.5842 49.7893 44.9149 49.7893H4.87448C2.20512 49.7893 0 47.5842 0 44.9149V4.87448C0 2.20512 2.20512 0 4.87448 0H44.9149C47.7003 0 49.7893 2.20512 49.7893 4.87448Z" fill="#BCF2EB"/>
<path d="M51.0659 4.87448V44.9149C51.0659 47.5842 48.8608 49.7893 46.1914 49.7893H6.15103C3.48167 49.7893 1.27655 47.5842 1.27655 44.9149V4.87448C1.27655 4.29419 1.39261 3.71389 1.62473 3.1336C2.32109 1.27665 4.06196 0 6.15103 0H46.1914C48.8608 0 51.0659 2.20512 51.0659 4.87448Z" fill="#F7FFFE"/>
<path d="M45.0308 6.15114H7.31158V36.3265H45.0308V6.15114Z" fill="white"/>
<path d="M45.2629 6.15114H43.8702V36.3265H45.2629V6.15114Z" fill="#F7FFFE"/>
<path opacity="0.502" d="M51.066 4.87448V44.9149C51.066 47.5842 48.8609 49.7893 46.1915 49.7893H43.4061C42.7097 47.3521 42.2455 44.6827 40.8528 42.5937C38.6477 39.228 34.7016 37.8353 30.8717 36.4425C29.479 35.8623 27.9702 35.282 26.6936 34.5856C22.1673 32.2644 18.6855 28.0863 16.9446 23.3279C15.3198 18.5695 15.4358 13.2307 13.4628 8.58837C13.1147 7.77596 12.6504 6.96354 12.1862 6.15113C10.4453 3.59783 7.89201 1.62483 4.87448 1.85695C3.71389 1.973 2.55329 2.43724 1.62482 3.1336C1.04452 3.59783 0.464236 4.17813 0 4.87448C0 2.20512 2.20512 0 4.87448 0H46.0754C48.8609 0 51.066 2.20512 51.066 4.87448Z" fill="#BCF2EB"/>
<path d="M30.2913 40.1564H7.31158V41.7813H30.2913V40.1564Z" fill="#BCF2EB"/>
<path d="M25.1846 43.8703H7.31152V45.4952H25.1846V43.8703Z" fill="#BCF2EB"/>
<path d="M33.0767 20.5425C33.0767 24.2564 30.0592 27.3899 26.2293 27.3899C22.5154 27.3899 19.3818 24.3724 19.3818 20.5425C19.3818 16.8286 22.3993 13.695 26.2293 13.695C30.0592 13.811 33.0767 16.8286 33.0767 20.5425Z" stroke="#BCF2EB" stroke-width="3" stroke-miterlimit="10" stroke-linecap="round" stroke-linejoin="round"/>
</svg>
