<svg width="65" height="63" viewBox="0 0 65 63" fill="none" xmlns="http://www.w3.org/2000/svg">
<path d="M64.0647 6.15113V56.4047C64.0647 59.7704 61.2792 62.5558 57.9135 62.5558H7.77601C4.41029 62.5558 1.62488 59.7704 1.62488 56.4047V6.15113C1.62488 5.33871 1.74093 4.64236 2.08911 3.946C3.01758 1.62482 5.22271 -7.62939e-06 7.77601 -7.62939e-06H58.0296C61.2792 -7.62939e-06 64.0647 2.78541 64.0647 6.15113Z" fill="#74E2EB"/>
<path d="M62.5558 6.15113V56.4047C62.5558 59.7704 59.7704 62.5558 56.4047 62.5558H6.15113C2.78542 62.5558 0 59.7704 0 56.4047V6.15113C0 2.78542 2.78542 0 6.15113 0H56.4047C59.7704 0 62.5558 2.78542 62.5558 6.15113Z" fill="#BCF2EB"/>
<path d="M64.0647 6.15113V56.4047C64.0647 59.7704 61.2792 62.5558 57.9135 62.5558H7.77601C4.41029 62.5558 1.62488 59.7704 1.62488 56.4047V6.15113C1.62488 5.33871 1.74093 4.64236 2.08911 3.946C3.01758 1.62482 5.22271 -7.62939e-06 7.77601 -7.62939e-06H58.0296C61.2792 -7.62939e-06 64.0647 2.78541 64.0647 6.15113Z" fill="#74E2EB"/>
<path d="M56.6369 7.77596H9.16876V45.7273H56.6369V7.77596Z" fill="white"/>
<path d="M56.753 7.77596H55.0121V45.7273H56.753V7.77596Z" fill="#F7FFFE"/>
<path opacity="0.502" d="M64.0647 6.15113V56.4047C64.0647 59.7704 61.2792 62.5558 57.9135 62.5558H54.3157C53.3872 59.4222 52.8069 56.1726 51.0661 53.5032C48.2806 49.3251 43.4062 47.5842 38.5317 45.7273C36.6747 45.0309 34.9338 44.3346 33.309 43.4061C27.6221 40.5046 23.2119 35.282 21.1228 29.3629C19.0337 23.4439 19.1498 16.7125 16.8286 10.9095C16.3644 9.86502 15.9002 8.82049 15.2038 7.77596C12.9987 4.5263 9.74902 2.08906 6.03513 2.43723C4.52637 2.55329 3.13366 3.13359 1.97307 4.06206C1.16065 4.64236 0.464297 5.45477 6.10352e-05 6.26719C6.10352e-05 2.90147 2.78548 0.116053 6.15119 0.116053H57.9135C61.2792 -5.86361e-06 64.0647 2.78542 64.0647 6.15113Z" fill="#F7FFFE"/>
<path d="M38.0675 50.4857H9.16876V52.5747H38.0675V50.4857Z" fill="#BCF2EB"/>
<path d="M31.5682 55.1281H9.16882V57.2171H31.5682V55.1281Z" fill="#BCF2EB"/>
<path d="M23.5601 26.8096L31.22 35.6301L43.8705 19.2658" stroke="#BCF2EB" stroke-width="4" stroke-miterlimit="10" stroke-linecap="round" stroke-linejoin="round"/>
</svg>
