<svg width="245" height="463" viewBox="0 0 245 463" fill="none" xmlns="http://www.w3.org/2000/svg">
<path d="M51.0659 4.87448V44.9149C51.0659 47.5842 48.8608 49.7893 46.1914 49.7893H6.15103C3.48167 49.7893 1.27655 47.5842 1.27655 44.9149V4.87448C1.27655 4.29419 1.39261 3.71389 1.62473 3.1336C2.32109 1.27665 4.06196 0 6.15103 0H46.1914C48.8608 0 51.0659 2.20512 51.0659 4.87448Z" fill="#F7FFFE"/>
<path d="M49.7893 4.87448V44.9149C49.7893 47.5842 47.5842 49.7893 44.9149 49.7893H4.87448C2.20512 49.7893 0 47.5842 0 44.9149V4.87448C0 2.20512 2.20512 0 4.87448 0H44.9149C47.7003 0 49.7893 2.20512 49.7893 4.87448Z" fill="#BCF2EB"/>
<path d="M143.008 384.66V447.1C143.008 451.278 139.642 454.76 135.348 454.76H72.9081C68.73 454.76 65.2482 451.394 65.2482 447.1V384.66C65.2482 383.731 65.4803 382.803 65.7125 381.874C66.873 378.973 69.6585 377 72.9081 377H135.348C139.526 377 143.008 380.482 143.008 384.66Z" fill="#BCF2EB"/>
<path d="M141.035 384.66V447.1C141.035 451.278 137.669 454.76 133.375 454.76H70.9352C66.7571 454.76 63.2753 451.394 63.2753 447.1V384.66C63.2753 380.482 66.7571 377 70.9352 377H133.375C137.553 377 141.035 380.482 141.035 384.66Z" fill="#BCF2EB"/>
<path d="M143.008 384.66V447.1C143.008 451.278 139.642 454.76 135.348 454.76H72.9081C68.73 454.76 65.2482 451.394 65.2482 447.1V384.66C65.2482 383.731 65.4803 382.803 65.7125 381.874C66.873 378.973 69.6585 377 72.9081 377H135.348C139.526 377 143.008 380.482 143.008 384.66Z" fill="#BCF2EB"/>
<path d="M133.607 386.633H74.6491V433.753H133.607V386.633Z" fill="white"/>
<path d="M133.723 386.633H131.634V433.753H133.723V386.633Z" fill="#F7FFFE"/>
<path opacity="0.502" d="M143.008 384.66V447.1C143.008 451.278 139.642 454.76 135.348 454.76H130.938C129.777 450.93 129.081 446.752 126.992 443.502C123.51 438.279 117.475 436.19 111.44 433.869C109.235 433.057 106.913 432.128 104.94 431.084C97.9769 427.37 92.4061 420.986 89.7367 413.559C87.0674 406.131 87.2995 397.891 84.398 390.579C83.8177 389.302 83.1213 387.91 82.3089 386.749C79.6396 382.803 75.5775 379.669 70.9351 380.018C69.0782 380.134 67.3373 380.946 65.8285 381.991C64.9001 382.687 63.9716 383.731 63.3913 384.66C63.3913 380.482 66.8731 377 71.0512 377H135.464C139.526 377 143.008 380.482 143.008 384.66Z" fill="#F7FFFE"/>
<path d="M100.995 442.689H72.0958V444.778H100.995V442.689Z" fill="#BCF2EB"/>
<path d="M94.4952 447.332H72.0958V449.421H94.4952V447.332Z" fill="#BCF2EB"/>
<path d="M92.6382 410.309L102.155 421.335L117.823 400.908" stroke="#BCF2EB" stroke-width="5" stroke-miterlimit="10" stroke-linecap="round" stroke-linejoin="round"/>
<path d="M63.7395 462.536C71.8799 462.536 78.479 455.936 78.479 447.796C78.479 439.656 71.8799 433.057 63.7395 433.057C55.5991 433.057 49 439.656 49 447.796C49 455.936 55.5991 462.536 63.7395 462.536Z" fill="#FCBE1C"/>
<path d="M67.9886 458.014C73.609 455.67 76.2653 449.214 73.9215 443.593C71.5777 437.973 65.1215 435.317 59.5011 437.66C53.8807 440.004 51.2245 446.46 53.5682 452.081C55.912 457.701 62.3682 460.357 67.9886 458.014Z" fill="#FB8400"/>
<path d="M66.4088 448.841L65.4804 447.912C65.3643 448.26 65.2482 448.608 64.9001 448.841C64.2037 449.537 63.2752 449.653 62.3468 449.305C62.1147 449.189 61.8825 449.073 61.7665 448.841L58.865 445.939C58.0526 445.127 57.9365 443.618 58.865 442.805C59.6774 441.993 61.1862 441.993 61.9986 442.805L64.9001 445.707C65.1322 445.939 65.2482 446.055 65.3643 446.287C65.5964 446.403 65.8285 446.519 65.9446 446.751L66.757 447.564C66.757 446.868 66.641 446.171 66.2928 445.475C66.1767 445.243 65.9446 445.011 65.8285 444.895L62.9271 441.993C61.6504 440.716 59.4453 440.716 58.0526 441.993C56.7759 443.27 56.7759 445.475 58.0526 446.868L60.9541 449.769C61.1862 450.001 61.3022 450.117 61.5344 450.233C62.1146 450.581 62.9271 450.814 63.6234 450.698C64.4358 450.581 65.1322 450.349 65.7125 449.653C66.0607 449.421 66.2928 449.189 66.4088 448.841Z" fill="white"/>
<path d="M69.7746 448.841L66.8731 445.939C66.641 445.707 66.525 445.591 66.2928 445.475C65.7126 445.127 64.9001 444.895 64.2038 445.011C63.7396 445.011 63.2753 445.127 62.9271 445.359C62.579 445.475 62.3468 445.707 61.9987 445.939C61.4184 446.519 61.0702 447.332 61.0702 448.144C61.0702 448.841 61.1862 449.537 61.6505 450.233C61.7665 450.465 61.8826 450.581 62.1147 450.814L65.0162 453.715C66.2929 454.992 68.498 454.992 69.7746 453.715C71.0513 452.322 71.0513 450.117 69.7746 448.841ZM65.8286 452.787L62.9271 449.885C62.695 449.653 62.579 449.537 62.4629 449.305C62.1147 448.492 62.2308 447.448 62.9271 446.752C63.1593 446.519 63.5074 446.287 63.8556 446.171C64.3198 446.055 64.9001 446.055 65.4804 446.287C65.7126 446.403 65.9447 446.519 66.0607 446.752L68.9622 449.653C69.0783 449.769 69.1943 449.885 69.1943 450.001C69.7746 450.814 69.7746 452.09 68.9622 452.903C68.0337 453.715 66.641 453.715 65.8286 452.787Z" fill="white"/>
<path d="M69.0647 202.151V252.405C69.0647 255.77 66.2792 258.556 62.9135 258.556H12.776C9.41029 258.556 6.62488 255.77 6.62488 252.405V202.151C6.62488 201.339 6.74093 200.642 7.08911 199.946C8.01758 197.625 10.2227 196 12.776 196H63.0296C66.2792 196 69.0647 198.785 69.0647 202.151Z" fill="#74E2EB"/>
<path d="M67.5558 202.151V252.405C67.5558 255.77 64.7704 258.556 61.4047 258.556H11.1511C7.78542 258.556 5 255.77 5 252.405V202.151C5 198.785 7.78542 196 11.1511 196H61.4047C64.7704 196 67.5558 198.785 67.5558 202.151Z" fill="#BCF2EB"/>
<path d="M69.0647 202.151V252.405C69.0647 255.77 66.2792 258.556 62.9135 258.556H12.776C9.41029 258.556 6.62488 255.77 6.62488 252.405V202.151C6.62488 201.339 6.74093 200.642 7.08911 199.946C8.01758 197.625 10.2227 196 12.776 196H63.0296C66.2792 196 69.0647 198.785 69.0647 202.151Z" fill="#74E2EB"/>
<path d="M61.6369 203.776H14.1688V241.727H61.6369V203.776Z" fill="white"/>
<path d="M61.753 203.776H60.0121V241.727H61.753V203.776Z" fill="#F7FFFE"/>
<path opacity="0.502" d="M69.0647 202.151V252.405C69.0647 255.77 66.2792 258.556 62.9135 258.556H59.3157C58.3872 255.422 57.8069 252.173 56.0661 249.503C53.2806 245.325 48.4062 243.584 43.5317 241.727C41.6747 241.031 39.9338 240.335 38.309 239.406C32.6221 236.505 28.2119 231.282 26.1228 225.363C24.0337 219.444 24.1498 212.713 21.8286 206.91C21.3644 205.865 20.9002 204.82 20.2038 203.776C17.9987 200.526 14.749 198.089 11.0351 198.437C9.52637 198.553 8.13366 199.134 6.97307 200.062C6.16065 200.642 5.4643 201.455 5.00006 202.267C5.00006 198.901 7.78548 196.116 11.1512 196.116H62.9135C66.2792 196 69.0647 198.785 69.0647 202.151Z" fill="#F7FFFE"/>
<path d="M43.0675 246.486H14.1688V248.575H43.0675V246.486Z" fill="#BCF2EB"/>
<path d="M36.5682 251.128H14.1688V253.217H36.5682V251.128Z" fill="#BCF2EB"/>
<path d="M28.5601 222.81L36.22 231.63L48.8705 215.266" stroke="#BCF2EB" stroke-width="4" stroke-miterlimit="10" stroke-linecap="round" stroke-linejoin="round"/>
<path d="M232.857 61.8461V130.553C232.857 135.195 229.143 139.025 224.385 139.025H155.678C151.035 139.025 147.205 135.311 147.205 130.553V61.8461C147.205 60.8016 147.437 59.757 147.786 58.8286C148.946 55.695 152.08 53.4898 155.678 53.4898H224.385C229.027 53.3738 232.857 57.0877 232.857 61.8461Z" fill="#BCF2EB"/>
<path d="M230.652 61.8461V130.553C230.652 135.195 226.938 139.025 222.179 139.025H153.472C148.83 139.025 145 135.311 145 130.553V61.73C145 57.0877 148.83 53.3738 153.472 53.3738H222.179C226.938 53.3738 230.652 57.0877 230.652 61.8461Z" fill="#74E2EB"/>
<path d="M232.857 61.8461V130.553C232.857 135.195 229.143 139.025 224.385 139.025H155.678C151.035 139.025 147.205 135.311 147.205 130.553V61.8461C147.205 60.8016 147.437 59.757 147.786 58.8286C148.946 55.695 152.08 53.4898 155.678 53.4898H224.385C229.027 53.3738 232.857 57.0877 232.857 61.8461Z" fill="#BCF2EB"/>
<path d="M222.528 63.9352H157.535V115.93H222.528V63.9352Z" fill="white"/>
<path d="M222.644 63.9352H220.322V115.93H222.644V63.9352Z" fill="#F7FFFE"/>
<path d="M205.003 77.8622H176.916V107.109H205.003V77.8622Z" fill="#74E2EB"/>
<path d="M195.37 82.8528L190.727 74.9608L186.549 82.3885L185.04 81.4601L190.727 71.479L196.762 82.0404L195.37 82.8528Z" fill="#74E2EB"/>
<path d="M201.521 81.5761H180.282V103.395H201.521V81.5761Z" fill="white"/>
<path opacity="0.502" d="M232.857 61.8461V130.553C232.857 135.195 229.143 139.025 224.385 139.025H219.51C218.233 134.731 217.537 130.321 215.1 126.607C211.27 120.804 204.655 118.483 198.039 115.93C195.602 115.001 193.165 113.957 190.843 112.796C183.184 108.734 177.032 101.77 174.131 93.5302C171.23 85.4061 171.462 76.2374 168.212 68.2293C167.632 66.7206 166.819 65.3279 166.007 63.9352C163.105 59.5249 158.579 56.1592 153.473 56.5074C151.383 56.6234 149.526 57.4358 147.902 58.7125C146.857 59.5249 145.929 60.5694 145.232 61.73C145.232 57.0877 149.062 53.3738 153.705 53.3738H224.617C229.027 53.3738 232.857 57.0877 232.857 61.8461Z" fill="#F7FFFE"/>
<path d="M197.111 122.429H157.534V125.33H197.111V122.429Z" fill="#74E2EB"/>
<path d="M188.174 128.812H157.535V131.714H188.174V128.812Z" fill="#74E2EB"/>
<path d="M179.934 71.479C188.074 71.479 194.673 64.8799 194.673 56.7395C194.673 48.5991 188.074 42 179.934 42C171.793 42 165.194 48.5991 165.194 56.7395C165.194 64.8799 171.793 71.479 179.934 71.479Z" fill="#FCBE1C"/>
<path d="M179.934 67.7651C186.023 67.7651 190.959 62.8288 190.959 56.7395C190.959 50.6502 186.023 45.7139 179.934 45.7139C173.845 45.7139 168.908 50.6502 168.908 56.7395C168.908 62.8288 173.845 67.7651 179.934 67.7651Z" fill="#FB8400"/>
<path d="M182.603 57.784L181.675 56.8556C181.559 57.2037 181.443 57.5519 181.094 57.784C180.398 58.4804 179.47 58.5964 178.541 58.2483C178.309 58.1322 178.077 58.0161 177.961 57.784L175.059 54.8825C174.247 54.0701 174.131 52.5614 175.059 51.749C175.872 50.9365 177.381 50.9365 178.193 51.749L181.094 54.6504C181.327 54.8825 181.443 54.9986 181.559 55.2307C181.791 55.3468 182.023 55.4628 182.139 55.695L182.951 56.5074C182.951 55.811 182.835 55.1147 182.487 54.4183C182.371 54.1862 182.139 53.9541 182.023 53.838L179.121 50.9365C177.845 49.6599 175.64 49.6599 174.247 50.9365C172.97 52.2132 172.97 54.4183 174.247 55.811L177.148 58.7125C177.381 58.9446 177.497 59.0607 177.729 59.1767C178.309 59.5249 179.121 59.757 179.818 59.641C180.63 59.5249 181.327 59.2928 181.907 58.5964C182.255 58.3643 182.487 58.0161 182.603 57.784Z" fill="white"/>
<path d="M185.969 57.784L183.067 54.8826C182.835 54.6504 182.719 54.5344 182.487 54.4183C181.907 54.0701 181.094 53.838 180.398 53.9541C179.934 53.9541 179.47 54.0701 179.121 54.3023C178.773 54.4183 178.541 54.6504 178.193 54.8826C177.613 55.4628 177.265 56.2753 177.265 57.0877C177.265 57.784 177.381 58.4804 177.845 59.1767C177.961 59.4089 178.077 59.5249 178.309 59.757L181.211 62.6585C182.487 63.9352 184.692 63.9352 185.969 62.6585C187.246 61.2658 187.246 59.0607 185.969 57.784ZM181.907 61.73L179.005 58.8286C178.773 58.5964 178.657 58.4804 178.541 58.2483C178.193 57.4358 178.309 56.3913 179.005 55.695C179.238 55.4628 179.586 55.2307 179.934 55.1147C180.398 54.9986 180.978 54.9986 181.559 55.2307C181.791 55.3468 182.023 55.4628 182.139 55.695L185.04 58.5964C185.157 58.7125 185.273 58.8286 185.273 58.9446C185.853 59.757 185.853 61.0337 185.04 61.8461C184.228 62.6585 182.835 62.6585 181.907 61.73Z" fill="white"/>
<path d="M230.187 145.757C238.328 145.757 244.927 139.158 244.927 131.017C244.927 122.877 238.328 116.278 230.187 116.278C222.047 116.278 215.448 122.877 215.448 131.017C215.448 139.158 222.047 145.757 230.187 145.757Z" fill="#FCBE1C"/>
<path d="M230.187 142.043C236.277 142.043 241.213 137.107 241.213 131.017C241.213 124.928 236.277 119.992 230.187 119.992C224.098 119.992 219.162 124.928 219.162 131.017C219.162 137.107 224.098 142.043 230.187 142.043Z" fill="#FB8400"/>
<path d="M232.741 131.946L231.812 131.017C231.696 131.365 231.58 131.714 231.232 131.946C230.536 132.642 229.607 132.758 228.679 132.41C228.447 132.294 228.215 132.178 228.098 131.946L225.197 129.044C224.385 128.232 224.269 126.723 225.197 125.911C226.009 125.098 227.518 125.098 228.331 125.911L231.232 128.812C231.464 129.044 231.58 129.16 231.696 129.392C231.928 129.509 232.161 129.625 232.277 129.857L233.089 130.669C233.089 129.973 232.973 129.276 232.625 128.58C232.509 128.348 232.277 128.116 232.161 128L229.259 125.098C227.982 123.822 225.777 123.822 224.385 125.098C223.108 126.375 223.108 128.58 224.385 129.973L227.286 132.874C227.518 133.106 227.634 133.222 227.866 133.338C228.447 133.687 229.259 133.919 229.955 133.803C230.768 133.687 231.464 133.455 232.044 132.758C232.393 132.642 232.625 132.294 232.741 131.946Z" fill="white"/>
<path d="M236.107 132.062L233.205 129.16C232.973 128.928 232.857 128.812 232.625 128.696C232.045 128.348 231.232 128.116 230.536 128.232C230.072 128.232 229.607 128.348 229.259 128.58C228.911 128.696 228.679 128.928 228.331 129.16C227.75 129.741 227.402 130.553 227.402 131.365C227.402 132.062 227.518 132.758 227.982 133.455C228.099 133.687 228.215 133.803 228.447 134.035L231.348 136.936C232.625 138.213 234.83 138.213 236.107 136.936C237.499 135.544 237.499 133.338 236.107 132.062ZM232.161 136.008L229.259 133.106C229.027 132.874 228.911 132.758 228.795 132.526C228.447 131.714 228.563 130.669 229.259 129.973C229.491 129.741 229.839 129.509 230.188 129.392C230.652 129.276 231.232 129.276 231.812 129.509C232.045 129.625 232.277 129.741 232.393 129.973L235.294 132.874C235.41 132.99 235.526 133.106 235.526 133.222C236.107 134.035 236.107 135.311 235.294 136.124C234.366 136.82 232.973 136.82 232.161 136.008Z" fill="white"/>
<path d="M51.0659 4.87448V44.9149C51.0659 47.5842 48.8608 49.7893 46.1914 49.7893H6.15103C3.48167 49.7893 1.27655 47.5842 1.27655 44.9149V4.87448C1.27655 4.29419 1.39261 3.71389 1.62473 3.1336C2.32109 1.27665 4.06196 0 6.15103 0H46.1914C48.8608 0 51.0659 2.20512 51.0659 4.87448Z" fill="#F7FFFE"/>
<path d="M45.0308 6.15114H7.31158V36.3265H45.0308V6.15114Z" fill="white"/>
<path d="M45.2629 6.15114H43.8702V36.3265H45.2629V6.15114Z" fill="#F7FFFE"/>
<path opacity="0.502" d="M51.066 4.87448V44.9149C51.066 47.5842 48.8609 49.7893 46.1915 49.7893H43.4061C42.7097 47.3521 42.2455 44.6827 40.8528 42.5937C38.6477 39.228 34.7016 37.8353 30.8717 36.4425C29.479 35.8623 27.9702 35.282 26.6936 34.5856C22.1673 32.2644 18.6855 28.0863 16.9446 23.3279C15.3198 18.5695 15.4358 13.2307 13.4628 8.58837C13.1147 7.77596 12.6504 6.96354 12.1862 6.15113C10.4453 3.59783 7.89201 1.62483 4.87448 1.85695C3.71389 1.973 2.55329 2.43724 1.62482 3.1336C1.04452 3.59783 0.464236 4.17813 0 4.87448C0 2.20512 2.20512 0 4.87448 0H46.0754C48.8609 0 51.066 2.20512 51.066 4.87448Z" fill="#BCF2EB"/>
<path d="M30.2913 40.1564H7.31158V41.7813H30.2913V40.1564Z" fill="#BCF2EB"/>
<path d="M25.1846 43.8703H7.31152V45.4952H25.1846V43.8703Z" fill="#BCF2EB"/>
<path d="M33.0767 20.5425C33.0767 24.2564 30.0592 27.3899 26.2293 27.3899C22.5154 27.3899 19.3818 24.3724 19.3818 20.5425C19.3818 16.8286 22.3993 13.695 26.2293 13.695C30.0592 13.811 33.0767 16.8286 33.0767 20.5425Z" stroke="#BCF2EB" stroke-width="3" stroke-miterlimit="10" stroke-linecap="round" stroke-linejoin="round"/>
</svg>
